SplineFontDB: 3.2
FontName: AThuluthNew
FullName: A ThuluthNew
FamilyName: A ThuluthNew
Weight: Book
Copyright: kh@-thuluth
Version: 1.00 February 10, 2011, initial release
ItalicAngle: 0
UnderlinePosition: -800
UnderlineWidth: 100
Ascent: 1638
Descent: 410
InvalidEm: 0
sfntRevision: 0x00010000
LayerCount: 2
Layer: 0 1 "Back" 1
Layer: 1 1 "Fore" 0
XUID: [1021 690 124678905 16507]
StyleMap: 0x0040
FSType: 1
OS2Version: 1
OS2_WeightWidthSlopeOnly: 0
OS2_UseTypoMetrics: 0
CreationTime: 1271637275
ModificationTime: 1752076099
PfmFamily: 81
TTFWeight: 400
TTFWidth: 5
LineGap: 0
VLineGap: 0
Panose: 0 0 0 0 0 0 0 0 0 0
OS2TypoAscent: 2036
OS2TypoAOffset: 0
OS2TypoDescent: -1025
OS2TypoDOffset: 0
OS2TypoLinegap: 0
OS2WinAscent: 2750
OS2WinAOffset: 0
OS2WinDescent: 1444
OS2WinDOffset: 0
HheadAscent: 1394
HheadAOffset: 0
HheadDescent: -750
HheadDOffset: 0
OS2SubXSize: 700
OS2SubYSize: 650
OS2SubXOff: 0
OS2SubYOff: 143
OS2SupXSize: 700
OS2SupYSize: 650
OS2SupXOff: 0
OS2SupYOff: 453
OS2StrikeYSize: 50
OS2StrikeYPos: 259
OS2Vendor: 'kh@ '
OS2CodePages: 00000041.20080000
OS2UnicodeRanges: 80006003.90000048.00000008.00000000
Lookup: 1 1 0 "'isol' Isolated Forms in Arabic lookup 0" { "'isol' Isolated Forms in Arabic lookup 0 subtable"  } ['isol' ('arab' <'dflt' > ) ]
Lookup: 1 1 0 "'init' Initial Forms in Arabic lookup 1" { "'init' Initial Forms in Arabic lookup 1 subtable" ("init") } ['init' ('arab' <'dflt' > ) ]
Lookup: 1 1 0 "'medi' Medial Forms in Arabic lookup 2" { "'medi' Medial Forms in Arabic lookup 2 subtable" ("medi") } ['medi' ('arab' <'dflt' > ) ]
Lookup: 1 1 0 "'fina' Terminal Forms in Arabic lookup 3" { "'fina' Terminal Forms in Arabic lookup 3 subtable" ("fina") } ['fina' ('arab' <'dflt' > ) ]
Lookup: 4 1 1 "'liga' Standard Ligatures in Arabic lookup 4" { "'liga' Standard Ligatures in Arabic lookup 4 subtable"  } ['liga' ('arab' <'dflt' > ) ]

StartChar: .notdef
Encoding: 65536 -1 0
Width: 2447
GlyphClass: 1
Flags: W
LayerCount: 2
Fore
SplineSet
1354 2464 m 1,0,-1
 1479 2307 l 1,1,-1
 1451 2275 l 1,2,-1
 1490 2269 l 1,3,-1
 1490 2275 l 1,4,-1
 1501 2269 l 1,5,-1
 1522 2269 l 1,6,7
 1706 2265 1706 2265 1706 2247 c 1,8,9
 1649 2074 1649 2074 1582 2074 c 1,10,11
 1562 2058 1562 2058 1538 2058 c 1,12,13
 1391 1989 1391 1989 1339 1956 c 1,14,15
 1185 1872 1185 1872 1090 1804 c 1,16,17
 1048 1780 1048 1780 1030 1755 c 1,18,19
 1036 1709 1036 1709 1036 1680 c 1,20,-1
 1030 1658 l 1,21,22
 987 1718 987 1718 981 1718 c 0,23,24
 965 1718 965 1718 830 1566 c 1,25,-1
 830 1561 l 1,26,-1
 906 1561 l 2,27,28
 911 1561 911 1561 922 1561 c 0,29,30
 1030 1566 1030 1566 1084 1566 c 2,31,-1
 1187 1566 l 1,32,-1
 1187 1571 l 1,33,-1
 1138 1636 l 1,34,-1
 1138 1648 l 1,35,36
 1252 1755 1252 1755 1268 1755 c 1,37,38
 1372 1629 1372 1629 1392 1593 c 1,39,-1
 1405 1577 l 1,40,-1
 1403 1577 l 1,41,-1
 1431 1582 l 1,42,-1
 1441 1582 l 1,43,-1
 1495 1582 l 2,44,45
 1511 1582 1511 1582 1516 1582 c 0,46,47
 1548 1582 1548 1582 1630 1561 c 1,48,49
 1679 1621 1679 1621 1792 1701 c 1,50,-1
 1803 1701 l 1,51,52
 1760 1662 1760 1662 1760 1566 c 0,53,54
 1760 1518 1760 1518 1831 1480 c 1,55,-1
 1852 1474 l 1,56,57
 1975 1474 1975 1474 2071 1629 c 1,58,-1
 2268 1825 l 2,59,60
 2290 1844 2290 1844 2290 1858 c 0,61,62
 2284 1897 2284 1897 2284 1902 c 2,63,-1
 2281 1912 l 1,64,65
 2264 2031 2264 2031 2257 2031 c 2,66,-1
 2252 2031 l 1,67,68
 2252 2014 2252 2014 2178 1933 c 1,69,-1
 2182 1950 l 1,70,71
 2231 2022 2231 2022 2263 2048 c 1,72,-1
 2274 2048 l 1,73,74
 2279 1999 2279 1999 2306 1853 c 0,75,76
 2306 1839 2306 1839 2211 1753 c 0,77,78
 2148 1693 2148 1693 1993 1512 c 1,79,-1
 1809 1360 l 1,80,-1
 1803 1360 l 1,81,-1
 1819 1253 l 1,82,83
 1815 1199 1815 1199 1809 1199 c 1,84,-1
 1814 1188 l 1,85,86
 1794 1069 1794 1069 1749 987 c 0,87,88
 1606 713 1606 713 1274 593 c 1,89,90
 1150 555 1150 555 1073 555 c 2,91,-1
 1068 555 l 1,92,93
 946 565 946 565 922 587 c 1,94,95
 889 565 889 565 841 517 c 0,96,97
 754 431 754 431 738 431 c 1,98,99
 738 418 738 418 673 366 c 1,100,101
 638 349 638 349 581 284 c 1,102,103
 688 166 688 166 1008 85 c 1,104,-1
 1160 63 l 2,105,106
 1165 63 1165 63 1165 68 c 1,107,108
 1247 63 1247 63 1247 58 c 1,109,-1
 1274 63 l 1,110,-1
 1311 63 l 2,111,112
 1598 63 1598 63 1938 95 c 1,113,-1
 1938 85 l 1,114,115
 1606 -94 1606 -94 1339 -94 c 1,116,117
 1322 -99 1322 -99 1262 -99 c 0,118,119
 912 -99 912 -99 657 42 c 1,120,121
 580 94 580 94 484 204 c 1,122,123
 328 66 328 66 305 52 c 1,124,125
 272 -7 272 -7 263 -7 c 0,126,127
 240 -7 240 -7 171 -72 c 1,128,-1
 165 -72 l 2,129,130
 159 -72 159 -72 79 25 c 1,131,-1
 79 36 l 1,132,-1
 84 36 l 1,133,134
 107 27 107 27 127 -2 c 1,135,136
 138 -2 138 -2 138 -12 c 1,137,-1
 149 -7 l 1,138,139
 146 16 146 16 127 25 c 1,140,-1
 127 31 l 1,141,-1
 116 25 l 1,142,-1
 116 31 l 2,143,144
 116 42 116 42 133 42 c 1,145,146
 133 54 133 54 79 68 c 1,147,-1
 73 68 l 1,148,-1
 73 42 l 1,149,-1
 67 42 l 2,150,151
 60 42 60 42 -8 117 c 1,152,-1
 -8 122 l 1,153,154
 76 195 76 195 79 220 c 1,155,156
 109 224 109 224 273 371 c 2,157,-1
 392 474 l 1,158,-1
 392 485 l 2,159,160
 392 507 392 507 392 527 c 0,161,162
 392 550 392 550 392 566 c 0,163,164
 392 572 392 572 392 585.5 c 128,-1,165
 392 599 392 599 392 678 c 0,166,167
 392 690 392 690 394 695 c 0,168,169
 400 735 400 735 411 788.5 c 128,-1,170
 422 842 422 842 435 880 c 0,171,172
 474 1005 474 1005 576 1150 c 1,173,-1
 616 1188 l 1,174,175
 625 1275 625 1275 673 1410 c 0,176,177
 676 1420 676 1420 673 1420 c 2,178,-1
 657 1420 l 2,179,180
 581 1417 581 1417 581 1377 c 1,181,182
 536 1366 536 1366 295 1350 c 1,183,184
 295 1355 295 1355 290 1355 c 1,185,186
 325 1512 325 1512 367 1517 c 1,187,188
 499 1571 499 1571 582 1567 c 0,189,190
 591 1566 591 1566 603 1566 c 2,191,-1
 630 1566 l 2,192,193
 636 1566 636 1566 646 1566 c 2,194,-1
 760 1566 l 1,195,-1
 760 1571 l 1,196,-1
 749 1571 l 1,197,-1
 749 1582 l 1,198,199
 765 1609 765 1609 787 1648 c 1,200,-1
 900 1793 l 1,201,202
 832 1845 832 1845 684 1896 c 1,203,204
 559 1955 559 1955 559 2036 c 0,205,206
 559 2224 559 2224 738 2264 c 1,207,208
 818 2290 818 2290 949 2290 c 2,209,-1
 1122 2290 l 1,210,-1
 1160 2285 l 1,211,-1
 1160 2290 l 1,212,-1
 1170 2285 l 1,213,-1
 1262 2285 l 1,214,215
 1262 2291 1262 2291 1208 2361 c 1,216,-1
 1208 2372 l 1,217,218
 1339 2464 1339 2464 1354 2464 c 1,0,-1
641 2080 m 1,219,220
 653 2053 653 2053 825 1988 c 1,221,222
 926 1936 926 1936 992 1869 c 1,223,-1
 998 1869 l 1,224,225
 1086 1939 1086 1939 1160 1986 c 1,226,-1
 1187 1999 l 1,227,228
 1342 2100 1342 2100 1414 2123 c 1,229,-1
 1414 2128 l 1,230,231
 1258 2140 1258 2140 1122 2140 c 2,232,-1
 1095 2140 l 2,233,234
 1090 2140 1090 2140 1078 2140 c 2,235,-1
 1068 2140 l 2,236,237
 1034 2140 1034 2140 987 2143 c 1,238,-1
 959 2140 l 1,239,240
 657 2121 657 2121 641 2080 c 1,219,220
2182 1950 m 1,241,-1
 2178 1933 l 1,242,243
 2178.23188406 1933.28985507 2178.23188406 1933.28985507 2178.23188406 1933.4015963 c 128,-1,244
 2178.23188406 1933.47169811 2178.23188406 1933.47169811 2178.14061944 1933.47169811 c 0,245,246
 2175.86792453 1933.47169811 2175.86792453 1933.47169811 2117 1890 c 1,247,-1
 2051 1847 l 1,248,-1
 2103 1894 l 1,249,250
 2120 1902 2120 1902 2182 1950 c 1,241,-1
2279 1934 m 1,251,-1
 2279 1917 l 1,252,253
 2263 1917 2263 1917 2263 1902 c 1,254,-1
 2241 1902 l 1,255,256
 2241 1911 2241 1911 2279 1934 c 1,251,-1
2047 1853 m 1,257,-1
 2103 1894 l 1,258,-1
 2052 1847 l 1,259,260
 2043 1847 2043 1847 1911 1782 c 1,261,-1
 1803 1701 l 1,262,-1
 1792 1701 l 1,263,264
 1913 1812 1913 1812 2047 1853 c 1,257,-1
2030 1804 m 1,265,266
 2032 1793 2032 1793 2041 1793 c 1,267,268
 2051 1799 2051 1799 2063 1799 c 1,269,270
 2063 1786 2063 1786 2085 1772 c 1,271,272
 2085 1733 2085 1733 2112 1733 c 1,273,274
 2112 1713 2112 1713 2003 1571 c 1,275,276
 1932 1512 1932 1512 1873 1512 c 0,277,278
 1821 1512 1821 1512 1792 1577 c 1,279,-1
 1792 1609 l 2,280,281
 1792 1719 1792 1719 2030 1804 c 1,265,266
1803 1701 m 1024,282,-1
765 1571 m 1,283,-1
 765 1566 l 1,284,-1
 776 1561 l 1,285,-1
 825 1561 l 1,286,-1
 797 1571 l 1,287,-1
 782 1571 l 1,288,-1
 770 1566 l 1,289,290
 770 1571 770 1571 765 1571 c 1,283,-1
1712 1544 m 1,291,-1
 1712 1539 l 1,292,-1
 1717 1529 l 1,293,-1
 1706 1529 l 1,294,295
 1688 1539 1688 1539 1679 1539 c 1,296,297
 1735 1485 1735 1485 1754 1485 c 1,298,299
 1754 1463 1754 1463 1652 1366 c 1,300,301
 1637 1366 1637 1366 1608 1388 c 0,302,303
 1596 1396 1596 1396 1555 1410 c 1,304,305
 1539 1410 1539 1410 1506 1360 c 1,306,307
 1506 1366 1506 1366 1501 1366 c 0,308,309
 1468 1327 1468 1327 1468 1312 c 1,310,-1
 1457 1318 l 1,311,-1
 1451 1318 l 1,312,313
 1409 1294 1409 1294 1409 1285 c 2,314,-1
 1409 1280 l 1,315,316
 1403 1280 1403 1280 1403 1285 c 1,317,318
 1397 1285 1397 1285 1360 1241 c 1,319,320
 1322 1231 1322 1231 1322 1220 c 1,321,-1
 1327 1209 l 1,322,323
 1319 1209 1319 1209 1274 1161 c 1,324,-1
 1262 1166 l 1,325,326
 1203 1104 1203 1104 1203 1091 c 2,327,-1
 1203 1079 l 1,328,-1
 1192 1085 l 2,329,330
 1187 1085 1187 1085 1187 1079 c 1,331,-1
 1176 1085 l 1,332,-1
 1170 1085 l 1,333,-1
 1170 1058 l 1,334,335
 1128 1029 1128 1029 1128 1015 c 1,336,337
 1116 1015 1116 1015 1116 1009 c 2,338,-1
 1122 999 l 1,339,340
 1115 972 1115 972 1106 972 c 2,341,-1
 1078 972 l 1,342,-1
 1078 955 l 2,343,344
 1078 946 1078 946 1116 939 c 1,345,-1
 1116 933 l 1,346,-1
 1111 923 l 1,347,-1
 1090 933 l 1,348,-1
 1090 928 l 2,349,350
 1091 917 1091 917 1100 917 c 2,351,-1
 1116 917 l 1,352,353
 1130 933 1130 933 1138 933 c 1,354,-1
 1133 945 l 1,355,-1
 1133 950 l 1,356,-1
 1149 950 l 1,357,-1
 1149 993 l 1,358,-1
 1160 993 l 1,359,360
 1160 977 1160 977 1187 977 c 1,361,362
 1192 1009 1192 1009 1198 1009 c 0,363,364
 1215 999 1215 999 1230 999 c 1,365,366
 1241 1004 1241 1004 1247 1004 c 1,367,368
 1247 992 1247 992 1274 987 c 1,369,370
 1317 1025 1317 1025 1322 1025 c 2,371,-1
 1327 1025 l 1,372,-1
 1339 1020 l 1,373,374
 1339 1054 1339 1054 1403 1091 c 1,375,376
 1414 1091 1414 1091 1414 1129 c 1,377,-1
 1419 1129 l 1,378,-1
 1419 1112 l 1,379,380
 1437 1123 1437 1123 1451 1123 c 1,381,-1
 1446 1134 l 1,382,383
 1450 1166 1450 1166 1463 1166 c 1,384,385
 1472 1161 1472 1161 1484 1161 c 1,386,387
 1484 1182 1484 1182 1543 1209 c 1,388,-1
 1543 1220 l 1,389,390
 1538 1231 1538 1231 1538 1236 c 1,391,-1
 1543 1236 l 1,392,-1
 1555 1231 l 1,393,394
 1592 1257 1592 1257 1592 1280 c 1,395,-1
 1603 1274 l 1,396,397
 1620 1274 1620 1274 1620 1296 c 1,398,-1
 1625 1296 l 1,399,-1
 1635 1290 l 1,400,401
 1673 1327 1673 1327 1673 1340 c 1,402,403
 1733 1371 1733 1371 1744 1415 c 1,404,405
 1749 1415 1749 1415 1749 1431 c 1,406,-1
 1765 1431 l 1,407,-1
 1765 1420 l 1,408,409
 1773 1420 1773 1420 1803 1464 c 1,410,411
 1744 1532 1744 1532 1744 1544 c 1,412,-1
 1712 1544 l 1,291,-1
1364 1425 m 2,413,414
 1290 1418 1290 1418 1279 1415 c 0,415,416
 1139 1398 1139 1398 867 1263 c 1,417,-1
 690 1150 l 1,418,419
 690 982 690 982 808 836 c 1,420,-1
 819 831 l 1,421,-1
 814 842 l 1,422,-1
 814 847 l 1,423,424
 845 890 845 890 852 890 c 0,425,426
 868 890 868 890 1003 1020 c 1,427,428
 1003 1051 1003 1051 1051 1058 c 1,429,430
 1285 1264 1285 1264 1339 1318 c 1,431,432
 1413 1369 1413 1369 1463 1431 c 1,433,-1
 1364 1425 l 2,413,414
895 1420 m 1,434,-1
 690 1420 l 1,435,-1
 727 1410 l 1,436,-1
 727 1393 l 1,437,-1
 695 1285 l 1,438,-1
 700 1285 l 1,439,440
 847 1402 847 1402 906 1410 c 1,441,-1
 906 1417 l 1,442,-1
 895 1420 l 1,434,-1
1073 728 m 1,443,444
 1073 717 1073 717 1090 717 c 0,445,446
 1257 717 1257 717 1403 798 c 1,447,448
 1520 845 1520 845 1620 939 c 1,449,450
 1760 1060 1760 1060 1760 1193 c 0,451,452
 1760 1226 1760 1226 1732 1290 c 1,453,-1
 1727 1290 l 1,454,-1
 1451 1047 l 1,455,456
 1372 991 1372 991 1295 912 c 1,457,458
 1221 861 1221 861 1203 815 c 1,459,460
 1165 815 1165 815 1078 728 c 1,461,-1
 1073 728 l 1,443,444
441 669 m 2,462,-1
 441 620 l 2,463,464
 441 572 441 572 452 528 c 1,465,-1
 457 528 l 1,466,467
 457 544 457 544 581 642 c 1,468,469
 667 728 667 728 716 761 c 1,470,471
 625 932 625 932 625 1085 c 1,472,473
 549 1013 549 1013 474 836 c 1,474,475
 441 723 441 723 441 669 c 2,462,-1
1247 987 m 1,476,-1
 1241 966 l 1,477,478
 1252 972 1252 972 1257 972 c 1,479,-1
 1257 977 l 2,480,481
 1257 987 1257 987 1247 987 c 1,476,-1
1198 955 m 1,482,-1
 1203 945 l 1,483,-1
 1198 933 l 1,484,-1
 1198 928 l 1,485,-1
 1203 928 l 1,486,487
 1203 939 1203 939 1220 939 c 1,488,-1
 1220 950 l 1,489,490
 1207 950 1207 950 1198 955 c 1,482,-1
1138 928 m 1,491,-1
 1138 907 l 1,492,-1
 1149 907 l 1,493,-1
 1149 912 l 1,494,495
 1143 922 1143 922 1143 928 c 1,496,-1
 1138 928 l 1,491,-1
976 907 m 1,497,-1
 976 901 l 2,498,499
 978 890 978 890 987 890 c 1,500,-1
 987 907 l 1,501,-1
 976 907 l 1,497,-1
949 880 m 1,502,-1
 949 874 l 1,503,-1
 954 863 l 1,504,505
 927 863 927 863 927 853 c 1,506,507
 933 842 933 842 933 836 c 1,508,-1
 922 836 l 2,509,510
 911 836 911 836 911 853 c 1,511,-1
 900 853 l 1,512,513
 900 831 900 831 889 831 c 2,514,-1
 879 831 l 1,515,-1
 879 826 l 1,516,-1
 889 826 l 1,517,518
 884 816 884 816 884 798 c 1,519,-1
 879 798 l 1,520,-1
 867 804 l 1,521,-1
 867 798 l 2,522,523
 868 791 868 791 895 776 c 0,524,525
 900 776 900 776 900 783 c 1,526,527
 917 771 917 771 938 771 c 1,528,-1
 938 756 l 1,529,530
 929 756 929 756 814 642 c 1,531,532
 804 647 804 647 792 647 c 1,533,-1
 797 658 l 1,534,535
 743 710 743 710 743 723 c 1,536,-1
 733 723 l 1,537,538
 733 691 733 691 678 647 c 1,539,-1
 684 636 l 2,540,541
 684 628 684 628 663 615 c 1,542,-1
 663 631 l 1,543,544
 651 631 651 631 651 615 c 1,545,-1
 646 615 l 1,546,-1
 636 620 l 1,547,548
 636 604 636 604 630 604 c 0,549,550
 619 609 619 609 614 609 c 1,551,-1
 619 599 l 1,552,553
 592 561 592 561 571 560 c 1,554,-1
 571 539 l 1,555,-1
 554 539 l 1,556,557
 554 523 554 523 533 523 c 1,558,-1
 533 517 l 1,559,-1
 544 517 l 1,560,561
 516 488 516 488 516 474 c 1,562,-1
 511 474 l 1,563,-1
 511 485 l 1,564,-1
 506 485 l 1,565,566
 506 475 506 475 489 468 c 1,567,568
 495 458 495 458 495 453 c 1,569,-1
 489 453 l 1,570,-1
 479 458 l 1,571,-1
 479 447 l 2,572,573
 479 427 479 427 506 398 c 1,574,-1
 506 371 l 1,575,576
 487 371 487 371 467 334 c 1,577,578
 451 334 451 334 435 306 c 1,579,580
 414 306 414 306 403 404 c 1,581,-1
 392 404 l 1,582,-1
 387 376 l 1,583,584
 397 375 397 375 397 366 c 2,585,-1
 397 361 l 1,586,587
 375 361 375 361 375 388 c 1,588,-1
 370 388 l 1,589,590
 370 366 370 366 360 366 c 1,591,592
 350 328 350 328 322 328 c 1,593,594
 295 289 295 289 295 269 c 1,595,-1
 290 269 l 1,596,-1
 290 284 l 1,597,-1
 278 284 l 1,598,599
 268 247 268 247 257 225 c 1,600,-1
 246 231 l 1,601,602
 233 220 233 220 225 220 c 1,603,604
 225 214 225 214 230 214 c 1,605,-1
 225 204 l 1,606,-1
 225 199 l 1,607,-1
 251 166 l 1,608,-1
 246 155 l 1,609,-1
 246 150 l 1,610,-1
 251 150 l 1,611,-1
 251 160 l 1,612,-1
 295 134 l 1,613,614
 343 150 343 150 343 155 c 2,615,-1
 338 166 l 1,616,-1
 343 177 l 1,617,618
 338 187 338 187 338 193 c 1,619,620
 349 192 349 192 349 182 c 1,621,622
 382 193 382 193 382 225 c 1,623,-1
 408 225 l 1,624,625
 414 236 414 236 414 242 c 1,626,-1
 408 242 l 1,627,628
 425 262 425 262 425 279 c 1,629,-1
 441 279 l 1,630,631
 441 274 441 274 446 263 c 1,632,633
 462 263 462 263 462 291 c 1,634,-1
 489 291 l 2,635,636
 498 291 498 291 511 323 c 1,637,638
 539 323 539 323 559 366 c 1,639,640
 586 366 586 366 586 398 c 1,641,642
 598 398 598 398 603 420 c 1,643,-1
 630 436 l 1,644,645
 630 450 630 450 657 474 c 1,646,647
 668 473 668 473 668 463 c 1,648,649
 695 468 695 468 695 474 c 0,650,651
 690 485 690 485 690 490 c 1,652,653
 695 490 695 490 695 495 c 1,654,-1
 706 490 l 2,655,656
 714 490 714 490 722 512 c 1,657,-1
 733 507 l 1,658,-1
 738 507 l 1,659,660
 738 528 738 528 770 528 c 2,661,-1
 782 528 l 1,662,-1
 782 533 l 1,663,-1
 770 533 l 1,664,-1
 770 550 l 1,665,666
 783 550 783 550 803 572 c 1,667,668
 857 616 857 616 857 625 c 1,669,670
 889 639 889 639 889 669 c 1,671,-1
 917 669 l 1,672,-1
 954 691 l 1,673,674
 962 717 962 717 981 717 c 0,675,676
 987 717 987 717 998 739 c 1,677,678
 997 751 997 751 965 776 c 1,679,680
 965 796 965 796 944 826 c 1,681,-1
 944 836 l 1,682,683
 974 820 974 820 998 783 c 1,684,685
 1003 783 1003 783 1003 776 c 1,686,687
 998 776 998 776 998 771 c 1,688,689
 1003 771 1003 771 1003 766 c 1,690,691
 1036 771 1036 771 1036 776 c 0,692,693
 1036 795 1036 795 998 853 c 1,694,695
 985 853 985 853 959 880 c 1,696,-1
 949 880 l 1,502,-1
987 874 m 1,697,-1
 987 863 l 1,698,-1
 1003 863 l 1,699,700
 1003 874 1003 874 992 874 c 2,701,-1
 987 874 l 1,697,-1
1041 826 m 1,702,-1
 1041 809 l 2,703,704
 1043 798 1043 798 1051 798 c 2,705,-1
 1057 798 l 2,706,707
 1068 798 1068 798 1068 809 c 1,708,-1
 1046 826 l 1,709,-1
 1041 826 l 1,702,-1
1116 296 m 1,710,711
 1116 291 1116 291 1122 291 c 1,712,-1
 1116 263 l 1,713,-1
 1116 199 l 1,714,715
 1138 209 1138 209 1138 231 c 1,716,717
 1133 231 1133 231 1133 236 c 1,718,-1
 1170 236 l 1,719,720
 1128 201 1128 201 1128 193 c 0,721,722
 1152 128 1152 128 1165 128 c 2,723,-1
 1176 128 l 1,724,-1
 1187 274 l 1,725,-1
 1176 274 l 1,726,727
 1176 286 1176 286 1203 291 c 1,728,-1
 1203 231 l 1,729,-1
 1198 220 l 1,730,-1
 1203 220 l 1,731,732
 1203 232 1203 232 1230 236 c 1,733,734
 1247 215 1247 215 1247 204 c 0,735,736
 1241 136 1241 136 1241 122 c 1,737,738
 1252 121 1252 121 1252 112 c 1,739,-1
 1225 112 l 2,740,741
 1214 112 1214 112 1214 122 c 1,742,743
 1226 122 1226 122 1230 199 c 1,744,-1
 1220 220 l 1,745,746
 1198 214 1198 214 1198 187 c 2,747,-1
 1198 122 l 1,748,-1
 1208 122 l 1,749,-1
 1208 117 l 1,750,-1
 1192 117 l 2,751,752
 1183 117 1183 117 1128 122 c 1,753,754
 1133 134 1133 134 1133 139 c 0,755,756
 1120 177 1120 177 1111 177 c 1,757,-1
 1111 134 l 1,758,-1
 1122 134 l 1,759,-1
 1122 122 l 1,760,761
 1101 128 1101 128 1078 128 c 1,762,763
 1078 133 1078 133 1095 144 c 1,764,-1
 1095 279 l 1,765,-1
 1090 279 l 1,766,767
 1090 289 1090 289 1116 296 c 1,710,711
684 284 m 1,768,-1
 711 284 l 1,769,770
 706 274 706 274 706 269 c 2,771,-1
 716 231 l 1,772,-1
 722 231 l 1,773,-1
 733 258 l 1,774,-1
 722 279 l 1,775,-1
 755 279 l 1,776,-1
 749 258 l 1,777,-1
 755 225 l 1,778,-1
 765 225 l 1,779,-1
 776 263 l 1,780,-1
 770 274 l 1,781,-1
 792 274 l 1,782,-1
 792 269 l 1,783,784
 760 204 760 204 760 193 c 1,785,-1
 749 193 l 1,786,787
 749 201 749 201 738 242 c 1,788,-1
 733 242 l 1,789,790
 733 235 733 235 716 204 c 1,791,792
 706 204 706 204 684 284 c 1,768,-1
1473 279 m 1,793,-1
 1473 274 l 1,794,795
 1468 237 1468 237 1468 214 c 2,796,-1
 1468 182 l 1,797,798
 1471 182 1471 182 1495 209 c 1,799,-1
 1490 220 l 1,800,-1
 1490 225 l 1,801,-1
 1495 225 l 1,802,-1
 1522 229 l 1,803,-1
 1522 214 l 1,804,805
 1507 214 1507 214 1479 182 c 0,806,807
 1479 178 1479 178 1516 112 c 1,808,809
 1533 117 1533 117 1533 122 c 2,810,-1
 1533 263 l 1,811,-1
 1528 263 l 1,812,813
 1528 276 1528 276 1555 279 c 1,814,-1
 1555 214 l 1,815,816
 1572 225 1572 225 1587 225 c 1,817,-1
 1598 209 l 1,818,-1
 1598 117 l 1,819,-1
 1608 117 l 1,820,-1
 1608 112 l 1,821,822
 1578 112 1578 112 1571 107 c 1,823,-1
 1571 112 l 1,824,825
 1582 129 1582 129 1582 144 c 2,826,-1
 1582 199 l 2,827,828
 1582 209 1582 209 1571 209 c 0,829,830
 1549 209 1549 209 1549 134 c 2,831,-1
 1549 117 l 1,832,-1
 1560 117 l 1,833,-1
 1560 107 l 1,834,-1
 1484 107 l 1,835,-1
 1490 117 l 1,836,837
 1473 144 1473 144 1473 155 c 1,838,-1
 1468 155 l 1,839,840
 1468 128 1468 128 1463 128 c 1,841,842
 1463 112 1463 112 1479 112 c 1,843,-1
 1479 107 l 1,844,-1
 1436 107 l 1,845,846
 1451 124 1451 124 1451 199 c 2,847,-1
 1451 258 l 1,848,-1
 1441 274 l 1,849,850
 1470 279 1470 279 1473 279 c 1,793,-1
1760 279 m 1,851,852
 1762 269 1762 269 1771 269 c 1,853,854
 1765 258 1765 258 1765 252 c 1,855,-1
 1760 252 l 2,856,857
 1749 252 1749 252 1749 263 c 2,858,-1
 1749 269 l 2,859,860
 1751 279 1751 279 1760 279 c 1,851,852
1841 274 m 1,861,-1
 1857 274 l 1,862,-1
 1857 263 l 2,863,864
 1857 252 1857 252 1846 252 c 1,865,-1
 1841 263 l 1,866,-1
 1841 274 l 1,861,-1
803 269 m 1,867,-1
 830 269 l 1,868,-1
 830 263 l 1,869,-1
 825 252 l 1,870,871
 835 227 835 227 835 204 c 1,872,873
 852 209 852 209 852 236 c 2,874,-1
 852 247 l 1,875,-1
 841 263 l 1,876,-1
 879 263 l 1,877,878
 879 260 879 260 867 247 c 1,879,880
 879 206 879 206 879 199 c 1,881,-1
 884 199 l 1,882,883
 900 241 900 241 900 252 c 1,884,885
 895 252 895 252 895 258 c 1,886,-1
 917 258 l 1,887,-1
 917 252 l 1,888,889
 880 166 880 166 874 166 c 1,890,891
 862 191 862 191 862 214 c 1,892,-1
 852 214 l 1,893,894
 852 211 852 211 835 172 c 1,895,-1
 830 172 l 1,896,897
 819 219 819 219 803 269 c 1,867,-1
927 258 m 1,898,899
 936 252 936 252 954 252 c 1,900,-1
 949 242 l 1,901,902
 949 228 949 228 959 182 c 1,903,-1
 965 182 l 1,904,905
 976 218 976 218 976 231 c 1,906,-1
 965 247 l 1,907,-1
 965 252 l 1,908,-1
 1003 247 l 1,909,-1
 1003 242 l 1,910,911
 992 242 992 242 992 236 c 0,912,913
 995 182 995 182 1008 182 c 1,914,915
 1008 195 1008 195 1024 231 c 1,916,917
 1019 241 1019 241 1019 247 c 1,918,-1
 1030 247 l 1,919,-1
 1041 242 l 1,920,921
 1004 147 1004 147 992 139 c 1,922,923
 992 153 992 153 981 199 c 1,924,-1
 976 199 l 1,925,-1
 959 150 l 1,926,-1
 949 150 l 1,927,-1
 927 258 l 1,898,899
1365 258 m 1,928,-1
 1365 236 l 1,929,-1
 1360 225 l 1,930,931
 1381 225 1381 225 1381 214 c 1,932,-1
 1360 214 l 1,933,-1
 1360 122 l 1,934,-1
 1365 122 l 1,935,-1
 1376 128 l 1,936,-1
 1376 122 l 2,937,938
 1376 115 1376 115 1360 107 c 1,939,-1
 1354 107 l 2,940,941
 1349 107 1349 107 1344 128 c 1,942,-1
 1344 155 l 1,943,-1
 1344 199 l 1,944,-1
 1344 213 l 1,945,-1
 1345 225 l 1,946,-1
 1359 250 l 1,947,-1
 1365 258 l 1,928,-1
1717 252 m 1,948,949
 1717 225 1717 225 1727 225 c 2,950,-1
 1732 225 l 1,951,-1
 1732 214 l 1,952,953
 1712 214 1712 214 1712 177 c 2,954,-1
 1712 134 l 1,955,-1
 1727 134 l 1,956,957
 1727 126 1727 126 1712 117 c 1,958,-1
 1706 117 l 2,959,960
 1695 117 1695 117 1695 128 c 2,961,-1
 1695 199 l 1,962,-1
 1690 225 l 1,963,964
 1693 225 1693 225 1717 252 c 1,948,949
1901 236 m 1,965,-1
 1901 225 l 1,966,-1
 1916 236 l 1,967,968
 1928 234 1928 234 1928 225 c 2,969,-1
 1923 214 l 1,970,-1
 1911 220 l 1,971,972
 1899 220 1899 220 1895 155 c 1,973,-1
 1906 155 l 1,974,-1
 1906 144 l 1,975,-1
 1879 144 l 1,976,-1
 1868 139 l 1,977,-1
 1868 150 l 1,978,-1
 1879 150 l 1,979,-1
 1884 214 l 1,980,981
 1873 214 1873 214 1873 225 c 1,982,983
 1883 225 1883 225 1901 236 c 1,965,-1
1300 231 m 0,984,985
 1309 231 1309 231 1322 209 c 1,986,-1
 1322 204 l 2,987,988
 1322 177 1322 177 1317 122 c 1,989,-1
 1333 122 l 1,990,991
 1333 115 1333 115 1317 107 c 1,992,-1
 1311 107 l 2,993,994
 1300 107 1300 107 1300 122 c 1,995,-1
 1279 107 l 1,996,997
 1257 112 1257 112 1257 139 c 0,998,999
 1257 159 1257 159 1306 193 c 1,1000,-1
 1306 209 l 2,1001,1002
 1306 220 1306 220 1295 220 c 2,1003,-1
 1284 220 l 1,1004,-1
 1279 187 l 1,1005,1006
 1268 187 1268 187 1268 199 c 2,1007,-1
 1268 214 l 1,1008,1009
 1274 231 1274 231 1300 231 c 0,984,985
1857 231 m 1,1010,-1
 1857 225 l 1,1011,-1
 1852 150 l 1,1012,1013
 1863 148 1863 148 1863 139 c 1,1014,-1
 1824 134 l 1,1015,1016
 1836 144 1836 144 1841 209 c 1,1017,1018
 1831 214 1831 214 1824 214 c 1,1019,-1
 1824 220 l 1,1020,-1
 1857 231 l 1,1010,-1
1641 225 m 1,1021,-1
 1657 225 l 2,1022,1023
 1665 225 1665 225 1673 209 c 1,1024,-1
 1673 128 l 1,1025,-1
 1684 134 l 1,1026,-1
 1684 128 l 2,1027,1028
 1684 121 1684 121 1668 112 c 1,1029,1030
 1657 112 1657 112 1657 128 c 1,1031,-1
 1635 112 l 1,1032,-1
 1625 112 l 2,1033,1034
 1614 112 1614 112 1614 122 c 2,1035,-1
 1614 134 l 1,1036,1037
 1622 182 1622 182 1657 182 c 1,1038,-1
 1657 214 l 1,1039,-1
 1635 214 l 1,1040,1041
 1635 187 1635 187 1625 187 c 2,1042,-1
 1620 187 l 1,1043,-1
 1620 204 l 2,1044,1045
 1620 212 1620 212 1641 225 c 1,1021,-1
1765 225 m 1,1046,-1
 1765 134 l 1,1047,-1
 1776 134 l 1,1048,-1
 1776 128 l 1,1049,-1
 1739 122 l 1,1050,-1
 1732 122 l 1,1051,-1
 1732 128 l 1,1052,1053
 1749 128 1749 128 1749 166 c 2,1054,-1
 1749 209 l 1,1055,-1
 1739 209 l 1,1056,1057
 1739 221 1739 221 1765 225 c 1,1046,-1
311 182 m 1,1058,-1
 316 182 l 2,1059,1060
 327 180 327 180 327 172 c 0,1061,1062
 327 159 327 159 300 155 c 1,1063,-1
 300 160 l 1,1064,-1
 305 172 l 1,1065,1066
 300 172 300 172 300 177 c 1,1067,-1
 311 182 l 1,1058,-1
1279 155 m 2,1068,-1
 1279 128 l 1,1069,-1
 1290 128 l 2,1070,1071
 1300 128 1300 128 1306 177 c 1,1072,1073
 1281 166 1281 166 1279 155 c 2,1068,-1
1630 150 m 1,1074,-1
 1630 139 l 2,1075,1076
 1632 128 1632 128 1641 128 c 0,1077,1078
 1649 128 1649 128 1657 144 c 1,1079,-1
 1657 177 l 1,1080,1081
 1650 177 1650 177 1630 150 c 1,1074,-1
1387 177 m 1,1082,-1
 1431 177 l 1,1083,-1
 1431 155 l 1,1084,-1
 1387 155 l 1,1085,-1
 1387 177 l 1,1082,-1
1063 160 m 1,1086,-1
 1068 150 l 1,1087,-1
 1068 139 l 2,1088,1089
 1068 128 1068 128 1057 128 c 1,1090,1091
 1046 141 1046 141 1046 144 c 0,1092,1093
 1046 152 1046 152 1063 160 c 1,1086,-1
1803 155 m 1,1094,-1
 1809 144 l 1,1095,-1
 1809 139 l 2,1096,1097
 1809 128 1809 128 1798 128 c 2,1098,-1
 1792 128 l 1,1099,-1
 1792 144 l 2,1100,1101
 1794 155 1794 155 1803 155 c 1,1094,-1
100 95 m 1,1102,-1
 94 85 l 1,1103,1104
 116 85 116 85 138 47 c 1,1105,-1
 149 47 l 1,1106,-1
 149 58 l 1,1107,1108
 139 58 139 58 106 95 c 1,1109,-1
 100 95 l 1,1102,-1
154 42 m 1,1110,-1
 154 31 l 1,1111,1112
 165 31 165 31 165 20 c 1,1113,-1
 181 20 l 1,1114,-1
 181 25 l 1,1115,1116
 165 25 165 25 165 42 c 1,1117,-1
 154 42 l 1,1110,-1
1536 571 m 2,1118,1119
 1539 569 1539 569 1551 539 c 0,1120,1121
 1561 520 1561 520 1561 516 c 0,1122,1123
 1559 514 1559 514 1558 514 c 0,1124,1125
 1556 514 1556 514 1549 516 c 1,1126,-1
 1549 516 l 1,1127,1128
 1550 508 1550 508 1550 503 c 0,1129,1130
 1550 479 1550 479 1540 450 c 1,1131,1132
 1586 500 1586 500 1614 500 c 2,1133,-1
 1619 500 l 2,1134,1135
 1639 500 1639 500 1646 475 c 0,1136,1137
 1647 472 1647 472 1647 467 c 1,1138,-1
 1647 467 l 1,1139,1140
 1647 455 1647 455 1640 437 c 1,1141,-1
 1678 437 l 2,1142,1143
 1711 437 1711 437 1731 443 c 1,1144,-1
 1731 444 l 1,1145,1146
 1695 459 1695 459 1688 459 c 2,1147,-1
 1687 459 l 2,1148,1149
 1680 459 1680 459 1670 451 c 0,1150,1151
 1667 448 1667 448 1664 448 c 0,1152,1153
 1659 448 1659 448 1658 455 c 2,1154,-1
 1658 458 l 2,1155,1156
 1658 469 1658 469 1676 491 c 0,1157,1158
 1686 501 1686 501 1689 501 c 1,1159,1160
 1688 507 1688 507 1688 509 c 0,1161,1162
 1688 525 1688 525 1707 525 c 2,1163,-1
 1709 525 l 2,1164,1165
 1716 525 1716 525 1721 515 c 0,1166,1167
 1722 512 1722 512 1722 510 c 0,1168,1169
 1722 505 1722 505 1720 500 c 1,1170,1171
 1722 500 1722 500 1763 476 c 0,1172,1173
 1774 471 1774 471 1800 465 c 1,1174,-1
 1802 463 l 1,1175,-1
 1802 463 l 1,1176,1177
 1802 460 1802 460 1786 424 c 1,1178,-1
 1785 424 l 2,1179,1180
 1757 424 1757 424 1746 413 c 0,1181,1182
 1713 386 1713 386 1693 383 c 0,1183,1184
 1681 380 1681 380 1670 380 c 2,1185,-1
 1637 380 l 2,1186,1187
 1636 380 1636 380 1636 381 c 2,1188,-1
 1636 431 l 1,1189,1190
 1619 400 1619 400 1581 386 c 0,1191,1192
 1564 380 1564 380 1547 380 c 2,1193,-1
 1542 380 l 2,1194,1195
 1506 380 1506 380 1470 422 c 0,1196,1197
 1467 427 1467 427 1467 429 c 0,1198,1199
 1468 435 1468 435 1476 435 c 2,1200,-1
 1478 435 l 2,1201,1202
 1511 435 1511 435 1516 435 c 1,1203,1204
 1516 489 1516 489 1497 540 c 1,1205,1206
 1529 566 1529 566 1534 571 c 1,1207,-1
 1536 571 l 2,1118,1119
1201 566 m 2,1208,-1
 1202 566 l 1,1209,1210
 1207 560 1207 560 1218 533 c 0,1211,1212
 1227 514 1227 514 1227 511 c 2,1213,-1
 1227 510 l 2,1214,1215
 1227 509 1227 509 1224 509 c 0,1216,1217
 1222 509 1222 509 1215 511 c 1,1218,1219
 1216 505 1216 505 1216 501 c 2,1220,-1
 1216 494 l 2,1221,1222
 1216 472 1216 472 1206 445 c 1,1223,1224
 1252 494 1252 494 1281 494 c 2,1225,-1
 1285 494 l 2,1226,1227
 1304 494 1304 494 1312 471 c 0,1228,1229
 1313 464 1313 464 1313 461 c 0,1230,1231
 1313 422 1313 422 1272 392 c 0,1232,1233
 1255 381 1255 381 1228 376 c 0,1234,1235
 1219 375 1219 375 1213 375 c 1,1236,-1
 1213 376 l 1,1237,-1
 1213 378 l 1,1238,-1
 1209 378 l 1,1239,-1
 1209 376 l 2,1240,1241
 1209 374 1209 374 1207 374 c 0,1242,1243
 1155 374 1155 374 1060 375 c 0,1244,1245
 1059 375 1059 375 1057 376 c 1,1246,1247
 1057 375 1057 375 1047 365 c 1,1248,-1
 1046 362 l 1,1249,-1
 1046 361 l 2,1250,1251
 1049 356 1049 356 1107 353 c 2,1252,-1
 1319 353 l 2,1253,1254
 1351 353 1351 353 1421 352 c 2,1255,1256
 1421 352 1421 352 1423 352 c 1,1257,1258
 1423 352 1423 352 1423 352 c 1,1259,1260
 1425 352 1425 352 1436 352 c 0,1261,1262
 1600 350 1600 350 1649 350 c 2,1263,-1
 1653 350 l 2,1264,1265
 1654 350 1654 350 1656 350 c 0,1266,1267
 1664 350 1664 350 1682 350 c 1,1268,1269
 1770 323 1770 323 1799 311 c 0,1270,1271
 1809 306 1809 306 1810 305 c 1,1272,-1
 1810 305 l 1,1273,1274
 1581 304 1581 304 1431 304 c 2,1275,-1
 1053 304 l 2,1276,1277
 1040 304 1040 304 1024 317 c 0,1278,1279
 1018 326 1018 326 1018 337 c 0,1280,1281
 1018 360 1018 360 1028 378 c 0,1282,1283
 1032 378 1032 378 1032 383 c 0,1284,1285
 1040 396 1040 396 1049 407 c 0,1286,1287
 1068 425 1068 425 1082 430 c 0,1288,1289
 1083 430 1083 430 1086 433 c 0,1290,1291
 1142 432 1142 432 1182 432 c 1,1292,-1
 1182 436 l 2,1293,1294
 1182 489 1182 489 1163 533 c 1,1295,1296
 1196 563 1196 563 1201 566 c 2,1208,-1
1378 519 m 2,1297,-1
 1380 519 l 2,1298,1299
 1386 519 1386 519 1392 509 c 0,1300,1301
 1393 506 1393 506 1393 505 c 0,1302,1303
 1393 499 1393 499 1392 494 c 1,1304,1305
 1392 494 1392 494 1434 470 c 0,1306,1307
 1445 466 1445 466 1471 460 c 1,1308,-1
 1473 458 l 1,1309,-1
 1473 457 l 2,1310,1311
 1473 455 1473 455 1457 418 c 1,1312,-1
 1456 418 l 2,1313,1314
 1428 418 1428 418 1416 408 c 0,1315,1316
 1385 381 1385 381 1364 376 c 0,1317,1318
 1352 374 1352 374 1341 374 c 2,1319,-1
 1308 374 l 2,1320,1321
 1307 374 1307 374 1307 375 c 2,1322,-1
 1307 432 l 1,1323,-1
 1349 432 l 2,1324,1325
 1382 432 1382 432 1402 438 c 1,1326,-1
 1402 439 l 1,1327,1328
 1366 454 1366 454 1359 454 c 1,1329,-1
 1359 454 l 1,1330,1331
 1352 454 1352 454 1341 446 c 0,1332,1333
 1338 443 1338 443 1334 443 c 256,1334,1335
 1330 443 1330 443 1329 450 c 2,1336,-1
 1329 453 l 2,1337,1338
 1329 464 1329 464 1347 486 c 0,1339,1340
 1357 494 1357 494 1360 495 c 0,1341,1342
 1359 501 1359 501 1359 504 c 0,1343,1344
 1359 519 1359 519 1378 519 c 2,1297,-1
1690 501 m 1,1345,1346
 1693 490 1693 490 1706 490 c 0,1347,1348
 1711 490 1711 490 1719 497 c 0,1349,1350
 1719 499 1719 499 1719 500 c 256,1351,1352
 1719 501 1719 501 1717 501 c 1,1353,1354
 1717 498 1717 498 1708 494 c 1,1355,-1
 1706 494 l 2,1356,1357
 1696 495 1696 495 1696 498 c 0,1358,1359
 1693 500 1693 500 1693 502 c 1,1360,1361
 1690 501 1690 501 1690 501 c 1,1345,1346
1361 495 m 0,1362,1363
 1364 485 1364 485 1377 485 c 0,1364,1365
 1382 485 1382 485 1390 491 c 0,1366,1367
 1391 494 1391 494 1391 494 c 2,1368,1369
 1390 495 1390 495 1388 495 c 1,1370,1371
 1388 492 1388 492 1379 488 c 1,1372,-1
 1377 488 l 2,1373,1374
 1366 490 1366 490 1366 493 c 0,1375,1376
 1365 494 1365 494 1365 497 c 1,1377,1378
 1361 496 1361 496 1361 495 c 0,1362,1363
1549 435 m 1,1379,-1
 1552 435 l 2,1380,1381
 1557 435 1557 435 1559 435 c 0,1382,1383
 1609 437 1609 437 1609 448 c 1,1384,-1
 1609 448 l 1,1385,1386
 1609 461 1609 461 1592 461 c 256,1387,1388
 1575 461 1575 461 1549 435 c 1,1379,-1
1215 430 m 1,1389,-1
 1217 430 l 2,1390,1391
 1222 430 1222 430 1224 430 c 0,1392,1393
 1274 432 1274 432 1274 442 c 0,1394,1395
 1274 456 1274 456 1257 456 c 0,1396,1397
 1241 456 1241 456 1215 430 c 1,1389,-1
EndSplineSet
Validated: 524325
EndChar

StartChar: exclam
Encoding: 33 33 4
Width: 900
GlyphClass: 1
Flags: W
LayerCount: 2
Fore
SplineSet
408 575 m 0,0,1
 413 518 413 518 389 473 c 0,2,3
 377 451 377 451 368 451 c 0,4,5
 345 451 345 451 325 595 c 0,6,7
 303 773 303 773 282 951 c 0,8,9
 269 1059 269 1059 244 1221 c 0,10,11
 226 1339 226 1339 226 1359 c 0,12,13
 226 1442 226 1442 256 1493 c 0,14,15
 267 1511 267 1511 273 1511 c 0,16,17
 287 1511 287 1511 302 1411 c 0,18,19
 305 1393 305 1393 353 1043 c 0,20,21
 394 742 394 742 408 575 c 0,0,1
494 151 m 0,22,23
 494 121 494 121 482 73 c 0,24,25
 467 12 467 12 446 7 c 0,26,27
 431 7 431 7 373 27 c 0,28,29
 300 51 300 51 282 79 c 0,30,31
 279 84 279 84 279 96 c 0,32,33
 279 132 279 132 297 190.5 c 128,-1,34
 315 249 315 249 330 249 c 256,35,36
 345 249 345 249 417 211 c 0,37,38
 494 169 494 169 494 151 c 0,22,23
EndSplineSet
Validated: 33
EndChar

StartChar: quotedbl
Encoding: 34 34 5
Width: 569
GlyphClass: 1
Flags: W
LayerCount: 2
Fore
SplineSet
454 1274 m 1,0,1
 454 1239 454 1239 432 1067 c 0,2,3
 423 997 423 997 423 900 c 1,4,-1
 381 900 l 1,5,6
 381 997 381 997 374 1065 c 2,7,-1
 353 1274 l 1,8,9
 353 1340 353 1340 402 1342 c 0,10,11
 421 1343 421 1343 437 1323 c 0,12,13
 449 1308 449 1308 454 1274 c 1,0,1
216 1274 m 0,14,15
 216 1198 216 1198 200 1067 c 0,16,17
 192 1000 192 1000 188 900 c 1,18,-1
 148 900 l 1,19,20
 148 983 148 983 139 1065 c 0,21,22
 120 1239 120 1239 120 1274 c 0,23,24
 120 1340 120 1340 167 1342 c 0,25,26
 204 1344 204 1344 214 1302 c 0,27,28
 216 1291 216 1291 216 1274 c 0,14,15
EndSplineSet
Validated: 1
EndChar

StartChar: parenleft
Encoding: 40 40 6
Width: 656
GlyphClass: 1
Flags: W
LayerCount: 2
Fore
SplineSet
603 -377 m 1,0,1
 562 -384 562 -384 533 -384 c 0,2,3
 407 -384 407 -384 336 -275 c 0,4,5
 275 -182 275 -182 238 5 c 0,6,7
 189 251 189 251 189 543 c 0,8,9
 189 944 189 944 306 1086 c 0,10,11
 373 1167 373 1167 489 1167 c 0,12,13
 519 1167 519 1167 559 1157 c 1,14,-1
 579 1111 l 1,15,16
 559 1118 559 1118 536 1118 c 0,17,18
 284 1118 284 1118 284 543 c 0,19,20
 284 132 284 132 363 -127 c 0,21,22
 426 -333 426 -333 558 -333 c 2,23,-1
 573 -333 l 1,24,-1
 603 -377 l 1,0,1
EndSplineSet
Validated: 1
EndChar

StartChar: parenright
Encoding: 41 41 7
Width: 525
GlyphClass: 1
Flags: W
LayerCount: 2
Fore
SplineSet
436 238 m 0,0,1
 436 -171 436 -171 320 -307 c 0,2,3
 251 -388 251 -388 136 -388 c 0,4,5
 102 -388 102 -388 69 -377 c 1,6,-1
 46 -332 l 1,7,8
 62 -338 62 -338 88 -338 c 0,9,10
 341 -338 341 -338 341 238 c 0,11,12
 341 651 341 651 261 906 c 0,13,14
 230 1004 230 1004 171 1067 c 0,15,16
 127 1114 127 1114 70 1114 c 0,17,18
 59 1114 59 1114 53 1112 c 1,19,-1
 21 1157 l 1,20,21
 67 1163 67 1163 91 1163 c 0,22,23
 218 1163 218 1163 289 1056 c 0,24,25
 351 963 351 963 388 774 c 0,26,27
 436 528 436 528 436 238 c 0,0,1
EndSplineSet
Validated: 1
EndChar

StartChar: asterisk
Encoding: 42 42 8
Width: 1611
GlyphClass: 1
Flags: W
LayerCount: 2
Fore
SplineSet
877 743 m 0,0,1
 877 833 877 833 788 833 c 0,2,3
 698 833 698 833 698 743 c 0,4,5
 698 662 698 662 788 662 c 0,6,7
 877 662 877 662 877 743 c 0,0,1
1538 751 m 0,8,9
 1538 639 1538 639 1392 639 c 0,10,11
 1382 639 1382 639 1340.5 646 c 128,-1,12
 1299 653 1299 653 1238.5 664.5 c 128,-1,13
 1178 676 1178 676 1106 688.5 c 128,-1,14
 1034 701 1034 701 961 714 c 1,15,16
 957 697 957 697 950.5 680.5 c 128,-1,17
 944 664 944 664 938 647 c 1,18,-1
 1096 537 l 2,19,20
 1121 520 1121 520 1163 493 c 128,-1,21
 1205 466 1205 466 1245.5 432.5 c 128,-1,22
 1286 399 1286 399 1315 360.5 c 128,-1,23
 1344 322 1344 322 1344 284 c 0,24,25
 1344 249 1344 249 1315 215.5 c 128,-1,26
 1286 182 1286 182 1242 182 c 0,27,28
 1192 182 1192 182 1134 236 c 0,29,30
 1125 247 1125 247 1088.5 299 c 128,-1,31
 1052 351 1052 351 996 430 c 2,32,-1
 881 595 l 2,33,34
 879 595 879 595 865.5 584.5 c 128,-1,35
 852 574 852 574 819 564 c 1,36,37
 831 485 831 485 846 412 c 128,-1,38
 861 339 861 339 871 280.5 c 128,-1,39
 881 222 881 222 888.5 184.5 c 128,-1,40
 896 147 896 147 896 138 c 0,41,42
 896 -4 896 -4 779 -4 c 0,43,44
 671 -4 671 -4 671 134 c 0,45,46
 671 170 671 170 681.5 232.5 c 128,-1,47
 692 295 692 295 708 372 c 2,48,-1
 758 564 l 1,49,50
 738 570 738 570 719 576.5 c 128,-1,51
 700 583 700 583 688 593 c 1,52,53
 658 553 658 553 632 514.5 c 128,-1,54
 606 476 606 476 576 434.5 c 128,-1,55
 546 393 546 393 511.5 345 c 128,-1,56
 477 297 477 297 433 236 c 1,57,58
 377 180 377 180 320 180 c 0,59,60
 304 180 304 180 285 188.5 c 128,-1,61
 266 197 266 197 250.5 211.5 c 128,-1,62
 235 226 235 226 224.5 246 c 128,-1,63
 214 266 214 266 214 286 c 0,64,65
 214 311 214 311 225.5 335 c 128,-1,66
 237 359 237 359 265 385.5 c 128,-1,67
 293 412 293 412 341 446 c 128,-1,68
 389 480 389 480 460 528 c 2,69,-1
 637 645 l 1,70,71
 627 660 627 660 618.5 678.5 c 128,-1,72
 610 697 610 697 604 714 c 1,73,74
 535 701 535 701 466.5 688.5 c 128,-1,75
 398 676 398 676 340.5 664.5 c 128,-1,76
 283 653 283 653 240 646 c 128,-1,77
 197 639 197 639 181 639 c 0,78,79
 41 639 41 639 41 751 c 0,80,81
 41 856 41 856 177 856 c 0,82,83
 204 856 204 856 251 849.5 c 128,-1,84
 298 843 298 843 356 831.5 c 128,-1,85
 414 820 414 820 478 806.5 c 128,-1,86
 542 793 542 793 604 781 c 1,87,88
 610 797 610 797 618.5 814 c 128,-1,89
 627 831 627 831 635 839 c 1,90,91
 539 895 539 895 448.5 966 c 128,-1,92
 358 1037 358 1037 270 1100 c 1,93,94
 247 1123 247 1123 231.5 1151 c 128,-1,95
 216 1179 216 1179 216 1202 c 0,96,97
 216 1246 216 1246 251.5 1277 c 128,-1,98
 287 1308 287 1308 323 1308 c 0,99,100
 358 1308 358 1308 385 1289.5 c 128,-1,101
 412 1271 412 1271 440.5 1237.5 c 128,-1,102
 469 1204 469 1204 500 1158 c 128,-1,103
 531 1112 531 1112 571 1058 c 2,104,-1
 685 900 l 1,105,106
 719 912 719 912 758 922 c 1,107,108
 742 989 742 989 726 1054 c 128,-1,109
 710 1119 710 1119 697.5 1177 c 128,-1,110
 685 1235 685 1235 678 1282 c 128,-1,111
 671 1329 671 1329 671 1358 c 0,112,113
 671 1496 671 1496 779 1496 c 0,114,115
 896 1496 896 1496 896 1344 c 1,116,117
 886 1237 886 1237 863 1127.5 c 128,-1,118
 840 1018 840 1018 819 916 c 1,119,120
 827 914 827 914 836 910 c 0,121,122
 848 906 848 906 881 897 c 1,123,-1
 923 960 l 2,124,125
 944 989 944 989 965 1019.5 c 128,-1,126
 986 1050 986 1050 1010 1085.5 c 128,-1,127
 1034 1121 1034 1121 1064 1162.5 c 128,-1,128
 1094 1204 1094 1204 1134 1256 c 1,129,130
 1188 1304 1188 1304 1238 1304 c 0,131,132
 1284 1304 1284 1304 1314 1273 c 128,-1,133
 1344 1242 1344 1242 1344 1198 c 0,134,135
 1344 1146 1344 1146 1288 1089 c 0,136,137
 1286 1085 1286 1085 1252.5 1061 c 128,-1,138
 1219 1037 1219 1037 1169 1001.5 c 128,-1,139
 1119 966 1119 966 1056.5 923.5 c 128,-1,140
 994 881 994 881 934 839 c 0,141,142
 932 839 932 839 940 827 c 1,143,-1
 940 829 l 1,144,145
 944 824 944 824 950.5 811.5 c 128,-1,146
 957 799 957 799 967 781 c 1,147,148
 1027 793 1027 793 1092 806.5 c 128,-1,149
 1157 820 1157 820 1216.5 831.5 c 128,-1,150
 1276 843 1276 843 1325 849.5 c 128,-1,151
 1374 856 1374 856 1401 856 c 0,152,153
 1538 856 1538 856 1538 751 c 0,8,9
EndSplineSet
Validated: 1
EndChar

StartChar: plus
Encoding: 43 43 9
Width: 870
GlyphClass: 1
Flags: W
LayerCount: 2
Fore
SplineSet
842 416 m 0,0,1
 823 416 823 416 797 421 c 0,2,3
 768 427 768 427 739 428 c 0,4,5
 634 432 634 432 483 435 c 1,6,-1
 472 9 l 1,7,8
 460 -8 460 -8 405 -8 c 0,9,10
 333 -8 333 -8 341 20 c 0,11,12
 352 59 352 59 364 98 c 1,13,14
 372 144 372 144 372 263 c 0,15,16
 372 348 372 348 370 432 c 1,17,18
 223 439 223 439 62 454 c 1,19,20
 -6 498 -6 498 -8 555 c 0,21,22
 -8 562 -8 562 -3 562 c 256,23,24
 2 562 2 562 20 553 c 128,-1,25
 38 544 38 544 48 543 c 0,26,27
 85 539 85 539 368 536 c 1,28,29
 368 875 368 875 328 952 c 0,30,31
 324 959 324 959 324 964 c 0,32,33
 324 974 324 974 340 974 c 0,34,35
 372 974 372 974 452 938 c 1,36,37
 474 841 474 841 480 538 c 1,38,-1
 793 524 l 1,39,40
 849 446 849 446 849 424 c 0,41,42
 849 416 849 416 842 416 c 0,0,1
EndSplineSet
Validated: 33
EndChar

StartChar: hyphen
Encoding: 45 45 10
AltUni2: 002010.ffffffff.0 002010.ffffffff.0
Width: 947
GlyphClass: 1
Flags: W
LayerCount: 2
Fore
SplineSet
888 429 m 0,0,1
 893 430 893 430 897 430 c 0,2,3
 905 430 905 430 905 424 c 0,4,5
 905 406 905 406 855 361 c 128,-1,6
 805 316 805 316 782 314 c 0,7,8
 751 310 751 310 639 304 c 1,9,10
 151 304 151 304 42 290 c 0,11,12
 30 288 30 288 30 299 c 0,13,14
 30 323 30 323 89 398 c 1,15,16
 181 401 181 401 390 408 c 0,17,18
 393 408 393 408 676 412 c 0,19,20
 830 414 830 414 888 429 c 0,0,1
EndSplineSet
Validated: 1
EndChar

StartChar: period
Encoding: 46 46 11
Width: 910
GlyphClass: 1
Flags: W
LayerCount: 2
Fore
SplineSet
533 133 m 0,0,1
 533 103 533 103 521 55 c 0,2,3
 506 -6 506 -6 485 -11 c 0,4,5
 470 -11 470 -11 412 9 c 0,6,7
 339 33 339 33 321 61 c 0,8,9
 318 66 318 66 318 78 c 0,10,11
 318 114 318 114 336 172.5 c 128,-1,12
 354 231 354 231 369 231 c 256,13,14
 384 231 384 231 456 193 c 0,15,16
 533 151 533 151 533 133 c 0,0,1
EndSplineSet
Validated: 1
EndChar

StartChar: slash
Encoding: 47 47 12
Width: 696
GlyphClass: 1
Flags: W
LayerCount: 2
Fore
SplineSet
686 1438 m 1,0,1
 567 1164 567 1164 164 -170 c 0,2,3
 123 -306 123 -306 133 -381 c 1,4,5
 90 -397 90 -397 65 -397 c 0,6,7
 30 -397 30 -397 30 -363 c 0,8,9
 30 -327 30 -327 84 -139 c 0,10,11
 315 664 315 664 592 1438 c 1,12,-1
 686 1438 l 1,0,1
EndSplineSet
Validated: 33
EndChar

StartChar: colon
Encoding: 58 58 13
Width: 569
GlyphClass: 1
Flags: W
LayerCount: 2
Fore
SplineSet
393 742 m 0,0,1
 393 712 393 712 381 664 c 0,2,3
 366 603 366 603 345 598 c 0,4,5
 330 598 330 598 272 618 c 0,6,7
 199 642 199 642 181 670 c 0,8,9
 178 675 178 675 178 687 c 0,10,11
 178 723 178 723 196 781.5 c 128,-1,12
 214 840 214 840 229 840 c 256,13,14
 244 840 244 840 316 802 c 0,15,16
 393 760 393 760 393 742 c 0,0,1
400 161 m 0,17,18
 400 131 400 131 388 83 c 0,19,20
 373 22 373 22 352 17 c 0,21,22
 337 17 337 17 279 37 c 0,23,24
 206 61 206 61 188 89 c 0,25,26
 185 94 185 94 185 106 c 0,27,28
 185 142 185 142 203 200.5 c 128,-1,29
 221 259 221 259 236 259 c 256,30,31
 251 259 251 259 323 221 c 0,32,33
 400 179 400 179 400 161 c 0,17,18
EndSplineSet
Validated: 1
EndChar

StartChar: equal
Encoding: 61 61 14
Width: 870
GlyphClass: 1
Flags: W
LayerCount: 2
Fore
SplineSet
889 605 m 0,0,1
 894 606 894 606 898 606 c 0,2,3
 906 606 906 606 906 600 c 0,4,5
 906 582 906 582 856 537 c 128,-1,6
 806 492 806 492 783 490 c 0,7,8
 752 486 752 486 640 480 c 1,9,10
 152 480 152 480 43 466 c 0,11,12
 31 464 31 464 31 475 c 0,13,14
 31 499 31 499 90 574 c 1,15,16
 182 577 182 577 391 584 c 0,17,18
 394 584 394 584 677 588 c 0,19,20
 831 590 831 590 889 605 c 0,0,1
863 339 m 0,21,22
 868 340 868 340 872 340 c 0,23,24
 880 340 880 340 880 334 c 0,25,26
 880 316 880 316 830 271 c 128,-1,27
 780 226 780 226 757 224 c 0,28,29
 726 220 726 220 614 214 c 1,30,31
 126 214 126 214 17 200 c 0,32,33
 5 198 5 198 5 209 c 0,34,35
 5 233 5 233 64 308 c 1,36,37
 156 311 156 311 365 318 c 0,38,39
 368 318 368 318 651 322 c 0,40,41
 805 324 805 324 863 339 c 0,21,22
EndSplineSet
Validated: 1
EndChar

StartChar: bracketleft
Encoding: 91 91 15
Width: 569
GlyphClass: 1
Flags: W
LayerCount: 2
Fore
SplineSet
508 -435 m 1,0,-1
 111 -435 l 1,1,-1
 111 1075 l 1,2,-1
 508 1075 l 1,3,-1
 508 1014 l 1,4,-1
 219 1014 l 1,5,-1
 219 -374 l 1,6,-1
 508 -374 l 1,7,-1
 508 -435 l 1,0,-1
EndSplineSet
Validated: 1
EndChar

StartChar: bracketright
Encoding: 93 93 16
Width: 569
GlyphClass: 1
Flags: W
LayerCount: 2
Fore
SplineSet
461 -435 m 1,0,-1
 68 -435 l 1,1,-1
 68 -374 l 1,2,-1
 356 -374 l 1,3,-1
 356 1014 l 1,4,-1
 68 1014 l 1,5,-1
 68 1075 l 1,6,-1
 461 1075 l 1,7,-1
 461 -435 l 1,0,-1
EndSplineSet
Validated: 1
EndChar

StartChar: guillemotleft
Encoding: 171 171 17
Width: 834
GlyphClass: 1
Flags: W
LayerCount: 2
Fore
SplineSet
778 9 m 1,0,-1
 726 9 l 1,1,-1
 385 409 l 1,2,-1
 726 804 l 1,3,-1
 773 804 l 1,4,-1
 526 409 l 1,5,-1
 778 9 l 1,0,-1
470 9 m 1,6,-1
 423 9 l 1,7,-1
 85 409 l 1,8,-1
 423 804 l 1,9,-1
 470 804 l 1,10,-1
 226 409 l 1,11,-1
 470 9 l 1,6,-1
EndSplineSet
Validated: 1
EndChar

StartChar: guillemotright
Encoding: 187 187 18
Width: 834
GlyphClass: 1
Flags: W
LayerCount: 2
Fore
SplineSet
761 400 m 1,0,-1
 423 9 l 1,1,-1
 376 9 l 1,2,-1
 620 400 l 1,3,-1
 367 804 l 1,4,-1
 411 804 l 1,5,-1
 761 400 l 1,0,-1
458 400 m 1,6,-1
 122 9 l 1,7,-1
 73 9 l 1,8,-1
 317 400 l 1,9,-1
 66 804 l 1,10,-1
 110 804 l 1,11,-1
 458 400 l 1,6,-1
EndSplineSet
Validated: 1
EndChar

StartChar: multiply
Encoding: 215 215 19
Width: 870
GlyphClass: 1
Flags: W
LayerCount: 2
Fore
SplineSet
805 150 m 0,0,1
 774 114 774 114 688 133 c 0,2,3
 658 140 658 140 408 365 c 1,4,5
 330 289 330 289 283 247 c 0,6,7
 225 189 225 189 120 95 c 0,8,9
 114 90 114 90 92 90 c 0,10,11
 3 90 3 90 3 128 c 0,12,13
 3 141 3 141 19 156 c 2,14,-1
 331 447 l 1,15,16
 279 497 279 497 145 623 c 1,17,18
 119 641 119 641 63 688 c 0,19,20
 61 690 61 690 61 693 c 0,21,22
 61 711 61 711 174 729 c 1,23,24
 185 722 185 722 406 518 c 1,25,26
 515 623 515 623 708 781 c 1,27,28
 820 738 820 738 820 715 c 0,29,30
 820 707 820 707 806 703 c 0,31,32
 721 676 721 676 483 437 c 1,33,34
 605 325 605 325 761 190 c 0,35,36
 767 186 767 186 793 174 c 0,37,38
 810 166 810 166 810 159 c 0,39,40
 810 156 810 156 805 150 c 0,0,1
EndSplineSet
Validated: 33
EndChar

StartChar: divide
Encoding: 247 247 20
Width: 947
GlyphClass: 1
Flags: W
LayerCount: 2
Fore
SplineSet
589 813 m 0,0,1
 589 783 589 783 577 735 c 0,2,3
 562 674 562 674 541 669 c 0,4,5
 526 669 526 669 468 689 c 0,6,7
 395 713 395 713 377 741 c 0,8,9
 374 746 374 746 374 758 c 0,10,11
 374 794 374 794 392 852.5 c 128,-1,12
 410 911 410 911 425 911 c 256,13,14
 440 911 440 911 512 873 c 0,15,16
 589 831 589 831 589 813 c 0,0,1
913 509 m 0,17,18
 918 510 918 510 922 510 c 0,19,20
 930 510 930 510 930 504 c 0,21,22
 930 486 930 486 880 441 c 128,-1,23
 830 396 830 396 807 394 c 0,24,25
 776 390 776 390 664 384 c 1,26,27
 176 384 176 384 67 370 c 0,28,29
 55 368 55 368 55 379 c 0,30,31
 55 403 55 403 114 478 c 1,32,33
 206 481 206 481 415 488 c 0,34,35
 418 488 418 488 701 492 c 0,36,37
 855 494 855 494 913 509 c 0,17,18
589 143 m 0,38,39
 589 113 589 113 577 65 c 0,40,41
 562 4 562 4 541 -1 c 0,42,43
 526 -1 526 -1 468 19 c 0,44,45
 395 43 395 43 377 71 c 0,46,47
 374 76 374 76 374 88 c 0,48,49
 374 124 374 124 392 182.5 c 128,-1,50
 410 241 410 241 425 241 c 256,51,52
 440 241 440 241 512 203 c 0,53,54
 589 161 589 161 589 143 c 0,38,39
EndSplineSet
Validated: 1
EndChar

StartChar: afii57388
Encoding: 1548 1548 21
Width: 569
GlyphClass: 1
Flags: W
LayerCount: 2
Fore
SplineSet
389 138 m 0,0,1
 389 108 389 108 377 60 c 0,2,3
 362 -1 362 -1 341 -6 c 1,4,5
 316 -6 316 -6 249 21 c 0,6,7
 176 50 176 50 176 69 c 1,8,9
 148 111 148 111 148 168 c 0,10,11
 148 262 148 262 223 385 c 0,12,13
 269 461 269 461 344 510 c 0,14,15
 367 525 367 525 382 525 c 0,16,17
 393 525 393 525 393 517 c 0,18,19
 393 504 393 504 368 478 c 0,20,21
 334 448 334 448 274 366 c 1,22,23
 229 277 229 277 229 254 c 0,24,25
 229 235 229 235 237 216 c 1,26,27
 261 196 261 196 331 172 c 0,28,29
 389 152 389 152 389 138 c 0,0,1
EndSplineSet
Validated: 1
EndChar

StartChar: afii57403
Encoding: 1563 1563 22
Width: 569
GlyphClass: 1
Flags: W
LayerCount: 2
Fore
SplineSet
410 719 m 0,0,1
 410 689 410 689 398 641 c 0,2,3
 383 580 383 580 362 575 c 1,4,5
 337 575 337 575 270 602 c 0,6,7
 197 631 197 631 197 650 c 1,8,9
 169 692 169 692 169 749 c 0,10,11
 169 843 169 843 244 966 c 0,12,13
 290 1042 290 1042 365 1091 c 0,14,15
 388 1106 388 1106 403 1106 c 0,16,17
 414 1106 414 1106 414 1098 c 0,18,19
 414 1085 414 1085 389 1059 c 0,20,21
 355 1029 355 1029 295 947 c 1,22,23
 250 858 250 858 250 835 c 0,24,25
 250 816 250 816 258 797 c 1,26,27
 282 777 282 777 352 753 c 0,28,29
 410 733 410 733 410 719 c 0,0,1
414 168 m 0,30,31
 414 138 414 138 402 90 c 0,32,33
 387 29 387 29 366 24 c 0,34,35
 351 24 351 24 293 44 c 0,36,37
 220 68 220 68 202 96 c 0,38,39
 199 101 199 101 199 113 c 0,40,41
 199 149 199 149 217 207.5 c 128,-1,42
 235 266 235 266 250 266 c 256,43,44
 265 266 265 266 337 228 c 0,45,46
 414 186 414 186 414 168 c 0,30,31
EndSplineSet
Validated: 1
EndChar

StartChar: afii57407
Encoding: 1567 1567 23
Width: 1100
GlyphClass: 1
Flags: W
LayerCount: 2
Fore
SplineSet
791 1367 m 0,0,1
 791 1309 791 1309 733 1280 c 0,2,3
 695 1262 695 1262 606 1248 c 0,4,5
 407 1217 407 1217 325 1177 c 0,6,7
 233 1131 233 1131 233 1048 c 0,8,9
 233 949 233 949 375 853 c 0,10,11
 436 814 436 814 497 774 c 0,12,13
 561 731 561 731 596 690 c 1,14,15
 645 620 645 620 645 514 c 0,16,17
 645 434 645 434 624 371 c 1,18,-1
 593 392 l 1,19,20
 596 421 596 421 596 430 c 0,21,22
 596 505 596 505 558 554 c 0,23,24
 553 560 553 560 427 660 c 1,25,26
 334 722 334 722 189 841 c 1,27,28
 128 909 128 909 128 1090 c 0,29,30
 128 1208 128 1208 210 1290 c 0,31,32
 252 1332 252 1332 441 1370 c 1,33,34
 504 1377 504 1377 687 1421 c 0,35,36
 719 1431 719 1431 732.5 1471.5 c 128,-1,37
 746 1512 746 1512 756 1513 c 0,38,39
 767 1515 767 1515 779 1456 c 0,40,41
 791 1402 791 1402 791 1367 c 0,0,1
713 140 m 0,42,43
 713 110 713 110 701 62 c 0,44,45
 686 1 686 1 665 -4 c 0,46,47
 650 -4 650 -4 592 16 c 0,48,49
 519 40 519 40 501 68 c 0,50,51
 498 73 498 73 498 85 c 0,52,53
 498 121 498 121 516 179.5 c 128,-1,54
 534 238 534 238 549 238 c 256,55,56
 564 238 564 238 636 200 c 0,57,58
 713 158 713 158 713 140 c 0,42,43
EndSplineSet
Validated: 1
EndChar

StartChar: afii57392
Encoding: 1632 1632 24
Width: 819
GlyphClass: 1
Flags: W
LayerCount: 2
Fore
SplineSet
574 589 m 0,0,1
 574 551 574 551 559 491 c 0,2,3
 539 415 539 415 513 408 c 1,4,5
 495 408 495 408 423 433 c 0,6,7
 330 464 330 464 308 499 c 0,8,9
 305 504 305 504 305 519 c 0,10,11
 305 565 305 565 327 636 c 0,12,13
 350 711 350 711 369 711 c 256,14,15
 388 711 388 711 478 663 c 0,16,17
 574 611 574 611 574 589 c 0,0,1
EndSplineSet
Validated: 1
EndChar

StartChar: afii57393
Encoding: 1633 1633 25
Width: 819
GlyphClass: 1
Flags: W
LayerCount: 2
Fore
SplineSet
581 210 m 0,0,1
 584 159 584 159 563 71.5 c 128,-1,2
 542 -16 542 -16 526 -16 c 0,3,4
 517 -16 517 -16 513 19 c 0,5,6
 506 114 506 114 498 209 c 1,7,8
 482 292 482 292 384 471 c 0,9,10
 346 541 346 541 250 682 c 0,11,12
 191 768 191 768 171 845 c 0,13,14
 168 858 168 858 198 1001 c 0,15,16
 202 1019 202 1019 211 1019 c 0,17,18
 228 1019 228 1019 256 965 c 1,19,20
 428 706 428 706 454 655 c 0,21,22
 565 443 565 443 581 210 c 0,0,1
EndSplineSet
Validated: 33
EndChar

StartChar: afii57394
Encoding: 1634 1634 26
Width: 860
GlyphClass: 1
Flags: W
LayerCount: 2
Fore
SplineSet
604 989 m 0,0,1
 604 789 604 789 544 703 c 0,2,3
 504 644 504 644 396 605 c 1,4,5
 435 490 435 490 485 299 c 1,6,7
 503 181 503 181 503 139 c 0,8,9
 503 83 503 83 488 48 c 0,10,11
 469 3 469 3 462 3 c 0,12,13
 459 3 459 3 436 133 c 0,14,15
 407 300 407 300 338 440 c 0,16,17
 285 548 285 548 188 693 c 0,18,19
 121 793 121 793 121 830 c 0,20,21
 121 840 121 840 135 871 c 0,22,23
 152 908 152 908 160 949 c 0,24,25
 165 972 165 972 174 972 c 0,26,27
 176 972 176 972 241 894 c 128,-1,28
 306 816 306 816 375 818 c 0,29,30
 488 821 488 821 525 882 c 0,31,32
 535 898 535 898 565 1028 c 0,33,34
 567 1037 567 1037 575 1037 c 0,35,36
 604 1037 604 1037 604 989 c 0,0,1
EndSplineSet
Validated: 33
EndChar

StartChar: afii57395
Encoding: 1635 1635 27
Width: 819
GlyphClass: 1
Flags: W
LayerCount: 2
Fore
SplineSet
735 970 m 0,0,1
 735 869 735 869 690 773 c 0,2,3
 641 669 641 669 581 669 c 0,4,5
 530 669 530 669 506 686 c 0,6,7
 481 707 481 707 456 728 c 1,8,9
 437 686 437 686 382.5 651 c 128,-1,10
 328 616 328 616 293 620 c 1,11,12
 314 552 314 552 336 483 c 1,13,14
 369 352 369 352 369 205 c 0,15,16
 369 8 369 8 346 8 c 0,17,18
 336 8 336 8 323 49 c 1,19,20
 317 99 317 99 303 210 c 0,21,22
 285 352 285 352 180 574 c 0,23,24
 153 632 153 632 99 729 c 0,25,26
 61 799 61 799 61 809 c 0,27,28
 61 841 61 841 74 904 c 0,29,30
 88 980 88 980 104 980 c 0,31,32
 110 980 110 980 115 970 c 0,33,34
 175 861 175 861 189 846 c 0,35,36
 218 814 218 814 283 814 c 0,37,38
 375 814 375 814 415 874 c 1,39,40
 447 942 447 942 479 1009 c 0,41,42
 485 1021 485 1021 496 1021 c 0,43,44
 526 1021 526 1021 520 980 c 0,45,46
 518 965 518 965 518 951 c 0,47,48
 518 870 518 870 589 870 c 0,49,50
 641 870 641 870 658 887 c 0,51,52
 681 910 681 910 705 1004 c 0,53,54
 710 1016 710 1016 716 1016 c 0,55,56
 735 1016 735 1016 735 970 c 0,0,1
EndSplineSet
Validated: 33
EndChar

StartChar: afii57396
Encoding: 1636 1636 28
Width: 819
GlyphClass: 1
Flags: W
LayerCount: 2
Fore
SplineSet
750 175 m 0,0,1
 654 70 654 70 592 36 c 0,2,3
 525 0 525 0 418 0 c 0,4,5
 348 0 348 0 304.5 40.5 c 128,-1,6
 261 81 261 81 261 149 c 0,7,8
 261 193 261 193 301 280.5 c 128,-1,9
 341 368 341 368 341 395 c 0,10,11
 341 428 341 428 286 442 c 0,12,13
 206 461 206 461 184 475 c 0,14,15
 129 511 129 511 129 600 c 0,16,17
 129 707 129 707 277 882 c 0,18,19
 416 1047 416 1047 472 1047 c 0,20,21
 484 1047 484 1047 484 1033 c 0,22,23
 484 1013 484 1013 459 943 c 0,24,25
 436 881 436 881 330 805 c 0,26,27
 232 736 232 736 232 707 c 0,28,29
 232 701 232 701 234 695 c 0,30,31
 243 671 243 671 309 652 c 0,32,33
 403 626 403 626 424 615 c 0,34,35
 484 585 484 585 484 533 c 0,36,37
 484 457 484 457 436.5 381 c 128,-1,38
 389 305 389 305 389 270 c 0,39,40
 389 190 389 190 526 190 c 0,41,42
 615 190 615 190 725 224 c 0,43,44
 754 233 754 233 769 233 c 0,45,46
 803 233 803 233 750 175 c 0,0,1
EndSplineSet
Validated: 1
EndChar

StartChar: afii57397
Encoding: 1637 1637 29
Width: 819
GlyphClass: 1
Flags: W
LayerCount: 2
Fore
SplineSet
643 531 m 0,0,1
 643 381 643 381 569 279 c 0,2,3
 488 167 488 167 346 158 c 0,4,5
 297 155 297 155 239 198 c 0,6,7
 163 254 163 254 156 355 c 0,8,9
 150 450 150 450 220 661 c 0,10,11
 305 918 305 918 415 918 c 0,12,13
 470 918 470 918 549 812 c 0,14,15
 643 686 643 686 643 531 c 0,0,1
566 453 m 0,16,17
 566 540 566 540 484 635 c 0,18,19
 409 723 409 723 366 716 c 0,20,21
 316 712 316 712 269 606 c 0,22,23
 227 511 227 511 227 446 c 0,24,25
 227 433 227 433 230 426 c 0,26,27
 269 335 269 335 366 348 c 1,28,29
 369 344 369 344 383 344 c 0,30,31
 437 344 437 344 493 368 c 0,32,33
 566 400 566 400 566 453 c 0,16,17
EndSplineSet
Validated: 33
EndChar

StartChar: afii57398
Encoding: 1638 1638 30
Width: 819
GlyphClass: 1
Flags: W
LayerCount: 2
Fore
SplineSet
743 204 m 0,0,1
 743 124 743 124 714 79 c 0,2,3
 701 59 701 59 685 59 c 0,4,5
 635 59 635 59 576 214 c 0,6,7
 525 347 525 347 505 499 c 0,8,9
 494 583 494 583 484 783 c 1,10,11
 388 747 388 747 259 747 c 0,12,13
 56 747 56 747 56 831 c 0,14,15
 56 872 56 872 73 925 c 0,16,17
 95 992 95 992 127 992 c 0,18,19
 133 992 133 992 139 990 c 0,20,21
 228 958 228 958 326 958 c 0,22,23
 372 958 372 958 434 966 c 128,-1,24
 496 974 496 974 510 974 c 0,25,26
 548 974 548 974 550 946 c 0,27,28
 567 653 567 653 620 470 c 0,29,30
 635 419 635 419 693 321 c 0,31,32
 743 237 743 237 743 204 c 0,0,1
EndSplineSet
Validated: 1
EndChar

StartChar: afii57399
Encoding: 1639 1639 31
Width: 819
GlyphClass: 1
Flags: W
LayerCount: 2
Fore
SplineSet
735 933 m 0,0,1
 738 861 738 861 728 828 c 0,2,3
 712 778 712 778 679 705 c 0,4,5
 638 611 638 611 574 434 c 1,6,7
 461 33 461 33 417 33 c 0,8,9
 405 33 405 33 400 63 c 0,10,11
 391 119 391 119 381 176 c 0,12,13
 371 230 371 230 349 283 c 0,14,15
 283 444 283 444 207 555 c 0,16,17
 159 620 159 620 110 685 c 0,18,19
 74 736 74 736 74 794 c 1,20,21
 74 794 74 794 88 910 c 0,22,23
 92 940 92 940 108 940 c 0,24,25
 160 940 160 940 294 693 c 0,26,27
 424 452 424 452 454 315 c 1,28,29
 644 1004 644 1004 713 1004 c 0,30,31
 732 1004 732 1004 735 933 c 0,0,1
EndSplineSet
Validated: 33
EndChar

StartChar: afii57400
Encoding: 1640 1640 32
Width: 819
GlyphClass: 1
Flags: W
LayerCount: 2
Fore
SplineSet
735 324 m 0,0,1
 724 245 724 245 719 119 c 0,2,3
 718 86 718 86 702 86 c 0,4,5
 655 86 655 86 525.5 328 c 128,-1,6
 396 570 396 570 364 715 c 1,7,8
 349 601 349 601 289 416 c 0,9,10
 231 237 231 237 179 136 c 0,11,12
 121 24 121 24 115 99 c 0,13,14
 102 250 102 250 130 296 c 0,15,16
 198 408 198 408 251 594 c 1,17,18
 286 733 286 733 321 871 c 0,19,20
 353 993 353 993 379 993 c 0,21,22
 395 993 395 993 420 893 c 0,23,24
 454 752 454 752 515 641 c 0,25,26
 603 481 603 481 685 393 c 0,27,28
 737 336 737 336 735 324 c 0,0,1
EndSplineSet
Validated: 33
EndChar

StartChar: afii57401
Encoding: 1641 1641 33
Width: 819
GlyphClass: 1
Flags: W
LayerCount: 2
Fore
SplineSet
689 233 m 0,0,1
 704 208 704 208 704 175 c 0,2,3
 704 152 704 152 679 58 c 1,4,5
 663 23 663 23 652 23 c 0,6,7
 639 23 639 23 620 43 c 0,8,9
 538 133 538 133 484 302 c 0,10,11
 437 447 437 447 428 583 c 1,12,13
 329 516 329 516 280 516 c 0,14,15
 267 516 267 516 254 519 c 0,16,17
 193 531 193 531 156 579 c 0,18,19
 119 624 119 624 118 685 c 0,20,21
 115 800 115 800 168 912 c 0,22,23
 225 1035 225 1035 300 1034 c 0,24,25
 407 1032 407 1032 463 883 c 0,26,27
 493 802 493 802 515 636 c 0,28,29
 532 507 532 507 588 400 c 1,30,31
 638 316 638 316 689 233 c 0,0,1
338 784 m 0,32,33
 338 801 338 801 313.5 813 c 128,-1,34
 289 825 289 825 264 824 c 1,35,36
 225 814 225 814 218 783 c 0,37,38
 209 739 209 739 277 739 c 0,39,40
 296 739 296 739 310 746 c 1,41,42
 338 771 338 771 338 784 c 0,32,33
EndSplineSet
Validated: 33
EndChar

StartChar: afii57381
Encoding: 1642 1642 34
Width: 947
GlyphClass: 1
Flags: W
LayerCount: 2
Fore
SplineSet
346 1057 m 0,0,1
 346 1019 346 1019 331 959 c 0,2,3
 311 883 311 883 285 876 c 1,4,5
 267 876 267 876 195 901 c 0,6,7
 102 932 102 932 80 967 c 0,8,9
 77 972 77 972 77 987 c 0,10,11
 77 1033 77 1033 99 1104 c 0,12,13
 122 1179 122 1179 141 1179 c 256,14,15
 160 1179 160 1179 250 1131 c 0,16,17
 346 1079 346 1079 346 1057 c 0,0,1
782 1433 m 1,18,19
 663 1159 663 1159 260 -175 c 0,20,21
 219 -311 219 -311 229 -386 c 1,22,23
 186 -402 186 -402 161 -402 c 0,24,25
 126 -402 126 -402 126 -368 c 0,26,27
 126 -332 126 -332 180 -144 c 0,28,29
 411 659 411 659 688 1433 c 1,30,-1
 782 1433 l 1,18,19
898 82 m 0,31,32
 898 44 898 44 883 -16 c 0,33,34
 863 -92 863 -92 837 -99 c 1,35,36
 819 -99 819 -99 747 -74 c 0,37,38
 654 -43 654 -43 632 -8 c 0,39,40
 629 -3 629 -3 629 12 c 0,41,42
 629 58 629 58 651 129 c 0,43,44
 674 204 674 204 693 204 c 256,45,46
 712 204 712 204 802 156 c 0,47,48
 898 104 898 104 898 82 c 0,31,32
EndSplineSet
Validated: 33
EndChar

StartChar: uni066B
Encoding: 1643 1643 35
Width: 532
GlyphClass: 1
Flags: W
LayerCount: 2
Fore
SplineSet
393 127 m 0,0,1
 393 27 393 27 326 -57 c 0,2,3
 264 -136 264 -136 166 -174 c 1,4,-1
 152 -137 l 1,5,6
 309 -46 309 -46 309 68 c 0,7,8
 309 111 309 111 281 111 c 0,9,10
 273 111 273 111 256 107.5 c 128,-1,11
 239 104 239 104 231 104 c 0,12,13
 192 104 192 104 165.5 131 c 128,-1,14
 139 158 139 158 139 197 c 0,15,16
 139 241 139 241 172 269 c 128,-1,17
 205 297 205 297 250 297 c 0,18,19
 316 297 316 297 356 243 c 0,20,21
 393 195 393 195 393 127 c 0,0,1
EndSplineSet
Validated: 1
EndChar

StartChar: uni066C
Encoding: 1644 1644 36
Width: 569
GlyphClass: 1
Flags: W
LayerCount: 2
Fore
SplineSet
375 138 m 0,0,1
 375 41 375 41 271 41 c 0,2,3
 227 41 227 41 197 68 c 128,-1,4
 167 95 167 95 167 138 c 0,5,6
 167 234 167 234 271 234 c 256,7,8
 375 234 375 234 375 138 c 0,0,1
EndSplineSet
Validated: 1
EndChar

StartChar: uni06F0
Encoding: 1776 1776 37
Width: 819
GlyphClass: 1
Flags: W
LayerCount: 2
Fore
SplineSet
574 589 m 0,0,1
 574 551 574 551 559 491 c 0,2,3
 539 415 539 415 513 408 c 1,4,5
 495 408 495 408 423 433 c 0,6,7
 330 464 330 464 308 499 c 0,8,9
 305 504 305 504 305 519 c 0,10,11
 305 565 305 565 327 636 c 0,12,13
 350 711 350 711 369 711 c 256,14,15
 388 711 388 711 478 663 c 0,16,17
 574 611 574 611 574 589 c 0,0,1
EndSplineSet
Validated: 1
EndChar

StartChar: uni06F1
Encoding: 1777 1777 38
Width: 819
GlyphClass: 1
Flags: W
LayerCount: 2
Fore
SplineSet
581 210 m 0,0,1
 584 159 584 159 563 71.5 c 128,-1,2
 542 -16 542 -16 526 -16 c 0,3,4
 517 -16 517 -16 513 19 c 0,5,6
 506 114 506 114 498 209 c 1,7,8
 482 292 482 292 384 471 c 0,9,10
 346 541 346 541 250 682 c 0,11,12
 191 768 191 768 171 845 c 0,13,14
 168 858 168 858 198 1001 c 0,15,16
 202 1019 202 1019 211 1019 c 0,17,18
 228 1019 228 1019 256 965 c 1,19,20
 428 706 428 706 454 655 c 0,21,22
 565 443 565 443 581 210 c 0,0,1
EndSplineSet
Validated: 33
EndChar

StartChar: uni06F2
Encoding: 1778 1778 39
Width: 860
GlyphClass: 1
Flags: W
LayerCount: 2
Fore
SplineSet
604 989 m 0,0,1
 604 789 604 789 544 702 c 0,2,3
 504 644 504 644 396 605 c 1,4,5
 435 490 435 490 485 299 c 1,6,7
 503 181 503 181 503 139 c 0,8,9
 503 83 503 83 488 48 c 0,10,11
 469 3 469 3 462 3 c 0,12,13
 459 3 459 3 436 133 c 0,14,15
 407 300 407 300 338 440 c 0,16,17
 285 548 285 548 188 693 c 0,18,19
 121 793 121 793 121 830 c 0,20,21
 121 840 121 840 135 871 c 0,22,23
 152 908 152 908 160 949 c 0,24,25
 165 972 165 972 174 972 c 0,26,27
 176 972 176 972 241 894 c 128,-1,28
 306 816 306 816 375 818 c 0,29,30
 488 821 488 821 525 882 c 0,31,32
 535 898 535 898 565 1028 c 0,33,34
 567 1037 567 1037 575 1037 c 0,35,36
 604 1037 604 1037 604 989 c 0,0,1
EndSplineSet
Validated: 33
EndChar

StartChar: uni06F3
Encoding: 1779 1779 40
Width: 819
GlyphClass: 1
Flags: W
LayerCount: 2
Fore
SplineSet
735 970 m 0,0,1
 735 869 735 869 690 773 c 0,2,3
 641 669 641 669 581 669 c 0,4,5
 530 669 530 669 506 686 c 0,6,7
 481 707 481 707 456 728 c 1,8,9
 437 686 437 686 382.5 651 c 128,-1,10
 328 616 328 616 293 620 c 1,11,12
 314 552 314 552 336 483 c 1,13,14
 369 352 369 352 369 205 c 0,15,16
 369 8 369 8 346 8 c 0,17,18
 336 8 336 8 323 49 c 1,19,20
 317 99 317 99 303 210 c 0,21,22
 285 352 285 352 180 574 c 0,23,24
 153 632 153 632 99 729 c 0,25,26
 61 799 61 799 61 809 c 0,27,28
 61 841 61 841 74 904 c 0,29,30
 88 980 88 980 104 980 c 0,31,32
 110 980 110 980 115 970 c 0,33,34
 175 861 175 861 189 846 c 0,35,36
 218 814 218 814 283 814 c 0,37,38
 375 814 375 814 415 874 c 1,39,40
 447 942 447 942 479 1009 c 0,41,42
 485 1021 485 1021 496 1021 c 0,43,44
 526 1021 526 1021 520 980 c 0,45,46
 518 965 518 965 518 951 c 0,47,48
 518 870 518 870 589 870 c 0,49,50
 641 870 641 870 658 887 c 0,51,52
 681 910 681 910 705 1004 c 0,53,54
 710 1016 710 1016 716 1016 c 0,55,56
 735 1016 735 1016 735 970 c 0,0,1
EndSplineSet
Validated: 33
EndChar

StartChar: uni06F4
Encoding: 1780 1780 41
Width: 860
GlyphClass: 1
Flags: W
LayerCount: 2
Fore
SplineSet
790 953 m 0,0,1
 777 831 777 831 702 753 c 0,2,3
 645 694 645 694 544 655 c 0,4,5
 470 630 470 630 396 605 c 1,6,7
 435 490 435 490 485 299 c 1,8,9
 503 181 503 181 503 139 c 0,10,11
 503 83 503 83 488 48 c 0,12,13
 469 3 469 3 462 3 c 0,14,15
 459 3 459 3 436 133 c 0,16,17
 407 300 407 300 338 440 c 0,18,19
 285 548 285 548 188 693 c 0,20,21
 121 793 121 793 121 830 c 0,22,23
 121 840 121 840 135 871 c 0,24,25
 152 908 152 908 160 949 c 0,26,27
 165 973 165 973 174 973 c 0,28,29
 177 973 177 973 241.5 895.5 c 128,-1,30
 306 818 306 818 375 818 c 2,31,-1
 376 818 l 1,32,33
 344 870 344 870 344 936 c 0,34,35
 344 992 344 992 367 1050 c 0,36,37
 389 1105 389 1105 416 1124 c 0,38,39
 457 1153 457 1153 492 1159 c 0,40,41
 523 1164 523 1164 542 1164 c 0,42,43
 580 1164 580 1164 672 1108 c 0,44,45
 686 1095 686 1095 686 1086 c 0,46,47
 686 1074 686 1074 668 1071 c 1,48,49
 643 1081 643 1081 585 1086 c 1,50,51
 552 1080 552 1080 478 1040 c 0,52,53
 393 993 393 993 398 965 c 0,54,55
 402 943 402 943 436 911 c 0,56,57
 490 860 490 860 572 860 c 0,58,59
 594 860 594 860 617 864 c 1,60,61
 731 910 731 910 751 992 c 0,62,63
 753 1001 753 1001 761 1001 c 0,64,65
 795 1001 795 1001 790 953 c 0,0,1
EndSplineSet
Validated: 33
EndChar

StartChar: uni06F5
Encoding: 1781 1781 42
Width: 819
GlyphClass: 1
Flags: W
LayerCount: 2
Fore
SplineSet
751 336 m 0,0,1
 750 257 750 257 721 176 c 0,2,3
 689 86 689 86 645 73 c 0,4,5
 635 70 635 70 623 70 c 0,6,7
 548 70 548 70 441 179 c 1,8,9
 395 139 395 139 353 111 c 0,10,11
 254 42 254 42 198 41 c 0,12,13
 115 39 115 39 112 127 c 0,14,15
 109 205 109 205 178 438 c 0,16,17
 256 701 256 701 342 831 c 1,18,19
 332 841 332 841 327 861 c 1,20,21
 396 1026 396 1026 453 1028 c 1,22,23
 754 623 754 623 751 336 c 0,0,1
644 264 m 0,24,25
 656 265 656 265 656 284 c 0,26,27
 656 354 656 354 544 564.5 c 128,-1,28
 432 775 432 775 392 787 c 0,29,30
 379 791 379 791 297 575 c 0,31,32
 212 350 212 350 212 276 c 0,33,34
 212 250 212 250 224 248 c 0,35,36
 322 235 322 235 469 379 c 1,37,38
 553 260 553 260 644 264 c 0,24,25
EndSplineSet
Validated: 33
EndChar

StartChar: uni06F6
Encoding: 1782 1782 43
Width: 819
GlyphClass: 1
Flags: W
LayerCount: 2
Fore
SplineSet
653 768 m 0,0,1
 647 740 647 740 608 647 c 1,2,3
 580 621 580 621 423 482 c 0,4,5
 356 423 356 423 284 323 c 1,6,7
 156 209 156 209 120 209 c 0,8,9
 108 209 108 209 108 222 c 0,10,11
 108 256 108 256 181 372 c 0,12,13
 250 481 250 481 321 558 c 1,14,15
 231 583 231 583 197 615 c 0,16,17
 144 665 144 665 144 777 c 0,18,19
 144 850 144 850 188 930 c 0,20,21
 229 1006 229 1006 272 1026 c 0,22,23
 323 1050 323 1050 371 1050 c 0,24,25
 441 1050 441 1050 480 1028 c 0,26,27
 501 1017 501 1017 572 954 c 1,28,29
 589 931 589 931 589 916 c 0,30,31
 589 892 589 892 551 892 c 0,32,33
 543 892 543 892 512.5 908.5 c 128,-1,34
 482 925 482 925 461 925 c 0,35,36
 423 925 423 925 339 899 c 0,37,38
 240 869 240 869 240 838 c 0,39,40
 240 806 240 806 269 768 c 0,41,42
 320 703 320 703 433 703 c 0,43,44
 449 703 449 703 465 704 c 1,45,46
 510 730 510 730 597 797 c 0,47,48
 614 814 614 814 628 814 c 256,49,50
 642 814 642 814 649 797 c 128,-1,51
 656 780 656 780 653 768 c 0,0,1
EndSplineSet
Validated: 1
EndChar

StartChar: uni06F7
Encoding: 1783 1783 44
Width: 819
GlyphClass: 1
Flags: W
LayerCount: 2
Fore
SplineSet
735 933 m 0,0,1
 738 861 738 861 728 828 c 0,2,3
 712 778 712 778 679 705 c 0,4,5
 638 611 638 611 574 434 c 1,6,7
 461 33 461 33 417 33 c 0,8,9
 405 33 405 33 400 63 c 0,10,11
 391 119 391 119 381 176 c 0,12,13
 371 230 371 230 349 283 c 0,14,15
 283 444 283 444 207 555 c 0,16,17
 159 620 159 620 110 685 c 0,18,19
 74 736 74 736 74 794 c 1,20,21
 74 794 74 794 88 910 c 0,22,23
 92 940 92 940 108 940 c 0,24,25
 160 940 160 940 294 693 c 0,26,27
 424 452 424 452 454 315 c 1,28,29
 644 1004 644 1004 713 1004 c 0,30,31
 732 1004 732 1004 735 933 c 0,0,1
EndSplineSet
Validated: 33
EndChar

StartChar: uni06F8
Encoding: 1784 1784 45
Width: 819
GlyphClass: 1
Flags: W
LayerCount: 2
Fore
SplineSet
735 324 m 0,0,1
 724 245 724 245 719 119 c 0,2,3
 718 86 718 86 702 86 c 0,4,5
 655 86 655 86 525.5 328 c 128,-1,6
 396 570 396 570 364 715 c 1,7,8
 349 601 349 601 289 416 c 0,9,10
 231 237 231 237 179 136 c 0,11,12
 121 24 121 24 115 99 c 0,13,14
 102 250 102 250 130 296 c 0,15,16
 198 408 198 408 251 594 c 1,17,18
 286 733 286 733 321 871 c 0,19,20
 353 993 353 993 379 993 c 0,21,22
 395 993 395 993 420 893 c 0,23,24
 454 752 454 752 515 641 c 0,25,26
 603 481 603 481 685 393 c 0,27,28
 737 336 737 336 735 324 c 0,0,1
EndSplineSet
Validated: 33
EndChar

StartChar: uni06F9
Encoding: 1785 1785 46
Width: 819
GlyphClass: 1
Flags: W
LayerCount: 2
Fore
SplineSet
689 233 m 0,0,1
 704 208 704 208 704 175 c 0,2,3
 704 152 704 152 679 58 c 1,4,5
 663 23 663 23 652 23 c 0,6,7
 639 23 639 23 620 43 c 0,8,9
 538 133 538 133 484 302 c 0,10,11
 437 447 437 447 428 583 c 1,12,13
 329 516 329 516 280 516 c 0,14,15
 267 516 267 516 254 519 c 0,16,17
 193 531 193 531 156 579 c 0,18,19
 119 624 119 624 118 685 c 0,20,21
 115 800 115 800 168 912 c 0,22,23
 225 1035 225 1035 300 1034 c 0,24,25
 407 1032 407 1032 463 883 c 0,26,27
 493 802 493 802 515 636 c 0,28,29
 532 506 532 506 588 400 c 1,30,31
 638 316 638 316 689 233 c 0,0,1
338 784 m 0,32,33
 338 801 338 801 313.5 813 c 128,-1,34
 289 825 289 825 264 824 c 1,35,36
 225 814 225 814 218 783 c 0,37,38
 209 739 209 739 277 739 c 0,39,40
 296 739 296 739 310 746 c 1,41,42
 338 771 338 771 338 784 c 0,32,33
EndSplineSet
Validated: 33
EndChar

StartChar: afii61664
Encoding: 8204 8204 47
Width: 3120
GlyphClass: 1
Flags: W
LayerCount: 2
Fore
SplineSet
12 329 m 2,0,-1
 92 329 l 1,1,-1
 101 317 l 1,2,3
 102 329 102 329 107 329 c 2,4,-1
 143 329 l 1,5,-1
 155 311 l 1,6,7
 155 329 155 329 161 329 c 2,8,-1
 232 329 l 1,9,10
 251 294 251 294 253 294 c 1,11,12
 253 329 253 329 259 329 c 2,13,-1
 339 329 l 1,14,-1
 348 317 l 1,15,16
 349 329 349 329 354 329 c 2,17,-1
 390 329 l 1,18,-1
 402 311 l 1,19,20
 402 329 402 329 408 329 c 2,21,-1
 479 329 l 2,22,23
 483 329 483 329 503 282 c 1,24,-1
 503 259 l 2,25,26
 503 252 503 252 476 235 c 1,27,28
 448 24 448 24 440 12 c 1,29,-1
 408 12 l 2,30,31
 397 12 397 12 384 59 c 1,32,-1
 369 12 l 1,33,-1
 342 12 l 2,34,35
 310 12 310 12 288 194 c 0,36,37
 286 194 286 194 271 294 c 1,38,-1
 274 294 l 1,39,40
 284 274 284 274 321 59 c 1,41,-1
 345 59 l 1,42,43
 361 206 361 206 366 206 c 1,44,45
 390 76 390 76 390 59 c 1,46,-1
 414 59 l 2,47,48
 418 59 418 59 449 282 c 1,49,50
 473 299 473 299 473 305 c 2,51,-1
 473 317 l 1,52,-1
 470 317 l 1,53,54
 440 298 440 298 440 235 c 1,55,56
 433 194 433 194 428 194 c 2,57,-1
 422 200 l 1,58,59
 422 209 422 209 434 282 c 0,60,61
 434 296 434 296 410 317 c 1,62,-1
 408 317 l 1,63,-1
 408 294 l 1,64,-1
 422 294 l 2,65,66
 428 292 428 292 428 282 c 2,67,-1
 414 165 l 1,68,-1
 408 165 l 1,69,70
 408 169 408 169 404 200 c 1,71,72
 399 194 399 194 392 194 c 1,73,-1
 402 171 l 1,74,-1
 402 112 l 1,75,-1
 396 112 l 1,76,77
 380 166 380 166 380 183 c 1,78,-1
 384 194 l 1,79,80
 374 194 374 194 363 229 c 1,81,82
 357 194 357 194 351 194 c 1,83,-1
 348 206 l 1,84,-1
 360 311 l 1,85,-1
 360 317 l 1,86,-1
 357 317 l 1,87,-1
 342 171 l 1,88,-1
 339 171 l 2,89,90
 332 171 332 171 330 212 c 1,91,-1
 327 212 l 1,92,93
 327 203 327 203 321 188 c 1,94,95
 325 188 325 188 330 171 c 1,96,97
 327 139 327 139 327 118 c 1,98,-1
 321 118 l 1,99,100
 306 176 306 176 306 183 c 1,101,102
 312 183 312 183 312 194 c 1,103,104
 297 194 297 194 286 288 c 1,105,-1
 262 317 l 1,106,-1
 259 317 l 1,107,-1
 259 299 l 1,108,-1
 265 299 l 1,109,-1
 265 288 l 1,110,-1
 262 288 l 1,111,-1
 256 294 l 1,112,113
 256 241 256 241 232 241 c 1,114,115
 200 27 200 27 193 12 c 1,116,-1
 161 12 l 2,117,118
 150 12 150 12 137 59 c 1,119,-1
 131 59 l 1,120,121
 131 12 131 12 122 12 c 2,122,-1
 95 12 l 2,123,124
 63 12 63 12 39 212 c 0,125,126
 28 288 28 288 15 288 c 1,127,128
 9 294 9 294 6 294 c 1,129,-1
 6 317 l 2,130,131
 7 329 7 329 12 329 c 2,0,-1
509 329 m 2,132,-1
 589 329 l 1,133,-1
 598 317 l 1,134,135
 599 329 599 329 604 329 c 2,136,-1
 639 329 l 1,137,-1
 651 311 l 1,138,139
 651 329 651 329 657 329 c 2,140,-1
 728 329 l 2,141,142
 732 329 732 329 752 282 c 1,143,-1
 752 264 l 2,144,145
 752 254 752 254 726 235 c 1,146,147
 702 41 702 41 690 12 c 1,148,-1
 657 12 l 2,149,150
 647 12 647 12 633 59 c 0,151,152
 629 59 629 59 621 12 c 1,153,-1
 592 12 l 2,154,155
 560 12 560 12 535 212 c 0,156,157
 525 288 525 288 511 288 c 1,158,159
 506 294 506 294 503 294 c 1,160,-1
 503 317 l 2,161,162
 503 329 503 329 509 329 c 2,132,-1
803 329 m 2,163,-1
 979 329 l 1,164,165
 1002 296 1002 296 1002 288 c 2,166,-1
 1002 264 l 2,167,168
 1002 254 1002 254 967 235 c 1,169,170
 937 189 937 189 937 183 c 0,171,172
 993 59 993 59 1005 59 c 1,173,174
 1005 94 1005 94 1023 94 c 1,175,176
 1026 104 1026 104 1026 118 c 2,177,-1
 1026 253 l 2,178,179
 1026 280 1026 280 1005 299 c 1,180,-1
 1005 317 l 2,181,182
 1006 329 1006 329 1011 329 c 2,183,-1
 1187 329 l 2,184,185
 1191 329 1191 329 1210 282 c 1,186,-1
 1210 264 l 1,187,188
 1190 240 1190 240 1190 212 c 2,189,-1
 1190 88 l 2,190,191
 1190 80 1190 80 1207 53 c 1,192,193
 1207 92 1207 92 1228 106 c 1,194,195
 1272 321 1272 321 1279 329 c 1,196,-1
 1309 329 l 1,197,198
 1359 294 1359 294 1359 241 c 1,199,200
 1389 86 1389 86 1407 59 c 1,201,-1
 1407 24 l 2,202,203
 1407 12 1407 12 1401 12 c 2,204,-1
 1329 12 l 2,205,206
 1323 12 1323 12 1317 18 c 1,207,208
 1312 12 1312 12 1305 12 c 2,209,-1
 1237 12 l 2,210,211
 1226 12 1226 12 1213 35 c 1,212,-1
 1210 35 l 1,213,214
 1210 12 1210 12 1204 12 c 2,215,-1
 1026 12 l 1,216,-1
 1005 41 l 1,217,218
 1005 12 1005 12 999 12 c 2,219,-1
 818 12 l 1,220,221
 797 40 797 40 797 47 c 2,222,-1
 797 70 l 1,223,224
 815 95 815 95 815 100 c 0,225,226
 818 110 818 110 818 130 c 2,227,-1
 818 253 l 2,228,229
 818 282 818 282 809 282 c 1,230,-1
 809 294 l 1,231,-1
 815 294 l 2,232,233
 819 294 819 294 824 276 c 1,234,-1
 824 94 l 2,235,236
 824 76 824 76 803 76 c 1,237,-1
 803 59 l 1,238,-1
 880 59 l 1,239,-1
 880 76 l 1,240,241
 859 76 859 76 859 94 c 2,242,-1
 859 130 l 2,243,244
 859 137 859 137 874 159 c 1,245,246
 904 98 904 98 904 94 c 2,247,-1
 904 88 l 1,248,-1
 892 65 l 1,249,-1
 892 59 l 1,250,-1
 975 59 l 1,251,-1
 975 76 l 1,252,-1
 967 76 l 2,253,254
 949 76 949 76 901 194 c 1,255,-1
 901 200 l 1,256,257
 910 226 910 226 957 294 c 1,258,-1
 973 294 l 1,259,-1
 973 317 l 1,260,-1
 969 317 l 2,261,262
 963 317 963 317 886 194 c 1,263,-1
 877 194 l 1,264,-1
 877 188 l 1,265,266
 902 188 902 188 916 112 c 1,267,268
 895 136 895 136 871 188 c 1,269,-1
 845 188 l 1,270,271
 845 180 845 180 853 171 c 1,272,273
 845 141 845 141 845 112 c 1,274,-1
 839 112 l 1,275,276
 839 130 839 130 833 171 c 1,277,-1
 839 188 l 1,278,-1
 839 194 l 1,279,-1
 833 188 l 1,280,-1
 830 200 l 1,281,-1
 830 235 l 2,282,283
 830 300 830 300 809 317 c 1,284,-1
 803 317 l 1,285,-1
 803 288 l 1,286,287
 797 288 797 288 797 299 c 2,288,-1
 797 317 l 2,289,290
 798 329 798 329 803 329 c 2,163,-1
1392 329 m 2,291,-1
 1538 329 l 1,292,293
 1561 292 1561 292 1561 288 c 2,294,-1
 1561 183 l 2,295,296
 1561 171 1561 171 1555 171 c 2,297,-1
 1528 171 l 1,298,299
 1513 200 1513 200 1511 200 c 1,300,-1
 1511 82 l 1,301,302
 1532 45 1532 45 1532 41 c 2,303,-1
 1532 24 l 2,304,305
 1532 12 1532 12 1526 12 c 2,306,-1
 1436 12 l 1,307,308
 1416 40 1416 40 1416 47 c 2,309,-1
 1416 70 l 2,310,311
 1416 79 1416 79 1436 100 c 1,312,-1
 1436 171 l 1,313,-1
 1412 171 l 1,314,315
 1389 196 1389 196 1386 212 c 2,316,-1
 1386 317 l 2,317,318
 1387 329 1387 329 1392 329 c 2,291,-1
1669 329 m 2,319,-1
 1844 329 l 1,320,321
 1868 296 1868 296 1868 288 c 2,322,-1
 1868 264 l 2,323,324
 1868 254 1868 254 1832 235 c 1,325,326
 1802 189 1802 189 1802 183 c 0,327,328
 1859 59 1859 59 1870 59 c 1,329,330
 1872 94 1872 94 1888 94 c 1,331,332
 1892 104 1892 104 1892 118 c 2,333,-1
 1892 253 l 2,334,335
 1892 282 1892 282 1882 282 c 1,336,-1
 1882 294 l 1,337,-1
 1888 294 l 2,338,339
 1893 294 1893 294 1898 276 c 1,340,-1
 1898 94 l 2,341,342
 1898 76 1898 76 1876 76 c 1,343,-1
 1876 59 l 1,344,-1
 1954 59 l 1,345,-1
 1954 76 l 1,346,347
 1933 76 1933 76 1933 94 c 2,348,-1
 1933 159 l 2,349,350
 1934 171 1934 171 1939 171 c 2,351,-1
 1981 171 l 2,352,353
 1987 169 1987 169 1987 159 c 2,354,-1
 1987 94 l 2,355,356
 1987 87 1987 87 1966 65 c 1,357,-1
 1966 59 l 1,358,-1
 2046 59 l 1,359,-1
 2046 76 l 1,360,361
 2025 76 2025 76 2025 94 c 2,362,-1
 2025 276 l 2,363,364
 2025 294 2025 294 2046 294 c 1,365,-1
 2046 317 l 1,366,-1
 2043 317 l 1,367,368
 2019 303 2019 303 2019 253 c 2,369,-1
 2019 200 l 2,370,371
 2019 188 2019 188 2010 188 c 1,372,-1
 2016 171 l 1,373,-1
 2010 118 l 1,374,-1
 2005 118 l 1,375,376
 1999 156 1999 156 1999 171 c 1,377,-1
 2005 188 l 1,378,-1
 1918 188 l 1,379,-1
 1924 171 l 1,380,381
 1924 156 1924 156 1918 118 c 1,382,-1
 1912 118 l 1,383,384
 1912 130 1912 130 1906 177 c 1,385,386
 1912 177 1912 177 1912 188 c 1,387,388
 1903 188 1903 188 1903 200 c 2,389,-1
 1903 253 l 2,390,391
 1903 311 1903 311 1880 311 c 1,392,393
 1880 317 1880 317 1876 317 c 1,394,-1
 1876 288 l 1,395,396
 1870 288 1870 288 1870 299 c 2,397,-1
 1870 317 l 2,398,399
 1872 329 1872 329 1876 329 c 2,400,-1
 2052 329 l 2,401,402
 2056 329 2056 329 2076 282 c 1,403,-1
 2076 253 l 1,404,405
 2055 253 2055 253 2055 212 c 2,406,-1
 2055 88 l 2,407,408
 2055 80 2055 80 2073 53 c 1,409,410
 2073 92 2073 92 2093 106 c 1,411,412
 2138 321 2138 321 2144 329 c 1,413,-1
 2174 329 l 1,414,415
 2224 294 2224 294 2224 241 c 1,416,417
 2254 83 2254 83 2272 59 c 1,418,-1
 2272 24 l 2,419,420
 2272 12 2272 12 2266 12 c 2,421,-1
 2194 12 l 2,422,423
 2188 12 2188 12 2182 18 c 1,424,425
 2178 12 2178 12 2171 12 c 2,426,-1
 2103 12 l 2,427,428
 2091 12 2091 12 2079 35 c 1,429,-1
 2076 35 l 1,430,-1
 2076 12 l 1,431,-1
 1892 12 l 1,432,-1
 1870 41 l 1,433,434
 1870 12 1870 12 1864 12 c 2,435,-1
 1683 12 l 1,436,437
 1663 40 1663 40 1663 47 c 2,438,-1
 1663 76 l 2,439,440
 1663 84 1663 84 1681 94 c 1,441,442
 1683 104 1683 104 1683 118 c 2,443,-1
 1683 253 l 2,444,445
 1683 282 1683 282 1675 282 c 1,446,-1
 1675 294 l 1,447,-1
 1681 294 l 2,448,449
 1684 294 1684 294 1689 276 c 1,450,-1
 1689 94 l 2,451,452
 1689 76 1689 76 1669 76 c 1,453,-1
 1669 59 l 1,454,-1
 1746 59 l 1,455,-1
 1746 76 l 1,456,457
 1725 76 1725 76 1725 94 c 2,458,-1
 1725 130 l 2,459,460
 1725 137 1725 137 1740 159 c 1,461,462
 1769 98 1769 98 1769 94 c 2,463,-1
 1769 88 l 2,464,465
 1769 76 1769 76 1758 76 c 1,466,-1
 1758 59 l 1,467,-1
 1841 59 l 1,468,-1
 1841 76 l 1,469,-1
 1832 76 l 2,470,471
 1814 76 1814 76 1766 194 c 1,472,-1
 1766 200 l 1,473,474
 1773 221 1773 221 1823 294 c 1,475,-1
 1838 294 l 1,476,-1
 1838 317 l 1,477,-1
 1835 317 l 1,478,479
 1813 296 1813 296 1752 194 c 1,480,-1
 1749 194 l 1,481,-1
 1749 183 l 1,482,483
 1769 183 1769 183 1781 112 c 1,484,485
 1761 136 1761 136 1737 188 c 1,486,-1
 1710 188 l 1,487,488
 1710 180 1710 180 1719 171 c 1,489,490
 1710 141 1710 141 1710 112 c 1,491,-1
 1704 112 l 1,492,493
 1704 130 1704 130 1698 171 c 1,494,-1
 1704 188 l 1,495,-1
 1704 194 l 1,496,-1
 1698 188 l 1,497,-1
 1695 200 l 1,498,-1
 1695 235 l 2,499,500
 1695 311 1695 311 1671 311 c 1,501,502
 1671 317 1671 317 1669 317 c 1,503,-1
 1669 288 l 1,504,505
 1663 288 1663 288 1663 299 c 2,506,-1
 1663 317 l 2,507,508
 1663 329 1663 329 1669 329 c 2,319,-1
2257 329 m 2,509,-1
 2403 329 l 1,510,511
 2427 292 2427 292 2427 288 c 2,512,-1
 2427 183 l 2,513,514
 2427 171 2427 171 2421 171 c 2,515,-1
 2394 171 l 1,516,-1
 2376 200 l 1,517,-1
 2376 82 l 1,518,519
 2397 45 2397 45 2397 41 c 2,520,-1
 2397 24 l 2,521,522
 2397 12 2397 12 2391 12 c 2,523,-1
 2302 12 l 1,524,525
 2281 40 2281 40 2281 47 c 2,526,-1
 2281 76 l 2,527,528
 2281 84 2281 84 2299 94 c 1,529,530
 2302 104 2302 104 2302 118 c 2,531,-1
 2302 171 l 1,532,-1
 2278 171 l 1,533,534
 2255 196 2255 196 2251 212 c 1,535,-1
 2251 317 l 2,536,537
 2252 329 2252 329 2257 329 c 2,509,-1
2435 329 m 2,538,-1
 2519 329 l 1,539,540
 2542 292 2542 292 2542 288 c 2,541,-1
 2542 259 l 1,542,543
 2522 237 2522 237 2522 218 c 2,544,-1
 2522 82 l 1,545,546
 2542 48 2542 48 2542 41 c 2,547,-1
 2542 24 l 2,548,549
 2542 12 2542 12 2536 12 c 2,550,-1
 2451 12 l 1,551,552
 2429 40 2429 40 2429 47 c 2,553,-1
 2429 70 l 2,554,555
 2429 79 2429 79 2451 100 c 1,556,-1
 2451 264 l 2,557,558
 2451 272 2451 272 2429 294 c 1,559,-1
 2429 317 l 2,560,561
 2431 329 2431 329 2435 329 c 2,538,-1
2629 329 m 2,562,-1
 2712 329 l 1,563,564
 2732 294 2732 294 2736 294 c 1,565,566
 2736 329 2736 329 2742 329 c 2,567,-1
 2846 329 l 1,568,569
 2926 308 2926 308 2926 218 c 2,570,-1
 2926 206 l 2,571,572
 2926 177 2926 177 2906 147 c 1,573,574
 2906 100 2906 100 2896 100 c 1,575,576
 2892 108 2892 108 2879 177 c 1,577,578
 2873 177 2873 177 2873 194 c 1,579,580
 2868 188 2868 188 2861 188 c 1,581,582
 2876 167 2876 167 2876 130 c 2,583,-1
 2876 118 l 1,584,-1
 2870 118 l 1,585,586
 2870 136 2870 136 2849 171 c 1,587,588
 2852 182 2852 182 2852 188 c 1,589,-1
 2783 188 l 1,590,-1
 2789 171 l 2,591,592
 2789 164 2789 164 2783 106 c 1,593,-1
 2777 106 l 1,594,-1
 2771 177 l 1,595,596
 2777 177 2777 177 2777 188 c 1,597,598
 2769 188 2769 188 2769 200 c 2,599,-1
 2769 253 l 2,600,601
 2769 303 2769 303 2745 317 c 1,602,-1
 2742 317 l 1,603,-1
 2742 294 l 1,604,605
 2763 294 2763 294 2763 276 c 2,606,-1
 2763 94 l 2,607,608
 2763 76 2763 76 2742 76 c 1,609,-1
 2742 59 l 1,610,-1
 2819 59 l 1,611,-1
 2819 76 l 1,612,613
 2799 76 2799 76 2799 94 c 2,614,-1
 2799 159 l 2,615,616
 2799 171 2799 171 2805 171 c 2,617,-1
 2837 171 l 2,618,619
 2846 171 2846 171 2864 70 c 1,620,621
 2874 53 2874 53 2894 53 c 0,622,623
 2923 53 2923 53 2923 135 c 0,624,625
 2920 147 2920 147 2920 153 c 1,626,-1
 2926 153 l 1,627,628
 2950 119 2950 119 2950 112 c 2,629,-1
 2950 70 l 2,630,631
 2950 18 2950 18 2914 12 c 1,632,-1
 2902 12 l 1,633,634
 2843 32 2843 32 2843 130 c 1,635,-1
 2828 130 l 1,636,-1
 2828 88 l 1,637,-1
 2852 41 l 1,638,-1
 2852 24 l 2,639,640
 2852 12 2852 12 2846 12 c 2,641,-1
 2757 12 l 1,642,643
 2748 30 2748 30 2736 30 c 1,644,645
 2736 12 2736 12 2730 12 c 2,646,-1
 2644 12 l 1,647,648
 2623 40 2623 40 2623 47 c 2,649,-1
 2623 70 l 2,650,651
 2623 79 2623 79 2644 100 c 1,652,-1
 2644 264 l 2,653,654
 2644 272 2644 272 2623 294 c 1,655,-1
 2623 317 l 2,656,657
 2624 329 2624 329 2629 329 c 2,562,-1
12 317 m 1,658,-1
 12 299 l 1,659,660
 39 299 39 299 48 200 c 1,661,662
 72 60 72 60 77 59 c 2,663,-1
 98 59 l 1,664,665
 113 206 113 206 119 206 c 1,666,667
 143 76 143 76 143 59 c 1,668,-1
 167 59 l 1,669,670
 173 65 173 65 203 282 c 1,671,672
 226 299 226 299 226 305 c 2,673,-1
 226 317 l 1,674,-1
 223 317 l 1,675,676
 193 298 193 298 193 235 c 1,677,678
 187 194 187 194 181 194 c 1,679,-1
 175 200 l 1,680,681
 175 209 175 209 187 282 c 0,682,683
 187 296 187 296 163 317 c 1,684,-1
 161 317 l 1,685,-1
 161 294 l 1,686,-1
 175 294 l 2,687,688
 181 294 181 294 181 276 c 0,689,690
 167 173 167 173 167 165 c 1,691,-1
 161 165 l 1,692,693
 161 169 161 169 157 200 c 1,694,695
 153 194 153 194 146 194 c 1,696,-1
 155 171 l 1,697,-1
 155 112 l 1,698,-1
 149 112 l 1,699,700
 134 166 134 166 134 183 c 1,701,-1
 137 194 l 1,702,703
 128 194 128 194 116 229 c 1,704,705
 110 194 110 194 104 194 c 1,706,-1
 101 206 l 1,707,-1
 113 311 l 1,708,-1
 113 317 l 1,709,-1
 110 317 l 1,710,-1
 95 171 l 1,711,-1
 92 171 l 2,712,713
 85 171 85 171 83 212 c 1,714,-1
 80 212 l 1,715,716
 80 203 80 203 74 188 c 1,717,718
 78 188 78 188 83 171 c 1,719,720
 80 139 80 139 80 118 c 1,721,-1
 74 118 l 1,722,723
 74 124 74 124 60 183 c 1,724,725
 66 183 66 183 66 194 c 1,726,727
 50 194 50 194 39 288 c 1,728,-1
 15 317 l 1,729,-1
 12 317 l 1,658,-1
66 294 m 0,730,731
 74 238 74 238 74 235 c 1,732,-1
 77 235 l 1,733,-1
 77 241 l 1,734,735
 72 262 72 262 72 288 c 1,736,737
 76 294 76 294 86 294 c 1,738,-1
 86 317 l 1,739,740
 66 299 66 299 66 294 c 0,730,731
312 294 m 2,741,-1
 324 218 l 1,742,-1
 327 218 l 1,743,-1
 327 223 l 1,744,745
 318 263 318 263 318 288 c 1,746,747
 333 296 333 296 333 305 c 2,748,-1
 333 317 l 1,749,750
 312 299 312 299 312 294 c 2,741,-1
509 317 m 1,751,-1
 509 299 l 1,752,753
 536 299 536 299 544 200 c 1,754,755
 569 60 569 60 574 59 c 2,756,-1
 595 59 l 1,757,758
 610 206 610 206 616 206 c 1,759,760
 639 76 639 76 639 59 c 1,761,-1
 663 59 l 2,762,763
 669 59 669 59 696 270 c 1,764,-1
 708 294 l 1,765,-1
 722 294 l 1,766,-1
 722 317 l 1,767,-1
 720 317 l 1,768,769
 690 298 690 298 690 235 c 1,770,771
 684 235 684 235 684 194 c 1,772,-1
 678 194 l 1,773,-1
 672 200 l 1,774,775
 672 209 672 209 684 282 c 0,776,777
 684 296 684 296 660 317 c 1,778,-1
 657 317 l 1,779,-1
 657 294 l 1,780,-1
 672 294 l 2,781,782
 678 292 678 292 678 282 c 2,783,-1
 663 165 l 1,784,-1
 657 165 l 1,785,786
 657 169 657 169 654 200 c 1,787,788
 649 194 649 194 642 194 c 1,789,-1
 651 171 l 1,790,-1
 651 112 l 1,791,-1
 645 112 l 1,792,793
 645 122 645 122 627 177 c 1,794,-1
 633 194 l 1,795,796
 624 194 624 194 613 229 c 1,797,798
 607 194 607 194 601 194 c 1,799,-1
 598 206 l 1,800,-1
 610 311 l 1,801,-1
 610 317 l 1,802,-1
 607 317 l 1,803,-1
 592 171 l 1,804,-1
 589 171 l 2,805,806
 583 171 583 171 583 194 c 1,807,-1
 571 194 l 1,808,-1
 580 171 l 1,809,810
 577 139 577 139 577 118 c 1,811,-1
 571 118 l 1,812,-1
 556 183 l 1,813,814
 562 183 562 183 562 194 c 1,815,816
 547 194 547 194 535 288 c 1,817,-1
 511 317 l 1,818,-1
 509 317 l 1,751,-1
562 294 m 2,819,-1
 574 218 l 1,820,-1
 577 218 l 1,821,-1
 577 223 l 1,822,823
 568 263 568 263 568 288 c 1,824,825
 583 296 583 296 583 305 c 2,826,-1
 583 317 l 1,827,828
 562 299 562 299 562 294 c 2,819,-1
857 270 m 2,829,-1
 857 200 l 1,830,-1
 859 200 l 1,831,832
 873 210 873 210 880 235 c 1,833,-1
 877 235 l 1,834,835
 877 226 877 226 865 212 c 1,836,-1
 859 212 l 1,837,-1
 859 276 l 2,838,839
 859 294 859 294 880 294 c 1,840,-1
 880 317 l 1,841,842
 857 301 857 301 857 270 c 2,829,-1
892 317 m 1,843,-1
 892 294 l 1,844,845
 901 294 901 294 913 288 c 1,846,-1
 913 294 l 2,847,848
 913 301 913 301 895 317 c 1,849,-1
 892 317 l 1,843,-1
1011 317 m 1,850,-1
 1011 305 l 1,851,852
 1032 283 1032 283 1032 276 c 2,853,-1
 1032 94 l 2,854,855
 1032 76 1032 76 1011 76 c 1,856,-1
 1011 59 l 1,857,-1
 1088 59 l 1,858,-1
 1088 76 l 1,859,860
 1068 76 1068 76 1068 94 c 2,861,-1
 1068 159 l 2,862,863
 1068 171 1068 171 1074 171 c 2,864,-1
 1115 171 l 2,865,866
 1121 169 1121 169 1121 159 c 2,867,-1
 1121 94 l 2,868,869
 1121 87 1121 87 1100 65 c 1,870,-1
 1100 59 l 1,871,-1
 1181 59 l 1,872,-1
 1181 76 l 1,873,874
 1160 76 1160 76 1160 94 c 2,875,-1
 1160 276 l 2,876,877
 1160 294 1160 294 1181 294 c 1,878,-1
 1181 317 l 1,879,-1
 1178 317 l 1,880,881
 1154 303 1154 303 1154 253 c 2,882,-1
 1154 200 l 2,883,884
 1154 188 1154 188 1145 188 c 1,885,-1
 1151 171 l 1,886,887
 1145 134 1145 134 1145 112 c 1,888,-1
 1139 112 l 1,889,890
 1133 159 1133 159 1133 171 c 2,891,-1
 1139 188 l 1,892,-1
 1053 188 l 1,893,-1
 1058 171 l 1,894,895
 1058 156 1058 156 1053 118 c 1,896,-1
 1047 118 l 1,897,898
 1047 130 1047 130 1041 177 c 1,899,900
 1047 177 1047 177 1047 188 c 1,901,902
 1038 188 1038 188 1038 200 c 2,903,-1
 1038 253 l 2,904,905
 1038 303 1038 303 1014 317 c 1,906,-1
 1011 317 l 1,850,-1
1064 270 m 2,907,-1
 1064 200 l 1,908,-1
 1127 200 l 1,909,-1
 1127 270 l 2,910,911
 1127 301 1127 301 1104 317 c 1,912,-1
 1100 317 l 1,913,-1
 1100 305 l 1,914,915
 1121 283 1121 283 1121 276 c 2,916,-1
 1121 223 l 2,917,918
 1121 212 1121 212 1115 212 c 1,919,-1
 1115 253 l 1,920,921
 1098 253 1098 253 1098 218 c 1,922,923
 1100 218 1100 218 1100 212 c 1,924,-1
 1068 212 l 1,925,-1
 1068 276 l 2,926,927
 1068 283 1068 283 1088 305 c 1,928,-1
 1088 317 l 1,929,-1
 1086 317 l 1,930,931
 1064 299 1064 299 1064 270 c 2,907,-1
1281 317 m 1,932,933
 1237 76 1237 76 1216 76 c 2,934,-1
 1213 76 l 1,935,-1
 1213 59 l 1,936,-1
 1281 59 l 1,937,-1
 1281 76 l 1,938,939
 1270 76 1270 76 1264 100 c 1,940,-1
 1264 106 l 2,941,942
 1266 141 1266 141 1273 141 c 2,943,-1
 1309 141 l 2,944,945
 1315 139 1315 139 1315 130 c 2,946,-1
 1315 94 l 1,947,948
 1311 76 1311 76 1297 76 c 1,949,-1
 1297 59 l 1,950,-1
 1377 59 l 1,951,-1
 1377 76 l 1,952,953
 1351 76 1351 76 1317 299 c 0,954,955
 1315 299 1315 299 1315 311 c 1,956,-1
 1311 311 l 1,957,-1
 1311 299 l 1,958,-1
 1333 194 l 1,959,-1
 1327 188 l 1,960,961
 1327 194 1327 194 1323 194 c 1,962,-1
 1323 188 l 1,963,-1
 1333 165 l 1,964,-1
 1333 118 l 1,965,966
 1328 118 1328 118 1311 171 c 1,967,-1
 1317 188 l 1,968,-1
 1311 194 l 1,969,970
 1311 188 1311 188 1309 188 c 0,971,972
 1295 270 1295 270 1291 270 c 1,973,974
 1291 254 1291 254 1285 235 c 1,975,-1
 1285 229 l 1,976,-1
 1287 229 l 1,977,-1
 1287 241 l 1,978,979
 1296 241 1296 241 1303 183 c 1,980,-1
 1297 177 l 1,981,-1
 1279 177 l 1,982,-1
 1279 194 l 1,983,-1
 1273 188 l 1,984,-1
 1267 194 l 1,985,986
 1267 188 1267 188 1264 188 c 1,987,988
 1264 194 1264 194 1261 194 c 1,989,-1
 1285 311 l 1,990,-1
 1285 317 l 1,991,-1
 1281 317 l 1,932,933
1392 317 m 1,992,-1
 1392 212 l 1,993,-1
 1398 212 l 1,994,-1
 1395 223 l 1,995,-1
 1395 317 l 1,996,-1
 1392 317 l 1,992,-1
1526 317 m 1,997,-1
 1526 212 l 1,998,-1
 1532 212 l 1,999,-1
 1532 317 l 1,1000,-1
 1526 317 l 1,997,-1
1722 276 m 2,1001,-1
 1722 200 l 1,1002,-1
 1725 200 l 1,1003,-1
 1725 282 l 1,1004,1005
 1732 294 1732 294 1746 294 c 1,1006,-1
 1746 317 l 1,1007,-1
 1743 317 l 1,1008,1009
 1722 298 1722 298 1722 276 c 2,1001,-1
1758 317 m 1,1010,-1
 1758 294 l 1,1011,1012
 1767 294 1767 294 1778 288 c 1,1013,-1
 1778 294 l 2,1014,1015
 1778 301 1778 301 1760 317 c 1,1016,-1
 1758 317 l 1,1010,-1
1930 270 m 2,1017,-1
 1930 200 l 1,1018,-1
 1993 200 l 1,1019,-1
 1993 270 l 2,1020,1021
 1993 301 1993 301 1969 317 c 1,1022,-1
 1966 317 l 1,1023,-1
 1966 294 l 1,1024,1025
 1987 294 1987 294 1987 276 c 2,1026,-1
 1987 212 l 1,1027,-1
 1975 206 l 1,1028,-1
 1975 212 l 1,1029,1030
 1971 212 1971 212 1971 206 c 1,1031,-1
 1957 212 l 1,1032,-1
 1933 212 l 1,1033,-1
 1933 276 l 2,1034,1035
 1933 294 1933 294 1954 294 c 1,1036,-1
 1954 317 l 1,1037,1038
 1930 301 1930 301 1930 270 c 2,1017,-1
2079 76 m 1,1039,-1
 2079 59 l 1,1040,-1
 2147 59 l 1,1041,-1
 2147 76 l 1,1042,1043
 2135 76 2135 76 2129 100 c 1,1044,-1
 2129 106 l 2,1045,1046
 2131 141 2131 141 2138 141 c 2,1047,-1
 2174 141 l 2,1048,1049
 2180 139 2180 139 2180 130 c 2,1050,-1
 2180 94 l 2,1051,1052
 2180 82 2180 82 2162 76 c 1,1053,-1
 2162 59 l 1,1054,-1
 2242 59 l 1,1055,-1
 2242 76 l 1,1056,1057
 2216 76 2216 76 2182 299 c 0,1058,1059
 2180 299 2180 299 2180 311 c 1,1060,-1
 2177 311 l 1,1061,-1
 2177 299 l 1,1062,-1
 2198 194 l 1,1063,-1
 2192 188 l 1,1064,1065
 2192 194 2192 194 2188 194 c 1,1066,-1
 2188 188 l 1,1067,-1
 2198 165 l 1,1068,-1
 2198 118 l 1,1069,1070
 2195 118 2195 118 2177 171 c 1,1071,-1
 2182 188 l 1,1072,-1
 2177 194 l 1,1073,1074
 2177 188 2177 188 2174 188 c 0,1075,1076
 2160 270 2160 270 2156 270 c 1,1077,1078
 2156 254 2156 254 2150 235 c 1,1079,-1
 2150 229 l 1,1080,-1
 2153 229 l 1,1081,-1
 2153 241 l 1,1082,1083
 2161 241 2161 241 2168 183 c 1,1084,-1
 2162 177 l 1,1085,-1
 2144 177 l 1,1086,-1
 2144 194 l 1,1087,-1
 2138 188 l 1,1088,-1
 2132 188 l 1,1089,-1
 2126 194 l 1,1090,1091
 2150 307 2150 307 2150 317 c 1,1092,1093
 2147 317 2147 317 2103 106 c 1,1094,1095
 2091 76 2091 76 2079 76 c 1,1039,-1
2257 317 m 1,1096,-1
 2257 218 l 1,1097,-1
 2260 218 l 1,1098,-1
 2260 317 l 1,1099,-1
 2257 317 l 1,1096,-1
2391 317 m 1,1100,-1
 2391 212 l 1,1101,1102
 2397 212 2397 212 2397 223 c 2,1103,-1
 2397 317 l 1,1104,-1
 2391 317 l 1,1100,-1
2435 317 m 1,1105,-1
 2435 294 l 1,1106,1107
 2457 294 2457 294 2457 276 c 2,1108,-1
 2457 94 l 2,1109,1110
 2457 76 2457 76 2435 76 c 1,1111,-1
 2435 59 l 1,1112,-1
 2513 59 l 1,1113,-1
 2513 76 l 1,1114,1115
 2492 76 2492 76 2492 94 c 2,1116,-1
 2492 276 l 2,1117,1118
 2492 294 2492 294 2513 294 c 1,1119,-1
 2513 317 l 1,1120,-1
 2510 317 l 1,1121,1122
 2489 293 2489 293 2489 282 c 2,1123,-1
 2489 200 l 2,1124,1125
 2489 188 2489 188 2477 188 c 1,1126,1127
 2483 174 2483 174 2483 165 c 0,1128,1129
 2477 127 2477 127 2477 112 c 1,1130,-1
 2471 112 l 1,1131,1132
 2471 119 2471 119 2465 177 c 1,1133,1134
 2471 177 2471 177 2471 188 c 1,1135,1136
 2462 188 2462 188 2462 200 c 2,1137,-1
 2462 229 l 2,1138,1139
 2462 304 2462 304 2439 317 c 1,1140,-1
 2435 317 l 1,1105,-1
2629 317 m 1,1141,-1
 2629 294 l 1,1142,1143
 2650 294 2650 294 2650 276 c 2,1144,-1
 2650 94 l 2,1145,1146
 2650 76 2650 76 2629 76 c 1,1147,-1
 2629 59 l 1,1148,-1
 2706 59 l 1,1149,-1
 2706 76 l 1,1150,1151
 2685 76 2685 76 2685 94 c 2,1152,-1
 2685 276 l 2,1153,1154
 2685 294 2685 294 2706 294 c 1,1155,-1
 2706 317 l 1,1156,-1
 2703 317 l 1,1157,1158
 2682 293 2682 293 2682 282 c 2,1159,-1
 2682 200 l 2,1160,1161
 2682 188 2682 188 2670 188 c 1,1162,1163
 2676 174 2676 174 2676 165 c 0,1164,1165
 2670 128 2670 128 2670 106 c 1,1166,-1
 2664 106 l 1,1167,-1
 2659 177 l 1,1168,1169
 2664 177 2664 177 2664 188 c 1,1170,1171
 2656 188 2656 188 2656 200 c 2,1172,-1
 2656 247 l 2,1173,1174
 2656 299 2656 299 2632 317 c 1,1175,-1
 2629 317 l 1,1141,-1
137 311 m 1,1176,-1
 137 299 l 1,1177,1178
 151 223 151 223 151 206 c 1,1179,-1
 155 206 l 1,1180,-1
 155 218 l 1,1181,1182
 140 294 140 294 140 311 c 1,1183,-1
 137 311 l 1,1176,-1
384 311 m 1,1184,-1
 384 299 l 1,1185,1186
 398 223 398 223 398 206 c 1,1187,-1
 402 206 l 1,1188,-1
 402 218 l 1,1189,1190
 386 294 386 294 386 311 c 1,1191,-1
 384 311 l 1,1184,-1
633 311 m 1,1192,-1
 633 299 l 1,1193,1194
 648 223 648 223 648 206 c 1,1195,-1
 651 206 l 1,1196,-1
 651 218 l 1,1197,1198
 637 294 637 294 637 311 c 1,1199,-1
 633 311 l 1,1192,-1
1401 212 m 1,1200,-1
 1410 212 l 1,1201,-1
 1410 247 l 2,1202,1203
 1410 278 1410 278 1422 288 c 1,1204,-1
 1434 288 l 2,1205,1206
 1437 288 1437 288 1442 270 c 1,1207,-1
 1442 94 l 2,1208,1209
 1442 76 1442 76 1422 76 c 1,1210,-1
 1422 59 l 1,1211,-1
 1502 59 l 1,1212,-1
 1502 76 l 1,1213,-1
 1487 76 l 1,1214,1215
 1478 80 1478 80 1478 124 c 2,1216,-1
 1478 247 l 2,1217,1218
 1478 278 1478 278 1490 288 c 1,1219,-1
 1502 288 l 2,1220,1221
 1511 288 1511 288 1511 264 c 1,1222,-1
 1514 264 l 1,1223,-1
 1514 270 l 1,1224,1225
 1510 299 1510 299 1493 299 c 2,1226,-1
 1487 299 l 2,1227,1228
 1482 299 1482 299 1475 276 c 1,1229,-1
 1475 200 l 2,1230,1231
 1475 188 1475 188 1469 188 c 1,1232,1233
 1469 194 1469 194 1466 194 c 1,1234,-1
 1466 188 l 1,1235,-1
 1472 171 l 1,1236,1237
 1463 131 1463 131 1463 106 c 1,1238,-1
 1457 106 l 1,1239,-1
 1457 124 l 2,1240,1241
 1457 129 1457 129 1451 171 c 1,1242,-1
 1457 188 l 1,1243,1244
 1451 194 1451 194 1448 194 c 1,1245,-1
 1448 229 l 2,1246,1247
 1448 299 1448 299 1428 299 c 0,1248,1249
 1406 299 1406 299 1401 212 c 1,1200,-1
2269 229 m 2,1250,-1
 2269 218 l 1,1251,-1
 2263 218 l 1,1252,-1
 2263 212 l 1,1253,-1
 2275 212 l 1,1254,-1
 2275 247 l 2,1255,1256
 2275 278 2275 278 2287 288 c 1,1257,-1
 2299 288 l 2,1258,1259
 2303 288 2303 288 2308 270 c 1,1260,-1
 2308 94 l 2,1261,1262
 2308 76 2308 76 2287 76 c 1,1263,-1
 2287 59 l 1,1264,-1
 2367 59 l 1,1265,-1
 2367 76 l 1,1266,-1
 2352 76 l 1,1267,1268
 2343 80 2343 80 2343 124 c 2,1269,-1
 2343 235 l 2,1270,1271
 2343 280 2343 280 2355 288 c 1,1272,-1
 2367 288 l 2,1273,1274
 2376 288 2376 288 2376 264 c 1,1275,-1
 2379 264 l 1,1276,-1
 2379 270 l 1,1277,1278
 2375 299 2375 299 2358 299 c 2,1279,-1
 2352 299 l 2,1280,1281
 2348 299 2348 299 2340 276 c 1,1282,-1
 2340 200 l 2,1283,1284
 2340 188 2340 188 2331 188 c 1,1285,-1
 2337 171 l 1,1286,1287
 2329 130 2329 130 2329 112 c 1,1288,-1
 2323 112 l 1,1289,1290
 2323 128 2323 128 2317 177 c 1,1291,1292
 2323 177 2323 177 2323 188 c 2,1293,-1
 2323 194 l 1,1294,-1
 2317 188 l 1,1295,-1
 2314 200 l 1,1296,-1
 2314 229 l 2,1297,1298
 2314 299 2314 299 2293 299 c 0,1299,1300
 2269 299 2269 299 2269 229 c 2,1250,-1
2795 276 m 2,1301,-1
 2795 200 l 1,1302,-1
 2837 200 l 1,1303,-1
 2837 206 l 1,1304,-1
 2834 218 l 1,1305,1306
 2839 223 2839 223 2846 223 c 1,1307,-1
 2846 229 l 2,1308,1309
 2846 241 2846 241 2840 241 c 2,1310,-1
 2837 241 l 2,1311,1312
 2832 241 2832 241 2828 223 c 1,1313,-1
 2831 212 l 1,1314,1315
 2824 212 2824 212 2807 206 c 1,1316,1317
 2807 212 2807 212 2805 212 c 1,1318,1319
 2805 206 2805 206 2801 206 c 2,1320,-1
 2799 218 l 1,1321,-1
 2799 270 l 2,1322,1323
 2799 281 2799 281 2825 288 c 1,1324,-1
 2831 282 l 1,1325,-1
 2837 288 l 1,1326,-1
 2855 270 l 1,1327,-1
 2855 276 l 1,1328,1329
 2844 294 2844 294 2828 294 c 2,1330,-1
 2813 294 l 1,1331,1332
 2795 290 2795 290 2795 276 c 2,1301,-1
2884 294 m 1,1333,-1
 2884 288 l 1,1334,1335
 2890 269 2890 269 2890 253 c 2,1336,-1
 2890 247 l 2,1337,1338
 2890 226 2890 226 2879 200 c 1,1339,-1
 2882 200 l 2,1340,1341
 2890 200 2890 200 2896 253 c 1,1342,1343
 2888 288 2888 288 2888 294 c 1,1344,-1
 2884 294 l 1,1333,-1
2736 282 m 1,1345,1346
 2736 241 2736 241 2718 241 c 1,1347,-1
 2715 200 l 1,1348,-1
 2715 82 l 2,1349,1350
 2715 75 2715 75 2736 47 c 1,1351,1352
 2736 94 2736 94 2753 94 c 1,1353,-1
 2757 130 l 1,1354,-1
 2757 253 l 1,1355,-1
 2753 282 l 1,1356,-1
 2736 282 l 1,1345,1346
54 270 m 1,1357,-1
 54 229 l 2,1358,1359
 54 221 54 221 68 200 c 1,1360,-1
 72 229 l 1,1361,-1
 54 270 l 1,1357,-1
128 264 m 1,1362,-1
 128 229 l 2,1363,1364
 128 220 128 220 140 206 c 1,1365,-1
 143 235 l 1,1366,1367
 141 235 141 235 128 264 c 1,1362,-1
300 264 m 1,1368,-1
 300 259 l 1,1369,-1
 303 247 l 1,1370,1371
 300 236 300 236 300 223 c 1,1372,1373
 313 200 313 200 315 200 c 2,1374,-1
 318 229 l 1,1375,1376
 312 229 312 229 306 264 c 1,1377,-1
 300 264 l 1,1368,-1
374 264 m 1,1378,-1
 374 229 l 2,1379,1380
 374 220 374 220 386 206 c 1,1381,-1
 390 235 l 1,1382,1383
 388 235 388 235 374 264 c 1,1378,-1
550 264 m 1,1384,-1
 550 229 l 2,1385,1386
 550 221 550 221 565 200 c 1,1387,-1
 568 229 l 1,1388,1389
 562 229 562 229 556 264 c 1,1390,-1
 550 264 l 1,1384,-1
625 264 m 1,1391,-1
 625 229 l 2,1392,1393
 625 220 625 220 637 206 c 1,1394,-1
 639 235 l 1,1395,1396
 637 235 637 235 625 264 c 1,1391,-1
1305 264 m 1,1397,-1
 1305 218 l 1,1398,1399
 1317 218 1317 218 1317 194 c 1,1400,-1
 1321 194 l 1,1401,-1
 1321 223 l 1,1402,1403
 1309 253 1309 253 1309 264 c 1,1404,-1
 1305 264 l 1,1397,-1
2171 264 m 1,1405,-1
 2171 218 l 1,1406,1407
 2182 218 2182 218 2182 194 c 1,1408,-1
 2186 194 l 1,1409,-1
 2186 223 l 1,1410,1411
 2174 253 2174 253 2174 264 c 1,1412,-1
 2171 264 l 1,1405,-1
2873 264 m 1,1413,1414
 2873 242 2873 242 2861 200 c 1,1415,1416
 2876 218 2876 218 2882 218 c 1,1417,-1
 2882 223 l 1,1418,-1
 2876 264 l 1,1419,-1
 2873 264 l 1,1413,1414
842 259 m 1,1420,1421
 836 227 836 227 836 223 c 0,1422,1423
 840 200 840 200 845 200 c 1,1424,1425
 845 209 845 209 851 223 c 1,1426,1427
 845 243 845 243 845 259 c 1,1428,-1
 842 259 l 1,1420,1421
1050 259 m 1,1429,1430
 1050 244 1050 244 1041 218 c 1,1431,-1
 1053 200 l 1,1432,1433
 1053 209 1053 209 1058 223 c 1,1434,1435
 1053 243 1053 243 1053 259 c 1,1436,-1
 1050 259 l 1,1429,1430
1139 259 m 1,1437,-1
 1133 218 l 1,1438,1439
 1139 218 1139 218 1139 200 c 1,1440,1441
 1143 200 1143 200 1151 223 c 1,1442,1443
 1145 223 1145 223 1142 259 c 1,1444,-1
 1139 259 l 1,1437,-1
1460 259 m 1,1445,1446
 1460 247 1460 247 1451 218 c 1,1447,-1
 1463 200 l 1,1448,1449
 1463 209 1463 209 1469 223 c 1,1450,1451
 1463 243 1463 243 1463 259 c 1,1452,-1
 1460 259 l 1,1445,1446
1514 259 m 1,1453,-1
 1514 212 l 1,1454,-1
 1520 212 l 1,1455,1456
 1517 218 1517 218 1517 259 c 1,1457,-1
 1514 259 l 1,1453,-1
1707 259 m 1,1458,-1
 1701 223 l 1,1459,1460
 1706 200 1706 200 1710 200 c 1,1461,1462
 1710 209 1710 209 1716 223 c 1,1463,1464
 1710 243 1710 243 1710 259 c 1,1465,-1
 1707 259 l 1,1458,-1
1915 259 m 1,1466,1467
 1915 244 1915 244 1906 218 c 1,1468,-1
 1918 200 l 1,1469,1470
 1918 209 1918 209 1924 223 c 1,1471,1472
 1918 243 1918 243 1918 259 c 1,1473,-1
 1915 259 l 1,1466,1467
2005 259 m 1,1474,-1
 1999 218 l 1,1475,1476
 2005 218 2005 218 2005 200 c 1,1477,1478
 2009 200 2009 200 2016 223 c 1,1479,1480
 2010 223 2010 223 2007 259 c 1,1481,-1
 2005 259 l 1,1474,-1
2325 259 m 1,1482,1483
 2325 247 2325 247 2317 218 c 1,1484,-1
 2329 200 l 1,1485,1486
 2329 209 2329 209 2335 223 c 1,1487,1488
 2329 243 2329 243 2329 259 c 1,1489,-1
 2325 259 l 1,1482,1483
2379 259 m 1,1490,-1
 2379 212 l 1,1491,-1
 2388 212 l 1,1492,1493
 2382 223 2382 223 2382 259 c 1,1494,-1
 2379 259 l 1,1490,-1
2474 259 m 1,1495,1496
 2474 244 2474 244 2465 218 c 1,1497,-1
 2477 200 l 1,1498,1499
 2477 209 2477 209 2483 223 c 1,1500,1501
 2477 243 2477 243 2477 259 c 1,1502,-1
 2474 259 l 1,1495,1496
2668 259 m 1,1503,1504
 2668 244 2668 244 2659 218 c 1,1505,-1
 2670 200 l 1,1506,1507
 2670 209 2670 209 2676 223 c 1,1508,1509
 2670 243 2670 243 2670 259 c 1,1510,-1
 2668 259 l 1,1503,1504
2781 259 m 1,1511,-1
 2775 218 l 2,1512,1513
 2775 209 2775 209 2783 200 c 1,1514,1515
 2783 209 2783 209 2789 223 c 1,1516,1517
 2783 243 2783 243 2783 259 c 1,1518,-1
 2781 259 l 1,1511,-1
1963 218 m 1,1519,-1
 1981 218 l 1,1520,-1
 1981 253 l 1,1521,1522
 1963 253 1963 253 1963 218 c 1,1519,-1
2858 253 m 1,1523,1524
 2858 212 2858 212 2840 212 c 1,1525,-1
 2840 206 l 1,1526,-1
 2843 206 l 2,1527,1528
 2852 206 2852 206 2861 241 c 1,1529,-1
 2861 253 l 1,1530,-1
 2858 253 l 1,1523,1524
877 206 m 2,1531,-1
 877 200 l 1,1532,1533
 902 219 902 219 907 247 c 1,1534,-1
 904 247 l 1,1535,1536
 878 216 878 216 877 206 c 2,1531,-1
1743 206 m 2,1537,-1
 1743 200 l 1,1538,1539
 1768 219 1768 219 1772 247 c 1,1540,-1
 1769 247 l 1,1541,1542
 1743 216 1743 216 1743 206 c 2,1537,-1
1743 235 m 1,1543,1544
 1736 212 1736 212 1728 212 c 1,1545,-1
 1728 206 l 1,1546,-1
 1734 206 l 1,1547,1548
 1734 209 1734 209 1746 235 c 1,1549,-1
 1743 235 l 1,1543,1544
1281 223 m 1,1550,1551
 1281 217 1281 217 1279 206 c 2,1552,-1
 1279 200 l 1,1553,-1
 1281 200 l 1,1554,1555
 1281 206 1281 206 1285 218 c 1,1556,-1
 1285 223 l 1,1557,-1
 1281 223 l 1,1550,1551
2147 223 m 1,1558,1559
 2147 217 2147 217 2144 206 c 2,1560,-1
 2144 200 l 1,1561,-1
 2147 200 l 1,1562,1563
 2147 206 2147 206 2150 218 c 2,1564,-1
 2150 223 l 1,1565,-1
 2147 223 l 1,1558,1559
1579 206 m 1,1566,-1
 1579 165 l 1,1567,-1
 1641 165 l 1,1568,-1
 1641 206 l 1,1569,-1
 1645 206 l 2,1570,1571
 1649 206 1649 206 1659 177 c 1,1572,-1
 1659 147 l 2,1573,1574
 1659 135 1659 135 1653 135 c 2,1575,-1
 1588 135 l 1,1576,1577
 1574 151 1574 151 1573 159 c 2,1578,-1
 1573 194 l 2,1579,1580
 1574 206 1574 206 1579 206 c 1,1566,-1
1591 188 m 1,1581,-1
 1635 188 l 1,1582,-1
 1635 183 l 2,1583,1584
 1635 171 1635 171 1629 171 c 2,1585,-1
 1591 171 l 2,1586,1587
 1585 171 1585 171 1585 183 c 1,1588,-1
 1591 188 l 1,1581,-1
1098 130 m 1,1589,-1
 1098 88 l 1,1590,-1
 1112 88 l 1,1591,-1
 1115 118 l 1,1592,-1
 1115 130 l 1,1593,-1
 1098 130 l 1,1589,-1
1963 130 m 1,1594,-1
 1963 82 l 1,1595,1596
 1981 82 1981 82 1981 118 c 2,1597,-1
 1981 130 l 1,1598,-1
 1963 130 l 1,1594,-1
732 112 m 1,1599,-1
 738 112 l 1,1600,-1
 738 100 l 1,1601,1602
 726 100 726 100 726 70 c 1,1603,1604
 736 53 736 53 746 53 c 0,1605,1606
 751 53 751 53 762 76 c 1,1607,1608
 762 87 762 87 744 112 c 1,1609,-1
 752 112 l 1,1610,1611
 788 94 788 94 788 47 c 2,1612,-1
 788 30 l 2,1613,1614
 785 12 785 12 770 12 c 2,1615,-1
 758 12 l 1,1616,1617
 720 27 720 27 720 76 c 2,1618,-1
 720 88 l 2,1619,1620
 720 98 720 98 732 112 c 1,1599,-1
2560 112 m 1,1621,-1
 2582 112 l 1,1622,1623
 2617 94 2617 94 2617 47 c 2,1624,-1
 2617 30 l 2,1625,1626
 2614 12 2614 12 2599 12 c 2,1627,-1
 2587 12 l 1,1628,1629
 2548 27 2548 27 2548 76 c 2,1630,-1
 2548 88 l 2,1631,1632
 2548 98 2548 98 2560 112 c 1,1621,-1
2554 70 m 1,1633,1634
 2566 53 2566 53 2576 53 c 1,1635,1636
 2589 64 2589 64 2590 76 c 0,1637,1638
 2585 106 2585 106 2570 106 c 1,1639,1640
 2554 96 2554 96 2554 70 c 1,1633,1634
1143 1416 m 1,1641,-1
 1153 1416 l 1,1642,-1
 1153 1407 l 1,1643,-1
 1143 1407 l 1,1644,-1
 1143 1403 l 1,1645,-1
 1130 1403 l 1,1646,-1
 1130 1398 l 1,1647,-1
 1117 1398 l 1,1648,-1
 1117 1394 l 1,1649,-1
 1104 1394 l 1,1650,-1
 1104 1389 l 1,1651,-1
 1090 1389 l 1,1652,-1
 1090 1385 l 1,1653,-1
 1077 1385 l 1,1654,-1
 1077 1380 l 1,1655,-1
 1064 1380 l 1,1656,-1
 1064 1376 l 1,1657,-1
 1046 1376 l 1,1658,-1
 1046 1372 l 1,1659,-1
 1037 1372 l 1,1660,-1
 1037 1376 l 1,1661,-1
 1042 1376 l 1,1662,-1
 1042 1380 l 1,1663,-1
 1050 1380 l 1,1664,-1
 1050 1385 l 1,1665,-1
 1059 1385 l 1,1666,-1
 1059 1389 l 1,1667,-1
 1072 1389 l 1,1668,-1
 1072 1394 l 1,1669,-1
 1086 1394 l 1,1670,-1
 1086 1398 l 1,1671,-1
 1099 1398 l 1,1672,-1
 1099 1403 l 1,1673,-1
 1113 1403 l 1,1674,-1
 1113 1407 l 1,1675,-1
 1130 1407 l 1,1676,-1
 1130 1412 l 1,1677,-1
 1143 1412 l 1,1678,-1
 1143 1416 l 1,1641,-1
1077 1349 m 1,1679,-1
 1090 1349 l 1,1680,-1
 1090 1345 l 1,1681,-1
 1099 1345 l 1,1682,-1
 1099 1341 l 1,1683,-1
 1104 1341 l 1,1684,-1
 1104 1336 l 1,1685,-1
 1117 1336 l 1,1686,-1
 1117 1341 l 1,1687,-1
 1126 1341 l 1,1688,-1
 1126 1345 l 1,1689,-1
 1130 1345 l 1,1690,-1
 1130 1349 l 1,1691,-1
 1143 1349 l 1,1692,-1
 1143 1345 l 1,1693,-1
 1153 1345 l 1,1694,-1
 1153 1341 l 1,1695,-1
 1157 1341 l 1,1696,-1
 1157 1336 l 1,1697,-1
 1161 1336 l 1,1698,-1
 1161 1327 l 1,1699,-1
 1157 1327 l 1,1700,-1
 1157 1319 l 1,1701,-1
 1153 1319 l 1,1702,-1
 1153 1314 l 1,1703,-1
 1139 1314 l 1,1704,-1
 1139 1319 l 1,1705,-1
 1130 1319 l 1,1706,-1
 1130 1323 l 1,1707,-1
 1126 1323 l 1,1708,-1
 1126 1327 l 1,1709,-1
 1108 1327 l 1,1710,-1
 1108 1323 l 1,1711,-1
 1104 1323 l 1,1712,-1
 1104 1319 l 1,1713,-1
 1099 1319 l 1,1714,-1
 1099 1314 l 1,1715,-1
 1082 1314 l 1,1716,-1
 1082 1319 l 1,1717,-1
 1077 1319 l 1,1718,-1
 1077 1323 l 1,1719,-1
 1072 1323 l 1,1720,-1
 1072 1327 l 1,1721,-1
 1068 1327 l 1,1722,-1
 1068 1341 l 1,1723,-1
 1072 1341 l 1,1724,-1
 1072 1345 l 1,1725,-1
 1077 1345 l 1,1726,-1
 1077 1349 l 1,1679,-1
1002 1305 m 1,1727,-1
 1011 1305 l 1,1728,-1
 1011 1301 l 1,1729,-1
 1015 1301 l 1,1730,-1
 1015 1296 l 1,1731,-1
 1019 1296 l 1,1732,-1
 1019 1292 l 1,1733,-1
 1024 1292 l 1,1734,-1
 1024 1287 l 1,1735,-1
 1028 1287 l 1,1736,-1
 1028 1279 l 1,1737,-1
 1024 1279 l 1,1738,-1
 1024 1274 l 1,1739,-1
 1019 1274 l 1,1740,-1
 1019 1270 l 1,1741,-1
 1015 1270 l 1,1742,-1
 1015 1266 l 1,1743,-1
 1006 1266 l 1,1744,-1
 1006 1270 l 1,1745,-1
 997 1270 l 1,1746,-1
 997 1274 l 1,1747,-1
 993 1274 l 1,1748,-1
 993 1283 l 1,1749,-1
 989 1283 l 1,1750,-1
 989 1287 l 1,1751,-1
 993 1287 l 1,1752,-1
 993 1296 l 1,1753,-1
 997 1296 l 1,1754,-1
 997 1301 l 1,1755,-1
 1002 1301 l 1,1756,-1
 1002 1305 l 1,1727,-1
908 1287 m 1,1757,-1
 913 1287 l 1,1758,-1
 913 1283 l 1,1759,-1
 918 1283 l 1,1760,-1
 918 1279 l 1,1761,-1
 922 1279 l 1,1762,-1
 922 1274 l 1,1763,-1
 935 1274 l 1,1764,-1
 935 1270 l 1,1765,-1
 931 1270 l 1,1766,-1
 931 1261 l 1,1767,-1
 926 1261 l 1,1768,-1
 926 1256 l 1,1769,-1
 918 1256 l 1,1770,-1
 918 1261 l 1,1771,-1
 913 1261 l 1,1772,-1
 913 1266 l 1,1773,-1
 908 1266 l 1,1774,-1
 908 1274 l 1,1775,-1
 904 1274 l 1,1776,-1
 904 1283 l 1,1777,-1
 908 1283 l 1,1778,-1
 908 1287 l 1,1757,-1
1188 1287 m 1,1779,-1
 1196 1287 l 1,1780,-1
 1196 1283 l 1,1781,-1
 1201 1283 l 1,1782,-1
 1201 1274 l 1,1783,-1
 1206 1274 l 1,1784,-1
 1206 1270 l 1,1785,-1
 1210 1270 l 1,1786,-1
 1210 1266 l 1,1787,-1
 1214 1266 l 1,1788,-1
 1214 1238 l 1,1789,-1
 1219 1238 l 1,1790,-1
 1219 1230 l 1,1791,-1
 1223 1230 l 1,1792,-1
 1223 1225 l 1,1793,-1
 1228 1225 l 1,1794,-1
 1228 1208 l 1,1795,-1
 1232 1208 l 1,1796,-1
 1232 1177 l 1,1797,-1
 1228 1177 l 1,1798,-1
 1228 1163 l 1,1799,-1
 1223 1163 l 1,1800,-1
 1223 1155 l 1,1801,-1
 1219 1155 l 1,1802,-1
 1219 1150 l 1,1803,-1
 1210 1150 l 1,1804,-1
 1210 1145 l 1,1805,-1
 1206 1145 l 1,1806,-1
 1206 1141 l 1,1807,-1
 1196 1141 l 1,1808,-1
 1196 1137 l 1,1809,-1
 1183 1137 l 1,1810,-1
 1183 1132 l 1,1811,-1
 1175 1132 l 1,1812,-1
 1175 1128 l 1,1813,-1
 1157 1128 l 1,1814,-1
 1157 1123 l 1,1815,-1
 1143 1123 l 1,1816,-1
 1143 1119 l 1,1817,-1
 1126 1119 l 1,1818,-1
 1126 1115 l 1,1819,-1
 1108 1115 l 1,1820,-1
 1108 1110 l 1,1821,-1
 1086 1110 l 1,1822,-1
 1086 1106 l 1,1823,-1
 1068 1106 l 1,1824,-1
 1068 1101 l 1,1825,-1
 1042 1101 l 1,1826,-1
 1042 1097 l 1,1827,-1
 1019 1097 l 1,1828,-1
 1019 1101 l 1,1829,-1
 1002 1101 l 1,1830,-1
 1002 1106 l 1,1831,-1
 966 1106 l 1,1832,-1
 966 1128 l 1,1833,-1
 961 1128 l 1,1834,-1
 961 1137 l 1,1835,-1
 957 1137 l 1,1836,-1
 957 1145 l 1,1837,-1
 953 1145 l 1,1838,-1
 953 1159 l 1,1839,-1
 948 1159 l 1,1840,-1
 948 1168 l 1,1841,-1
 935 1168 l 1,1842,-1
 935 1163 l 1,1843,-1
 926 1163 l 1,1844,-1
 926 1159 l 1,1845,-1
 922 1159 l 1,1846,-1
 922 1150 l 1,1847,-1
 918 1150 l 1,1848,-1
 918 1145 l 1,1849,-1
 913 1145 l 1,1850,-1
 913 1137 l 1,1851,-1
 908 1137 l 1,1852,-1
 908 1128 l 1,1853,-1
 904 1128 l 1,1854,-1
 904 1123 l 1,1855,-1
 900 1123 l 1,1856,-1
 900 1119 l 1,1857,-1
 895 1119 l 1,1858,-1
 895 1115 l 1,1859,-1
 891 1115 l 1,1860,-1
 891 1110 l 1,1861,-1
 886 1110 l 1,1862,-1
 886 1106 l 1,1863,-1
 882 1106 l 1,1864,-1
 882 1101 l 1,1865,-1
 878 1101 l 1,1866,-1
 878 1097 l 1,1867,-1
 868 1097 l 1,1868,-1
 868 1092 l 1,1869,-1
 865 1092 l 1,1870,-1
 865 1088 l 1,1871,-1
 851 1088 l 1,1872,-1
 851 1084 l 1,1873,-1
 842 1084 l 1,1874,-1
 842 1079 l 1,1875,-1
 833 1079 l 1,1876,-1
 833 1074 l 1,1877,-1
 820 1074 l 1,1878,-1
 820 1070 l 1,1879,-1
 807 1070 l 1,1880,-1
 807 1066 l 1,1881,-1
 797 1066 l 1,1882,-1
 797 1061 l 1,1883,-1
 789 1061 l 1,1884,-1
 789 1057 l 1,1885,-1
 780 1057 l 1,1886,-1
 780 1052 l 1,1887,-1
 776 1052 l 1,1888,-1
 776 1039 l 1,1889,-1
 784 1039 l 1,1890,-1
 784 1034 l 1,1891,-1
 820 1034 l 1,1892,-1
 820 1031 l 1,1893,-1
 926 1031 l 1,1894,-1
 926 1034 l 1,1895,-1
 931 1034 l 1,1896,-1
 931 1052 l 1,1897,-1
 926 1052 l 1,1898,-1
 926 1137 l 1,1899,-1
 931 1137 l 1,1900,-1
 931 1145 l 1,1901,-1
 940 1145 l 1,1902,-1
 940 1137 l 1,1903,-1
 944 1137 l 1,1904,-1
 944 1123 l 1,1905,-1
 948 1123 l 1,1906,-1
 948 1115 l 1,1907,-1
 953 1115 l 1,1908,-1
 953 1034 l 1,1909,-1
 1028 1034 l 1,1910,-1
 1028 1039 l 1,1911,-1
 1032 1039 l 1,1912,-1
 1032 1061 l 1,1913,-1
 1028 1061 l 1,1914,-1
 1028 1066 l 1,1915,-1
 1032 1066 l 1,1916,-1
 1032 1079 l 1,1917,-1
 1037 1079 l 1,1918,-1
 1037 1084 l 1,1919,-1
 1046 1084 l 1,1920,-1
 1046 1074 l 1,1921,-1
 1050 1074 l 1,1922,-1
 1050 1066 l 1,1923,-1
 1055 1066 l 1,1924,-1
 1055 1057 l 1,1925,-1
 1059 1057 l 1,1926,-1
 1059 1034 l 1,1927,-1
 1095 1034 l 1,1928,-1
 1095 1039 l 1,1929,-1
 1192 1039 l 1,1930,-1
 1192 1044 l 1,1931,-1
 1325 1044 l 1,1932,-1
 1325 1034 l 1,1933,-1
 1317 1034 l 1,1934,-1
 1317 1031 l 1,1935,-1
 1294 1031 l 1,1936,-1
 1294 1026 l 1,1937,-1
 1272 1026 l 1,1938,-1
 1272 1021 l 1,1939,-1
 1254 1021 l 1,1940,-1
 1254 1017 l 1,1941,-1
 1232 1017 l 1,1942,-1
 1232 1013 l 1,1943,-1
 1175 1013 l 1,1944,-1
 1175 1008 l 1,1945,-1
 1090 1008 l 1,1946,-1
 1090 1004 l 1,1947,-1
 1059 1004 l 1,1948,-1
 1059 955 l 1,1949,-1
 1064 955 l 1,1950,-1
 1064 920 l 1,1951,-1
 1068 920 l 1,1952,-1
 1068 875 l 1,1953,-1
 1072 875 l 1,1954,-1
 1072 795 l 1,1955,-1
 1068 795 l 1,1956,-1
 1068 778 l 1,1957,-1
 1064 778 l 1,1958,-1
 1064 764 l 1,1959,-1
 1059 764 l 1,1960,-1
 1059 756 l 1,1961,-1
 1055 756 l 1,1962,-1
 1055 751 l 1,1963,-1
 1050 751 l 1,1964,-1
 1050 884 l 1,1965,-1
 1046 884 l 1,1966,-1
 1046 920 l 1,1967,-1
 1042 920 l 1,1968,-1
 1042 977 l 1,1969,-1
 1037 977 l 1,1970,-1
 1037 999 l 1,1971,-1
 1032 999 l 1,1972,-1
 1032 1004 l 1,1973,-1
 1011 1004 l 1,1974,-1
 1011 999 l 1,1975,-1
 961 999 l 1,1976,-1
 961 995 l 1,1977,-1
 957 995 l 1,1978,-1
 957 946 l 1,1979,-1
 961 946 l 1,1980,-1
 961 897 l 1,1981,-1
 966 897 l 1,1982,-1
 966 880 l 1,1983,-1
 971 880 l 1,1984,-1
 971 875 l 1,1985,-1
 993 875 l 1,1986,-1
 993 871 l 1,1987,-1
 1011 871 l 1,1988,-1
 1011 867 l 1,1989,-1
 1019 867 l 1,1990,-1
 1019 862 l 1,1991,-1
 1024 862 l 1,1992,-1
 1024 857 l 1,1993,-1
 1028 857 l 1,1994,-1
 1028 853 l 1,1995,-1
 1032 853 l 1,1996,-1
 1032 849 l 1,1997,-1
 1037 849 l 1,1998,-1
 1037 831 l 1,1999,-1
 1042 831 l 1,2000,-1
 1042 826 l 1,2001,-1
 1037 826 l 1,2002,-1
 1037 809 l 1,2003,-1
 1032 809 l 1,2004,-1
 1032 799 l 1,2005,-1
 1028 799 l 1,2006,-1
 1028 791 l 1,2007,-1
 1024 791 l 1,2008,-1
 1024 786 l 1,2009,-1
 1019 786 l 1,2010,-1
 1019 782 l 1,2011,-1
 1006 782 l 1,2012,-1
 1006 778 l 1,2013,-1
 1002 778 l 1,2014,-1
 1002 782 l 1,2015,-1
 989 782 l 1,2016,-1
 989 786 l 1,2017,-1
 984 786 l 1,2018,-1
 984 791 l 1,2019,-1
 979 791 l 1,2020,-1
 979 795 l 1,2021,-1
 975 795 l 1,2022,-1
 975 799 l 1,2023,-1
 971 799 l 1,2024,-1
 971 809 l 1,2025,-1
 966 809 l 1,2026,-1
 966 813 l 1,2027,-1
 961 813 l 1,2028,-1
 961 822 l 1,2029,-1
 957 822 l 1,2030,-1
 957 826 l 1,2031,-1
 953 826 l 1,2032,-1
 953 831 l 1,2033,-1
 940 831 l 1,2034,-1
 940 826 l 1,2035,-1
 926 826 l 1,2036,-1
 926 822 l 1,2037,-1
 913 822 l 1,2038,-1
 913 817 l 1,2039,-1
 904 817 l 1,2040,-1
 904 813 l 1,2041,-1
 895 813 l 1,2042,-1
 895 809 l 1,2043,-1
 891 809 l 1,2044,-1
 891 804 l 1,2045,-1
 882 804 l 1,2046,-1
 882 799 l 1,2047,-1
 878 799 l 1,2048,-1
 878 795 l 1,2049,-1
 868 795 l 1,2050,-1
 868 791 l 1,2051,-1
 865 791 l 1,2052,-1
 865 786 l 1,2053,-1
 860 786 l 1,2054,-1
 860 782 l 1,2055,-1
 851 782 l 1,2056,-1
 851 778 l 1,2057,-1
 847 778 l 1,2058,-1
 847 773 l 1,2059,-1
 842 773 l 1,2060,-1
 842 769 l 1,2061,-1
 833 769 l 1,2062,-1
 833 764 l 1,2063,-1
 829 764 l 1,2064,-1
 829 760 l 1,2065,-1
 824 760 l 1,2066,-1
 824 756 l 1,2067,-1
 820 756 l 1,2068,-1
 820 751 l 1,2069,-1
 815 751 l 1,2070,-1
 815 746 l 1,2071,-1
 811 746 l 1,2072,-1
 811 742 l 1,2073,-1
 807 742 l 1,2074,-1
 807 738 l 1,2075,-1
 802 738 l 1,2076,-1
 802 733 l 1,2077,-1
 793 733 l 1,2078,-1
 793 729 l 1,2079,-1
 789 729 l 1,2080,-1
 789 724 l 1,2081,-1
 784 724 l 1,2082,-1
 784 720 l 1,2083,-1
 780 720 l 1,2084,-1
 780 716 l 1,2085,-1
 776 716 l 1,2086,-1
 776 711 l 1,2087,-1
 771 711 l 1,2088,-1
 771 707 l 1,2089,-1
 767 707 l 1,2090,-1
 767 658 l 1,2091,-1
 771 658 l 1,2092,-1
 771 645 l 1,2093,-1
 776 645 l 1,2094,-1
 776 640 l 1,2095,-1
 780 640 l 1,2096,-1
 780 631 l 1,2097,-1
 789 631 l 1,2098,-1
 789 627 l 1,2099,-1
 793 627 l 1,2100,-1
 793 622 l 1,2101,-1
 833 622 l 1,2102,-1
 833 627 l 1,2103,-1
 842 627 l 1,2104,-1
 842 631 l 1,2105,-1
 847 631 l 1,2106,-1
 847 635 l 1,2107,-1
 851 635 l 1,2108,-1
 851 640 l 1,2109,-1
 855 640 l 1,2110,-1
 855 645 l 1,2111,-1
 860 645 l 1,2112,-1
 860 649 l 1,2113,-1
 865 649 l 1,2114,-1
 865 653 l 1,2115,-1
 868 653 l 1,2116,-1
 868 658 l 1,2117,-1
 873 658 l 1,2118,-1
 873 662 l 1,2119,-1
 878 662 l 1,2120,-1
 878 667 l 1,2121,-1
 886 667 l 1,2122,-1
 886 662 l 1,2123,-1
 891 662 l 1,2124,-1
 891 645 l 1,2125,-1
 895 645 l 1,2126,-1
 895 640 l 1,2127,-1
 908 640 l 1,2128,-1
 908 645 l 1,2129,-1
 913 645 l 1,2130,-1
 913 649 l 1,2131,-1
 918 649 l 1,2132,-1
 918 653 l 1,2133,-1
 922 653 l 1,2134,-1
 922 658 l 1,2135,-1
 926 658 l 1,2136,-1
 926 667 l 1,2137,-1
 931 667 l 1,2138,-1
 931 671 l 1,2139,-1
 935 671 l 1,2140,-1
 935 675 l 1,2141,-1
 940 675 l 1,2142,-1
 940 680 l 1,2143,-1
 944 680 l 1,2144,-1
 944 685 l 1,2145,-1
 948 685 l 1,2146,-1
 948 689 l 1,2147,-1
 953 689 l 1,2148,-1
 953 693 l 1,2149,-1
 957 693 l 1,2150,-1
 957 698 l 1,2151,-1
 961 698 l 1,2152,-1
 961 703 l 1,2153,-1
 966 703 l 1,2154,-1
 966 707 l 1,2155,-1
 975 707 l 1,2156,-1
 975 711 l 1,2157,-1
 979 711 l 1,2158,-1
 979 716 l 1,2159,-1
 989 716 l 1,2160,-1
 989 720 l 1,2161,-1
 997 720 l 1,2162,-1
 997 724 l 1,2163,-1
 1011 724 l 1,2164,-1
 1011 729 l 1,2165,-1
 1028 729 l 1,2166,-1
 1028 724 l 1,2167,-1
 1046 724 l 1,2168,-1
 1046 720 l 1,2169,-1
 1055 720 l 1,2170,-1
 1055 716 l 1,2171,-1
 1064 716 l 1,2172,-1
 1064 711 l 1,2173,-1
 1068 711 l 1,2174,-1
 1068 707 l 1,2175,-1
 1072 707 l 1,2176,-1
 1072 703 l 1,2177,-1
 1077 703 l 1,2178,-1
 1077 698 l 1,2179,-1
 1082 698 l 1,2180,-1
 1082 689 l 1,2181,-1
 1086 689 l 1,2182,-1
 1086 675 l 1,2183,-1
 1090 675 l 1,2184,-1
 1090 662 l 1,2185,-1
 1086 662 l 1,2186,-1
 1086 645 l 1,2187,-1
 1082 645 l 1,2188,-1
 1082 640 l 1,2189,-1
 1077 640 l 1,2190,-1
 1077 631 l 1,2191,-1
 1072 631 l 1,2192,-1
 1072 627 l 1,2193,-1
 1068 627 l 1,2194,-1
 1068 622 l 1,2195,-1
 1064 622 l 1,2196,-1
 1064 618 l 1,2197,-1
 1059 618 l 1,2198,-1
 1059 614 l 1,2199,-1
 1050 614 l 1,2200,-1
 1050 609 l 1,2201,-1
 1046 609 l 1,2202,-1
 1046 605 l 1,2203,-1
 1037 605 l 1,2204,-1
 1037 600 l 1,2205,-1
 1024 600 l 1,2206,-1
 1024 596 l 1,2207,-1
 1006 596 l 1,2208,-1
 1006 592 l 1,2209,-1
 989 592 l 1,2210,-1
 989 587 l 1,2211,-1
 966 587 l 1,2212,-1
 966 582 l 1,2213,-1
 926 582 l 1,2214,-1
 926 587 l 1,2215,-1
 908 587 l 1,2216,-1
 908 592 l 1,2217,-1
 882 592 l 1,2218,-1
 882 614 l 1,2219,-1
 878 614 l 1,2220,-1
 878 622 l 1,2221,-1
 873 622 l 1,2222,-1
 873 627 l 1,2223,-1
 865 627 l 1,2224,-1
 865 622 l 1,2225,-1
 860 622 l 1,2226,-1
 860 614 l 1,2227,-1
 855 614 l 1,2228,-1
 855 609 l 1,2229,-1
 851 609 l 1,2230,-1
 851 605 l 1,2231,-1
 847 605 l 1,2232,-1
 847 600 l 1,2233,-1
 842 600 l 1,2234,-1
 842 592 l 1,2235,-1
 838 592 l 1,2236,-1
 838 587 l 1,2237,-1
 833 587 l 1,2238,-1
 833 578 l 1,2239,-1
 829 578 l 1,2240,-1
 829 574 l 1,2241,-1
 824 574 l 1,2242,-1
 824 569 l 1,2243,-1
 820 569 l 1,2244,-1
 820 560 l 1,2245,-1
 815 560 l 1,2246,-1
 815 551 l 1,2247,-1
 811 551 l 1,2248,-1
 811 543 l 1,2249,-1
 807 543 l 1,2250,-1
 807 529 l 1,2251,-1
 802 529 l 1,2252,-1
 802 481 l 1,2253,-1
 807 481 l 1,2254,-1
 807 476 l 1,2255,-1
 811 476 l 1,2256,-1
 811 471 l 1,2257,-1
 815 471 l 1,2258,-1
 815 467 l 1,2259,-1
 847 467 l 1,2260,-1
 847 471 l 1,2261,-1
 855 471 l 1,2262,-1
 855 476 l 1,2263,-1
 860 476 l 1,2264,-1
 860 481 l 1,2265,-1
 868 481 l 1,2266,-1
 868 485 l 1,2267,-1
 873 485 l 1,2268,-1
 873 489 l 1,2269,-1
 878 489 l 1,2270,-1
 878 494 l 1,2271,-1
 886 494 l 1,2272,-1
 886 498 l 1,2273,-1
 891 498 l 1,2274,-1
 891 503 l 1,2275,-1
 895 503 l 1,2276,-1
 895 507 l 1,2277,-1
 900 507 l 1,2278,-1
 900 511 l 1,2279,-1
 908 511 l 1,2280,-1
 908 516 l 1,2281,-1
 913 516 l 1,2282,-1
 913 521 l 1,2283,-1
 918 521 l 1,2284,-1
 918 525 l 1,2285,-1
 922 525 l 1,2286,-1
 922 529 l 1,2287,-1
 931 529 l 1,2288,-1
 931 534 l 1,2289,-1
 935 534 l 1,2290,-1
 935 538 l 1,2291,-1
 944 538 l 1,2292,-1
 944 543 l 1,2293,-1
 953 543 l 1,2294,-1
 953 547 l 1,2295,-1
 957 547 l 1,2296,-1
 957 551 l 1,2297,-1
 966 551 l 1,2298,-1
 966 556 l 1,2299,-1
 979 556 l 1,2300,-1
 979 560 l 1,2301,-1
 984 560 l 1,2302,-1
 984 565 l 1,2303,-1
 993 565 l 1,2304,-1
 993 569 l 1,2305,-1
 1006 569 l 1,2306,-1
 1006 574 l 1,2307,-1
 1024 574 l 1,2308,-1
 1024 578 l 1,2309,-1
 1037 578 l 1,2310,-1
 1037 582 l 1,2311,-1
 1050 582 l 1,2312,-1
 1050 587 l 1,2313,-1
 1068 587 l 1,2314,-1
 1068 592 l 1,2315,-1
 1086 592 l 1,2316,-1
 1086 596 l 1,2317,-1
 1095 596 l 1,2318,-1
 1095 600 l 1,2319,-1
 1108 600 l 1,2320,-1
 1108 605 l 1,2321,-1
 1113 605 l 1,2322,-1
 1113 609 l 1,2323,-1
 1121 609 l 1,2324,-1
 1121 614 l 1,2325,-1
 1126 614 l 1,2326,-1
 1126 622 l 1,2327,-1
 1130 622 l 1,2328,-1
 1130 703 l 1,2329,-1
 1126 703 l 1,2330,-1
 1126 760 l 1,2331,-1
 1121 760 l 1,2332,-1
 1121 826 l 1,2333,-1
 1117 826 l 1,2334,-1
 1117 924 l 1,2335,-1
 1113 924 l 1,2336,-1
 1113 955 l 1,2337,-1
 1117 955 l 1,2338,-1
 1117 959 l 1,2339,-1
 1126 959 l 1,2340,-1
 1126 955 l 1,2341,-1
 1130 955 l 1,2342,-1
 1130 942 l 1,2343,-1
 1135 942 l 1,2344,-1
 1135 933 l 1,2345,-1
 1139 933 l 1,2346,-1
 1139 924 l 1,2347,-1
 1143 924 l 1,2348,-1
 1143 915 l 1,2349,-1
 1148 915 l 1,2350,-1
 1148 893 l 1,2351,-1
 1143 893 l 1,2352,-1
 1143 888 l 1,2353,-1
 1139 888 l 1,2354,-1
 1139 826 l 1,2355,-1
 1143 826 l 1,2356,-1
 1143 773 l 1,2357,-1
 1148 773 l 1,2358,-1
 1148 720 l 1,2359,-1
 1153 720 l 1,2360,-1
 1153 667 l 1,2361,-1
 1148 667 l 1,2362,-1
 1148 635 l 1,2363,-1
 1143 635 l 1,2364,-1
 1143 618 l 1,2365,-1
 1139 618 l 1,2366,-1
 1139 609 l 1,2367,-1
 1135 609 l 1,2368,-1
 1135 596 l 1,2369,-1
 1130 596 l 1,2370,-1
 1130 592 l 1,2371,-1
 1126 592 l 1,2372,-1
 1126 582 l 1,2373,-1
 1121 582 l 1,2374,-1
 1121 574 l 1,2375,-1
 1117 574 l 1,2376,-1
 1117 565 l 1,2377,-1
 1113 565 l 1,2378,-1
 1113 551 l 1,2379,-1
 1108 551 l 1,2380,-1
 1108 538 l 1,2381,-1
 1104 538 l 1,2382,-1
 1104 525 l 1,2383,-1
 1099 525 l 1,2384,-1
 1099 503 l 1,2385,-1
 1095 503 l 1,2386,-1
 1095 471 l 1,2387,-1
 1099 471 l 1,2388,-1
 1099 454 l 1,2389,-1
 1104 454 l 1,2390,-1
 1104 450 l 1,2391,-1
 1108 450 l 1,2392,-1
 1108 441 l 1,2393,-1
 1113 441 l 1,2394,-1
 1113 436 l 1,2395,-1
 1121 436 l 1,2396,-1
 1121 432 l 1,2397,-1
 1126 432 l 1,2398,-1
 1126 428 l 1,2399,-1
 1135 428 l 1,2400,-1
 1135 423 l 1,2401,-1
 1148 423 l 1,2402,-1
 1148 418 l 1,2403,-1
 1219 418 l 1,2404,-1
 1219 423 l 1,2405,-1
 1232 423 l 1,2406,-1
 1232 428 l 1,2407,-1
 1250 428 l 1,2408,-1
 1250 432 l 1,2409,-1
 1259 432 l 1,2410,-1
 1259 436 l 1,2411,-1
 1272 436 l 1,2412,-1
 1272 441 l 1,2413,-1
 1281 441 l 1,2414,-1
 1281 445 l 1,2415,-1
 1294 445 l 1,2416,-1
 1294 450 l 1,2417,-1
 1303 450 l 1,2418,-1
 1303 454 l 1,2419,-1
 1312 454 l 1,2420,-1
 1312 458 l 1,2421,-1
 1317 458 l 1,2422,-1
 1317 463 l 1,2423,-1
 1330 463 l 1,2424,-1
 1330 467 l 1,2425,-1
 1334 467 l 1,2426,-1
 1334 471 l 1,2427,-1
 1343 471 l 1,2428,-1
 1343 476 l 1,2429,-1
 1347 476 l 1,2430,-1
 1347 481 l 1,2431,-1
 1352 481 l 1,2432,-1
 1352 485 l 1,2433,-1
 1356 485 l 1,2434,-1
 1356 494 l 1,2435,-1
 1347 494 l 1,2436,-1
 1347 498 l 1,2437,-1
 1312 498 l 1,2438,-1
 1312 503 l 1,2439,-1
 1294 503 l 1,2440,-1
 1294 507 l 1,2441,-1
 1285 507 l 1,2442,-1
 1285 511 l 1,2443,-1
 1281 511 l 1,2444,-1
 1281 516 l 1,2445,-1
 1277 516 l 1,2446,-1
 1277 521 l 1,2447,-1
 1272 521 l 1,2448,-1
 1272 534 l 1,2449,-1
 1268 534 l 1,2450,-1
 1268 551 l 1,2451,-1
 1272 551 l 1,2452,-1
 1272 569 l 1,2453,-1
 1277 569 l 1,2454,-1
 1277 578 l 1,2455,-1
 1281 578 l 1,2456,-1
 1281 587 l 1,2457,-1
 1285 587 l 1,2458,-1
 1285 592 l 1,2459,-1
 1290 592 l 1,2460,-1
 1290 600 l 1,2461,-1
 1294 600 l 1,2462,-1
 1294 605 l 1,2463,-1
 1299 605 l 1,2464,-1
 1299 609 l 1,2465,-1
 1303 609 l 1,2466,-1
 1303 614 l 1,2467,-1
 1307 614 l 1,2468,-1
 1307 618 l 1,2469,-1
 1312 618 l 1,2470,-1
 1312 622 l 1,2471,-1
 1321 622 l 1,2472,-1
 1321 627 l 1,2473,-1
 1325 627 l 1,2474,-1
 1325 631 l 1,2475,-1
 1339 631 l 1,2476,-1
 1339 635 l 1,2477,-1
 1347 635 l 1,2478,-1
 1347 631 l 1,2479,-1
 1356 631 l 1,2480,-1
 1356 627 l 1,2481,-1
 1360 627 l 1,2482,-1
 1360 618 l 1,2483,-1
 1365 618 l 1,2484,-1
 1365 609 l 1,2485,-1
 1370 609 l 1,2486,-1
 1370 605 l 1,2487,-1
 1374 605 l 1,2488,-1
 1374 600 l 1,2489,-1
 1378 600 l 1,2490,-1
 1378 596 l 1,2491,-1
 1383 596 l 1,2492,-1
 1383 592 l 1,2493,-1
 1414 592 l 1,2494,-1
 1414 596 l 1,2495,-1
 1418 596 l 1,2496,-1
 1418 600 l 1,2497,-1
 1428 600 l 1,2498,-1
 1428 605 l 1,2499,-1
 1432 605 l 1,2500,-1
 1432 609 l 1,2501,-1
 1436 609 l 1,2502,-1
 1436 618 l 1,2503,-1
 1441 618 l 1,2504,-1
 1441 622 l 1,2505,-1
 1445 622 l 1,2506,-1
 1445 627 l 1,2507,-1
 1449 627 l 1,2508,-1
 1449 635 l 1,2509,-1
 1454 635 l 1,2510,-1
 1454 640 l 1,2511,-1
 1458 640 l 1,2512,-1
 1458 635 l 1,2513,-1
 1463 635 l 1,2514,-1
 1463 618 l 1,2515,-1
 1467 618 l 1,2516,-1
 1467 614 l 1,2517,-1
 1471 614 l 1,2518,-1
 1471 609 l 1,2519,-1
 1476 609 l 1,2520,-1
 1476 605 l 1,2521,-1
 1498 605 l 1,2522,-1
 1498 609 l 1,2523,-1
 1503 609 l 1,2524,-1
 1503 631 l 1,2525,-1
 1507 631 l 1,2526,-1
 1507 640 l 1,2527,-1
 1516 640 l 1,2528,-1
 1516 627 l 1,2529,-1
 1520 627 l 1,2530,-1
 1520 614 l 1,2531,-1
 1516 614 l 1,2532,-1
 1516 596 l 1,2533,-1
 1511 596 l 1,2534,-1
 1511 582 l 1,2535,-1
 1507 582 l 1,2536,-1
 1507 578 l 1,2537,-1
 1503 578 l 1,2538,-1
 1503 574 l 1,2539,-1
 1489 574 l 1,2540,-1
 1489 569 l 1,2541,-1
 1476 569 l 1,2542,-1
 1476 574 l 1,2543,-1
 1463 574 l 1,2544,-1
 1463 578 l 1,2545,-1
 1458 578 l 1,2546,-1
 1458 582 l 1,2547,-1
 1454 582 l 1,2548,-1
 1454 587 l 1,2549,-1
 1449 587 l 1,2550,-1
 1449 592 l 1,2551,-1
 1445 592 l 1,2552,-1
 1445 596 l 1,2553,-1
 1441 596 l 1,2554,-1
 1441 592 l 1,2555,-1
 1436 592 l 1,2556,-1
 1436 582 l 1,2557,-1
 1432 582 l 1,2558,-1
 1432 569 l 1,2559,-1
 1428 569 l 1,2560,-1
 1428 560 l 1,2561,-1
 1401 560 l 1,2562,-1
 1401 556 l 1,2563,-1
 1378 556 l 1,2564,-1
 1378 560 l 1,2565,-1
 1370 560 l 1,2566,-1
 1370 565 l 1,2567,-1
 1365 565 l 1,2568,-1
 1365 569 l 1,2569,-1
 1360 569 l 1,2570,-1
 1360 574 l 1,2571,-1
 1356 574 l 1,2572,-1
 1356 582 l 1,2573,-1
 1352 582 l 1,2574,-1
 1352 592 l 1,2575,-1
 1347 592 l 1,2576,-1
 1347 596 l 1,2577,-1
 1343 596 l 1,2578,-1
 1343 600 l 1,2579,-1
 1321 600 l 1,2580,-1
 1321 596 l 1,2581,-1
 1317 596 l 1,2582,-1
 1317 592 l 1,2583,-1
 1307 592 l 1,2584,-1
 1307 587 l 1,2585,-1
 1303 587 l 1,2586,-1
 1303 582 l 1,2587,-1
 1299 582 l 1,2588,-1
 1299 578 l 1,2589,-1
 1294 578 l 1,2590,-1
 1294 574 l 1,2591,-1
 1290 574 l 1,2592,-1
 1290 551 l 1,2593,-1
 1294 551 l 1,2594,-1
 1294 547 l 1,2595,-1
 1299 547 l 1,2596,-1
 1299 543 l 1,2597,-1
 1307 543 l 1,2598,-1
 1307 538 l 1,2599,-1
 1325 538 l 1,2600,-1
 1325 534 l 1,2601,-1
 1347 534 l 1,2602,-1
 1347 529 l 1,2603,-1
 1356 529 l 1,2604,-1
 1356 525 l 1,2605,-1
 1365 525 l 1,2606,-1
 1365 521 l 1,2607,-1
 1370 521 l 1,2608,-1
 1370 516 l 1,2609,-1
 1374 516 l 1,2610,-1
 1374 507 l 1,2611,-1
 1378 507 l 1,2612,-1
 1378 489 l 1,2613,-1
 1392 489 l 1,2614,-1
 1392 436 l 1,2615,-1
 1396 436 l 1,2616,-1
 1396 432 l 1,2617,-1
 1401 432 l 1,2618,-1
 1401 423 l 1,2619,-1
 1405 423 l 1,2620,-1
 1405 418 l 1,2621,-1
 1414 418 l 1,2622,-1
 1414 414 l 1,2623,-1
 1423 414 l 1,2624,-1
 1423 410 l 1,2625,-1
 1471 410 l 1,2626,-1
 1471 414 l 1,2627,-1
 1485 414 l 1,2628,-1
 1485 418 l 1,2629,-1
 1498 418 l 1,2630,-1
 1498 423 l 1,2631,-1
 1507 423 l 1,2632,-1
 1507 428 l 1,2633,-1
 1516 428 l 1,2634,-1
 1516 432 l 1,2635,-1
 1524 432 l 1,2636,-1
 1524 436 l 1,2637,-1
 1534 436 l 1,2638,-1
 1534 441 l 1,2639,-1
 1538 441 l 1,2640,-1
 1538 445 l 1,2641,-1
 1547 445 l 1,2642,-1
 1547 450 l 1,2643,-1
 1552 450 l 1,2644,-1
 1552 454 l 1,2645,-1
 1560 454 l 1,2646,-1
 1560 458 l 1,2647,-1
 1565 458 l 1,2648,-1
 1565 463 l 1,2649,-1
 1569 463 l 1,2650,-1
 1569 467 l 1,2651,-1
 1578 467 l 1,2652,-1
 1578 476 l 1,2653,-1
 1582 476 l 1,2654,-1
 1582 481 l 1,2655,-1
 1587 481 l 1,2656,-1
 1587 485 l 1,2657,-1
 1592 485 l 1,2658,-1
 1592 489 l 1,2659,-1
 1596 489 l 1,2660,-1
 1596 503 l 1,2661,-1
 1592 503 l 1,2662,-1
 1592 507 l 1,2663,-1
 1547 507 l 1,2664,-1
 1547 511 l 1,2665,-1
 1534 511 l 1,2666,-1
 1534 516 l 1,2667,-1
 1529 516 l 1,2668,-1
 1529 521 l 1,2669,-1
 1524 521 l 1,2670,-1
 1524 551 l 1,2671,-1
 1529 551 l 1,2672,-1
 1529 560 l 1,2673,-1
 1534 560 l 1,2674,-1
 1534 569 l 1,2675,-1
 1538 569 l 1,2676,-1
 1538 574 l 1,2677,-1
 1542 574 l 1,2678,-1
 1542 578 l 1,2679,-1
 1547 578 l 1,2680,-1
 1547 582 l 1,2681,-1
 1552 582 l 1,2682,-1
 1552 587 l 1,2683,-1
 1578 587 l 1,2684,-1
 1578 582 l 1,2685,-1
 1587 582 l 1,2686,-1
 1587 578 l 1,2687,-1
 1592 578 l 1,2688,-1
 1592 569 l 1,2689,-1
 1596 569 l 1,2690,-1
 1596 565 l 1,2691,-1
 1600 565 l 1,2692,-1
 1600 556 l 1,2693,-1
 1605 556 l 1,2694,-1
 1605 551 l 1,2695,-1
 1609 551 l 1,2696,-1
 1609 547 l 1,2697,-1
 1635 547 l 1,2698,-1
 1635 551 l 1,2699,-1
 1645 551 l 1,2700,-1
 1645 556 l 1,2701,-1
 1649 556 l 1,2702,-1
 1649 560 l 1,2703,-1
 1653 560 l 1,2704,-1
 1653 569 l 1,2705,-1
 1662 569 l 1,2706,-1
 1662 565 l 1,2707,-1
 1680 565 l 1,2708,-1
 1680 569 l 1,2709,-1
 1689 569 l 1,2710,-1
 1689 574 l 1,2711,-1
 1693 574 l 1,2712,-1
 1693 578 l 1,2713,-1
 1698 578 l 1,2714,-1
 1698 582 l 1,2715,-1
 1702 582 l 1,2716,-1
 1702 605 l 1,2717,-1
 1698 605 l 1,2718,-1
 1698 609 l 1,2719,-1
 1693 609 l 1,2720,-1
 1693 614 l 1,2721,-1
 1676 614 l 1,2722,-1
 1676 609 l 1,2723,-1
 1671 609 l 1,2724,-1
 1671 605 l 1,2725,-1
 1667 605 l 1,2726,-1
 1667 596 l 1,2727,-1
 1662 596 l 1,2728,-1
 1662 592 l 1,2729,-1
 1653 592 l 1,2730,-1
 1653 596 l 1,2731,-1
 1658 596 l 1,2732,-1
 1658 614 l 1,2733,-1
 1662 614 l 1,2734,-1
 1662 622 l 1,2735,-1
 1667 622 l 1,2736,-1
 1667 631 l 1,2737,-1
 1671 631 l 1,2738,-1
 1671 635 l 1,2739,-1
 1676 635 l 1,2740,-1
 1676 640 l 1,2741,-1
 1680 640 l 1,2742,-1
 1680 645 l 1,2743,-1
 1684 645 l 1,2744,-1
 1684 649 l 1,2745,-1
 1698 649 l 1,2746,-1
 1698 645 l 1,2747,-1
 1706 645 l 1,2748,-1
 1706 635 l 1,2749,-1
 1711 635 l 1,2750,-1
 1711 631 l 1,2751,-1
 1716 631 l 1,2752,-1
 1716 614 l 1,2753,-1
 1720 614 l 1,2754,-1
 1720 596 l 1,2755,-1
 1716 596 l 1,2756,-1
 1716 578 l 1,2757,-1
 1711 578 l 1,2758,-1
 1711 560 l 1,2759,-1
 1706 560 l 1,2760,-1
 1706 551 l 1,2761,-1
 1702 551 l 1,2762,-1
 1702 543 l 1,2763,-1
 1698 543 l 1,2764,-1
 1698 534 l 1,2765,-1
 1693 534 l 1,2766,-1
 1693 529 l 1,2767,-1
 1698 529 l 1,2768,-1
 1698 525 l 1,2769,-1
 1693 525 l 1,2770,-1
 1693 485 l 1,2771,-1
 1698 485 l 1,2772,-1
 1698 471 l 1,2773,-1
 1702 471 l 1,2774,-1
 1702 467 l 1,2775,-1
 1706 467 l 1,2776,-1
 1706 458 l 1,2777,-1
 1711 458 l 1,2778,-1
 1711 454 l 1,2779,-1
 1716 454 l 1,2780,-1
 1716 450 l 1,2781,-1
 1720 450 l 1,2782,-1
 1720 445 l 1,2783,-1
 1724 445 l 1,2784,-1
 1724 441 l 1,2785,-1
 1729 441 l 1,2786,-1
 1729 436 l 1,2787,-1
 1738 436 l 1,2788,-1
 1738 432 l 1,2789,-1
 1746 432 l 1,2790,-1
 1746 428 l 1,2791,-1
 1782 428 l 1,2792,-1
 1782 423 l 1,2793,-1
 1804 423 l 1,2794,-1
 1804 428 l 1,2795,-1
 1831 428 l 1,2796,-1
 1831 432 l 1,2797,-1
 1844 432 l 1,2798,-1
 1844 436 l 1,2799,-1
 1857 436 l 1,2800,-1
 1857 441 l 1,2801,-1
 1870 441 l 1,2802,-1
 1870 445 l 1,2803,-1
 1880 445 l 1,2804,-1
 1880 450 l 1,2805,-1
 1888 450 l 1,2806,-1
 1888 454 l 1,2807,-1
 1897 454 l 1,2808,-1
 1897 458 l 1,2809,-1
 1906 458 l 1,2810,-1
 1906 463 l 1,2811,-1
 1915 463 l 1,2812,-1
 1915 467 l 1,2813,-1
 1920 467 l 1,2814,-1
 1920 471 l 1,2815,-1
 1928 471 l 1,2816,-1
 1928 476 l 1,2817,-1
 1933 476 l 1,2818,-1
 1933 481 l 1,2819,-1
 1937 481 l 1,2820,-1
 1937 485 l 1,2821,-1
 1946 485 l 1,2822,-1
 1946 489 l 1,2823,-1
 1951 489 l 1,2824,-1
 1951 494 l 1,2825,-1
 1955 494 l 1,2826,-1
 1955 498 l 1,2827,-1
 1959 498 l 1,2828,-1
 1959 503 l 1,2829,-1
 1964 503 l 1,2830,-1
 1964 507 l 1,2831,-1
 1968 507 l 1,2832,-1
 1968 543 l 1,2833,-1
 1964 543 l 1,2834,-1
 1964 556 l 1,2835,-1
 1959 556 l 1,2836,-1
 1959 574 l 1,2837,-1
 1955 574 l 1,2838,-1
 1955 596 l 1,2839,-1
 1959 596 l 1,2840,-1
 1959 609 l 1,2841,-1
 1968 609 l 1,2842,-1
 1968 605 l 1,2843,-1
 1973 605 l 1,2844,-1
 1973 600 l 1,2845,-1
 1977 600 l 1,2846,-1
 1977 596 l 1,2847,-1
 1981 596 l 1,2848,-1
 1981 592 l 1,2849,-1
 2008 592 l 1,2850,-1
 2008 596 l 1,2851,-1
 2012 596 l 1,2852,-1
 2012 600 l 1,2853,-1
 2017 600 l 1,2854,-1
 2017 627 l 1,2855,-1
 2012 627 l 1,2856,-1
 2012 640 l 1,2857,-1
 2017 640 l 1,2858,-1
 2017 653 l 1,2859,-1
 2026 653 l 1,2860,-1
 2026 649 l 1,2861,-1
 2030 649 l 1,2862,-1
 2030 631 l 1,2863,-1
 2034 631 l 1,2864,-1
 2034 600 l 1,2865,-1
 2030 600 l 1,2866,-1
 2030 587 l 1,2867,-1
 2026 587 l 1,2868,-1
 2026 578 l 1,2869,-1
 2021 578 l 1,2870,-1
 2021 574 l 1,2871,-1
 2017 574 l 1,2872,-1
 2017 569 l 1,2873,-1
 2012 569 l 1,2874,-1
 2012 565 l 1,2875,-1
 2008 565 l 1,2876,-1
 2008 560 l 1,2877,-1
 1999 560 l 1,2878,-1
 1999 556 l 1,2879,-1
 1991 556 l 1,2880,-1
 1991 551 l 1,2881,-1
 1986 551 l 1,2882,-1
 1986 525 l 1,2883,-1
 1981 525 l 1,2884,-1
 1981 503 l 1,2885,-1
 1977 503 l 1,2886,-1
 1977 489 l 1,2887,-1
 1973 489 l 1,2888,-1
 1973 481 l 1,2889,-1
 1968 481 l 1,2890,-1
 1968 476 l 1,2891,-1
 1964 476 l 1,2892,-1
 1964 471 l 1,2893,-1
 1959 471 l 1,2894,-1
 1959 467 l 1,2895,-1
 1955 467 l 1,2896,-1
 1955 463 l 1,2897,-1
 1951 463 l 1,2898,-1
 1951 458 l 1,2899,-1
 1946 458 l 1,2900,-1
 1946 454 l 1,2901,-1
 1941 454 l 1,2902,-1
 1941 450 l 1,2903,-1
 1933 450 l 1,2904,-1
 1933 445 l 1,2905,-1
 1928 445 l 1,2906,-1
 1928 441 l 1,2907,-1
 1920 441 l 1,2908,-1
 1920 436 l 1,2909,-1
 1915 436 l 1,2910,-1
 1915 432 l 1,2911,-1
 1906 432 l 1,2912,-1
 1906 428 l 1,2913,-1
 1902 428 l 1,2914,-1
 1902 423 l 1,2915,-1
 1893 423 l 1,2916,-1
 1893 418 l 1,2917,-1
 1884 418 l 1,2918,-1
 1884 414 l 1,2919,-1
 1875 414 l 1,2920,-1
 1875 410 l 1,2921,-1
 1866 410 l 1,2922,-1
 1866 405 l 1,2923,-1
 1853 405 l 1,2924,-1
 1853 400 l 1,2925,-1
 1840 400 l 1,2926,-1
 1840 396 l 1,2927,-1
 1822 396 l 1,2928,-1
 1822 392 l 1,2929,-1
 1799 392 l 1,2930,-1
 1799 387 l 1,2931,-1
 1764 387 l 1,2932,-1
 1764 392 l 1,2933,-1
 1746 392 l 1,2934,-1
 1746 396 l 1,2935,-1
 1733 396 l 1,2936,-1
 1733 400 l 1,2937,-1
 1724 400 l 1,2938,-1
 1724 405 l 1,2939,-1
 1720 405 l 1,2940,-1
 1720 410 l 1,2941,-1
 1711 410 l 1,2942,-1
 1711 414 l 1,2943,-1
 1706 414 l 1,2944,-1
 1706 418 l 1,2945,-1
 1702 418 l 1,2946,-1
 1702 428 l 1,2947,-1
 1698 428 l 1,2948,-1
 1698 432 l 1,2949,-1
 1693 432 l 1,2950,-1
 1693 441 l 1,2951,-1
 1689 441 l 1,2952,-1
 1689 450 l 1,2953,-1
 1684 450 l 1,2954,-1
 1684 467 l 1,2955,-1
 1680 467 l 1,2956,-1
 1680 507 l 1,2957,-1
 1684 507 l 1,2958,-1
 1684 525 l 1,2959,-1
 1689 525 l 1,2960,-1
 1689 534 l 1,2961,-1
 1684 534 l 1,2962,-1
 1684 538 l 1,2963,-1
 1676 538 l 1,2964,-1
 1676 534 l 1,2965,-1
 1671 534 l 1,2966,-1
 1671 529 l 1,2967,-1
 1662 529 l 1,2968,-1
 1662 525 l 1,2969,-1
 1653 525 l 1,2970,-1
 1653 521 l 1,2971,-1
 1631 521 l 1,2972,-1
 1631 516 l 1,2973,-1
 1618 516 l 1,2974,-1
 1618 511 l 1,2975,-1
 1613 511 l 1,2976,-1
 1613 503 l 1,2977,-1
 1609 503 l 1,2978,-1
 1609 489 l 1,2979,-1
 1605 489 l 1,2980,-1
 1605 476 l 1,2981,-1
 1600 476 l 1,2982,-1
 1600 467 l 1,2983,-1
 1596 467 l 1,2984,-1
 1596 458 l 1,2985,-1
 1592 458 l 1,2986,-1
 1592 454 l 1,2987,-1
 1587 454 l 1,2988,-1
 1587 450 l 1,2989,-1
 1582 450 l 1,2990,-1
 1582 445 l 1,2991,-1
 1578 445 l 1,2992,-1
 1578 441 l 1,2993,-1
 1574 441 l 1,2994,-1
 1574 436 l 1,2995,-1
 1569 436 l 1,2996,-1
 1569 432 l 1,2997,-1
 1565 432 l 1,2998,-1
 1565 428 l 1,2999,-1
 1556 428 l 1,3000,-1
 1556 423 l 1,3001,-1
 1552 423 l 1,3002,-1
 1552 418 l 1,3003,-1
 1547 418 l 1,3004,-1
 1547 414 l 1,3005,-1
 1538 414 l 1,3006,-1
 1538 410 l 1,3007,-1
 1534 410 l 1,3008,-1
 1534 405 l 1,3009,-1
 1524 405 l 1,3010,-1
 1524 400 l 1,3011,-1
 1516 400 l 1,3012,-1
 1516 396 l 1,3013,-1
 1511 396 l 1,3014,-1
 1511 392 l 1,3015,-1
 1498 392 l 1,3016,-1
 1498 387 l 1,3017,-1
 1489 387 l 1,3018,-1
 1489 383 l 1,3019,-1
 1476 383 l 1,3020,-1
 1476 379 l 1,3021,-1
 1458 379 l 1,3022,-1
 1458 374 l 1,3023,-1
 1423 374 l 1,3024,-1
 1423 379 l 1,3025,-1
 1410 379 l 1,3026,-1
 1410 383 l 1,3027,-1
 1405 383 l 1,3028,-1
 1405 387 l 1,3029,-1
 1401 387 l 1,3030,-1
 1401 392 l 1,3031,-1
 1396 392 l 1,3032,-1
 1396 396 l 1,3033,-1
 1392 396 l 1,3034,-1
 1392 400 l 1,3035,-1
 1388 400 l 1,3036,-1
 1388 410 l 1,3037,-1
 1383 410 l 1,3038,-1
 1383 418 l 1,3039,-1
 1378 418 l 1,3040,-1
 1378 445 l 1,3041,-1
 1374 445 l 1,3042,-1
 1374 450 l 1,3043,-1
 1378 450 l 1,3044,-1
 1378 471 l 1,3045,-1
 1370 471 l 1,3046,-1
 1370 467 l 1,3047,-1
 1365 467 l 1,3048,-1
 1365 463 l 1,3049,-1
 1360 463 l 1,3050,-1
 1360 454 l 1,3051,-1
 1356 454 l 1,3052,-1
 1356 450 l 1,3053,-1
 1347 450 l 1,3054,-1
 1347 445 l 1,3055,-1
 1343 445 l 1,3056,-1
 1343 441 l 1,3057,-1
 1339 441 l 1,3058,-1
 1339 436 l 1,3059,-1
 1330 436 l 1,3060,-1
 1330 432 l 1,3061,-1
 1325 432 l 1,3062,-1
 1325 428 l 1,3063,-1
 1317 428 l 1,3064,-1
 1317 423 l 1,3065,-1
 1312 423 l 1,3066,-1
 1312 410 l 1,3067,-1
 1317 410 l 1,3068,-1
 1317 405 l 1,3069,-1
 1321 405 l 1,3070,-1
 1321 400 l 1,3071,-1
 1334 400 l 1,3072,-1
 1334 396 l 1,3073,-1
 1343 396 l 1,3074,-1
 1343 387 l 1,3075,-1
 1334 387 l 1,3076,-1
 1334 383 l 1,3077,-1
 1325 383 l 1,3078,-1
 1325 379 l 1,3079,-1
 1312 379 l 1,3080,-1
 1312 374 l 1,3081,-1
 1299 374 l 1,3082,-1
 1299 379 l 1,3083,-1
 1290 379 l 1,3084,-1
 1290 405 l 1,3085,-1
 1268 405 l 1,3086,-1
 1268 400 l 1,3087,-1
 1259 400 l 1,3088,-1
 1259 396 l 1,3089,-1
 1246 396 l 1,3090,-1
 1246 392 l 1,3091,-1
 1236 392 l 1,3092,-1
 1236 387 l 1,3093,-1
 1223 387 l 1,3094,-1
 1223 383 l 1,3095,-1
 1201 383 l 1,3096,-1
 1201 379 l 1,3097,-1
 1143 379 l 1,3098,-1
 1143 383 l 1,3099,-1
 1130 383 l 1,3100,-1
 1130 387 l 1,3101,-1
 1121 387 l 1,3102,-1
 1121 392 l 1,3103,-1
 1117 392 l 1,3104,-1
 1117 396 l 1,3105,-1
 1108 396 l 1,3106,-1
 1108 400 l 1,3107,-1
 1104 400 l 1,3108,-1
 1104 405 l 1,3109,-1
 1099 405 l 1,3110,-1
 1099 414 l 1,3111,-1
 1095 414 l 1,3112,-1
 1095 418 l 1,3113,-1
 1090 418 l 1,3114,-1
 1090 432 l 1,3115,-1
 1086 432 l 1,3116,-1
 1086 445 l 1,3117,-1
 1082 445 l 1,3118,-1
 1082 467 l 1,3119,-1
 1077 467 l 1,3120,-1
 1077 476 l 1,3121,-1
 1082 476 l 1,3122,-1
 1082 498 l 1,3123,-1
 1086 498 l 1,3124,-1
 1086 516 l 1,3125,-1
 1090 516 l 1,3126,-1
 1090 534 l 1,3127,-1
 1095 534 l 1,3128,-1
 1095 547 l 1,3129,-1
 1099 547 l 1,3130,-1
 1099 565 l 1,3131,-1
 1086 565 l 1,3132,-1
 1086 560 l 1,3133,-1
 1072 560 l 1,3134,-1
 1072 556 l 1,3135,-1
 1059 556 l 1,3136,-1
 1059 551 l 1,3137,-1
 1042 551 l 1,3138,-1
 1042 547 l 1,3139,-1
 1024 547 l 1,3140,-1
 1024 543 l 1,3141,-1
 1015 543 l 1,3142,-1
 1015 538 l 1,3143,-1
 1002 538 l 1,3144,-1
 1002 534 l 1,3145,-1
 989 534 l 1,3146,-1
 989 529 l 1,3147,-1
 979 529 l 1,3148,-1
 979 525 l 1,3149,-1
 971 525 l 1,3150,-1
 971 521 l 1,3151,-1
 961 521 l 1,3152,-1
 961 516 l 1,3153,-1
 953 516 l 1,3154,-1
 953 511 l 1,3155,-1
 948 511 l 1,3156,-1
 948 507 l 1,3157,-1
 940 507 l 1,3158,-1
 940 503 l 1,3159,-1
 935 503 l 1,3160,-1
 935 498 l 1,3161,-1
 931 498 l 1,3162,-1
 931 494 l 1,3163,-1
 926 494 l 1,3164,-1
 926 489 l 1,3165,-1
 922 489 l 1,3166,-1
 922 485 l 1,3167,-1
 913 485 l 1,3168,-1
 913 481 l 1,3169,-1
 908 481 l 1,3170,-1
 908 476 l 1,3171,-1
 904 476 l 1,3172,-1
 904 471 l 1,3173,-1
 900 471 l 1,3174,-1
 900 467 l 1,3175,-1
 895 467 l 1,3176,-1
 895 463 l 1,3177,-1
 891 463 l 1,3178,-1
 891 458 l 1,3179,-1
 882 458 l 1,3180,-1
 882 454 l 1,3181,-1
 878 454 l 1,3182,-1
 878 450 l 1,3183,-1
 868 450 l 1,3184,-1
 868 445 l 1,3185,-1
 865 445 l 1,3186,-1
 865 441 l 1,3187,-1
 851 441 l 1,3188,-1
 851 436 l 1,3189,-1
 820 436 l 1,3190,-1
 820 441 l 1,3191,-1
 811 441 l 1,3192,-1
 811 445 l 1,3193,-1
 807 445 l 1,3194,-1
 807 450 l 1,3195,-1
 802 450 l 1,3196,-1
 802 454 l 1,3197,-1
 797 454 l 1,3198,-1
 797 463 l 1,3199,-1
 793 463 l 1,3200,-1
 793 471 l 1,3201,-1
 789 471 l 1,3202,-1
 789 489 l 1,3203,-1
 784 489 l 1,3204,-1
 784 503 l 1,3205,-1
 789 503 l 1,3206,-1
 789 525 l 1,3207,-1
 793 525 l 1,3208,-1
 793 534 l 1,3209,-1
 797 534 l 1,3210,-1
 797 543 l 1,3211,-1
 802 543 l 1,3212,-1
 802 551 l 1,3213,-1
 807 551 l 1,3214,-1
 807 560 l 1,3215,-1
 811 560 l 1,3216,-1
 811 565 l 1,3217,-1
 815 565 l 1,3218,-1
 815 578 l 1,3219,-1
 807 578 l 1,3220,-1
 807 582 l 1,3221,-1
 789 582 l 1,3222,-1
 789 587 l 1,3223,-1
 776 587 l 1,3224,-1
 776 592 l 1,3225,-1
 771 592 l 1,3226,-1
 771 596 l 1,3227,-1
 767 596 l 1,3228,-1
 767 600 l 1,3229,-1
 762 600 l 1,3230,-1
 762 605 l 1,3231,-1
 758 605 l 1,3232,-1
 758 609 l 1,3233,-1
 754 609 l 1,3234,-1
 754 622 l 1,3235,-1
 749 622 l 1,3236,-1
 749 640 l 1,3237,-1
 744 640 l 1,3238,-1
 744 667 l 1,3239,-1
 740 667 l 1,3240,-1
 740 693 l 1,3241,-1
 736 693 l 1,3242,-1
 736 698 l 1,3243,-1
 727 698 l 1,3244,-1
 727 703 l 1,3245,-1
 718 703 l 1,3246,-1
 718 707 l 1,3247,-1
 709 707 l 1,3248,-1
 709 711 l 1,3249,-1
 701 711 l 1,3250,-1
 701 716 l 1,3251,-1
 696 716 l 1,3252,-1
 696 724 l 1,3253,-1
 691 724 l 1,3254,-1
 691 738 l 1,3255,-1
 687 738 l 1,3256,-1
 687 760 l 1,3257,-1
 683 760 l 1,3258,-1
 683 769 l 1,3259,-1
 687 769 l 1,3260,-1
 687 786 l 1,3261,-1
 691 786 l 1,3262,-1
 691 799 l 1,3263,-1
 696 799 l 1,3264,-1
 696 804 l 1,3265,-1
 701 804 l 1,3266,-1
 701 813 l 1,3267,-1
 704 813 l 1,3268,-1
 704 817 l 1,3269,-1
 709 817 l 1,3270,-1
 709 809 l 1,3271,-1
 704 809 l 1,3272,-1
 704 795 l 1,3273,-1
 701 795 l 1,3274,-1
 701 778 l 1,3275,-1
 696 778 l 1,3276,-1
 696 756 l 1,3277,-1
 701 756 l 1,3278,-1
 701 746 l 1,3279,-1
 704 746 l 1,3280,-1
 704 738 l 1,3281,-1
 714 738 l 1,3282,-1
 714 733 l 1,3283,-1
 736 733 l 1,3284,-1
 736 893 l 1,3285,-1
 731 893 l 1,3286,-1
 731 906 l 1,3287,-1
 727 906 l 1,3288,-1
 727 920 l 1,3289,-1
 722 920 l 1,3290,-1
 722 924 l 1,3291,-1
 718 924 l 1,3292,-1
 718 937 l 1,3293,-1
 714 937 l 1,3294,-1
 714 942 l 1,3295,-1
 709 942 l 1,3296,-1
 709 950 l 1,3297,-1
 704 950 l 1,3298,-1
 704 959 l 1,3299,-1
 701 959 l 1,3300,-1
 701 968 l 1,3301,-1
 696 968 l 1,3302,-1
 696 977 l 1,3303,-1
 691 977 l 1,3304,-1
 691 995 l 1,3305,-1
 687 995 l 1,3306,-1
 687 1031 l 1,3307,-1
 691 1031 l 1,3308,-1
 691 1048 l 1,3309,-1
 696 1048 l 1,3310,-1
 696 1057 l 1,3311,-1
 701 1057 l 1,3312,-1
 701 1070 l 1,3313,-1
 704 1070 l 1,3314,-1
 704 1074 l 1,3315,-1
 709 1074 l 1,3316,-1
 709 1079 l 1,3317,-1
 714 1079 l 1,3318,-1
 714 1066 l 1,3319,-1
 709 1066 l 1,3320,-1
 709 1052 l 1,3321,-1
 704 1052 l 1,3322,-1
 704 1013 l 1,3323,-1
 709 1013 l 1,3324,-1
 709 999 l 1,3325,-1
 714 999 l 1,3326,-1
 714 986 l 1,3327,-1
 718 986 l 1,3328,-1
 718 981 l 1,3329,-1
 722 981 l 1,3330,-1
 722 973 l 1,3331,-1
 727 973 l 1,3332,-1
 727 963 l 1,3333,-1
 731 963 l 1,3334,-1
 731 959 l 1,3335,-1
 736 959 l 1,3336,-1
 736 946 l 1,3337,-1
 740 946 l 1,3338,-1
 740 937 l 1,3339,-1
 744 937 l 1,3340,-1
 744 928 l 1,3341,-1
 749 928 l 1,3342,-1
 749 910 l 1,3343,-1
 754 910 l 1,3344,-1
 754 884 l 1,3345,-1
 758 884 l 1,3346,-1
 758 795 l 1,3347,-1
 762 795 l 1,3348,-1
 762 751 l 1,3349,-1
 776 751 l 1,3350,-1
 776 756 l 1,3351,-1
 780 756 l 1,3352,-1
 780 760 l 1,3353,-1
 784 760 l 1,3354,-1
 784 764 l 1,3355,-1
 793 764 l 1,3356,-1
 793 769 l 1,3357,-1
 797 769 l 1,3358,-1
 797 773 l 1,3359,-1
 802 773 l 1,3360,-1
 802 778 l 1,3361,-1
 811 778 l 1,3362,-1
 811 782 l 1,3363,-1
 815 782 l 1,3364,-1
 815 786 l 1,3365,-1
 820 786 l 1,3366,-1
 820 791 l 1,3367,-1
 829 791 l 1,3368,-1
 829 795 l 1,3369,-1
 833 795 l 1,3370,-1
 833 799 l 1,3371,-1
 838 799 l 1,3372,-1
 838 804 l 1,3373,-1
 847 804 l 1,3374,-1
 847 809 l 1,3375,-1
 851 809 l 1,3376,-1
 851 813 l 1,3377,-1
 855 813 l 1,3378,-1
 855 817 l 1,3379,-1
 865 817 l 1,3380,-1
 865 822 l 1,3381,-1
 868 822 l 1,3382,-1
 868 826 l 1,3383,-1
 878 826 l 1,3384,-1
 878 831 l 1,3385,-1
 886 831 l 1,3386,-1
 886 835 l 1,3387,-1
 891 835 l 1,3388,-1
 891 840 l 1,3389,-1
 900 840 l 1,3390,-1
 900 844 l 1,3391,-1
 908 844 l 1,3392,-1
 908 849 l 1,3393,-1
 913 849 l 1,3394,-1
 913 853 l 1,3395,-1
 922 853 l 1,3396,-1
 922 857 l 1,3397,-1
 935 857 l 1,3398,-1
 935 862 l 1,3399,-1
 940 862 l 1,3400,-1
 940 867 l 1,3401,-1
 944 867 l 1,3402,-1
 944 897 l 1,3403,-1
 940 897 l 1,3404,-1
 940 924 l 1,3405,-1
 935 924 l 1,3406,-1
 935 981 l 1,3407,-1
 931 981 l 1,3408,-1
 931 991 l 1,3409,-1
 824 991 l 1,3410,-1
 824 995 l 1,3411,-1
 784 995 l 1,3412,-1
 784 999 l 1,3413,-1
 767 999 l 1,3414,-1
 767 1004 l 1,3415,-1
 758 1004 l 1,3416,-1
 758 1008 l 1,3417,-1
 754 1008 l 1,3418,-1
 754 1039 l 1,3419,-1
 758 1039 l 1,3420,-1
 758 1048 l 1,3421,-1
 762 1048 l 1,3422,-1
 762 1057 l 1,3423,-1
 767 1057 l 1,3424,-1
 767 1061 l 1,3425,-1
 771 1061 l 1,3426,-1
 771 1066 l 1,3427,-1
 776 1066 l 1,3428,-1
 776 1070 l 1,3429,-1
 780 1070 l 1,3430,-1
 780 1074 l 1,3431,-1
 784 1074 l 1,3432,-1
 784 1079 l 1,3433,-1
 789 1079 l 1,3434,-1
 789 1084 l 1,3435,-1
 797 1084 l 1,3436,-1
 797 1088 l 1,3437,-1
 807 1088 l 1,3438,-1
 807 1092 l 1,3439,-1
 811 1092 l 1,3440,-1
 811 1097 l 1,3441,-1
 820 1097 l 1,3442,-1
 820 1101 l 1,3443,-1
 833 1101 l 1,3444,-1
 833 1106 l 1,3445,-1
 842 1106 l 1,3446,-1
 842 1110 l 1,3447,-1
 851 1110 l 1,3448,-1
 851 1115 l 1,3449,-1
 865 1115 l 1,3450,-1
 865 1119 l 1,3451,-1
 873 1119 l 1,3452,-1
 873 1123 l 1,3453,-1
 878 1123 l 1,3454,-1
 878 1128 l 1,3455,-1
 886 1128 l 1,3456,-1
 886 1132 l 1,3457,-1
 891 1132 l 1,3458,-1
 891 1137 l 1,3459,-1
 895 1137 l 1,3460,-1
 895 1141 l 1,3461,-1
 900 1141 l 1,3462,-1
 900 1145 l 1,3463,-1
 904 1145 l 1,3464,-1
 904 1155 l 1,3465,-1
 908 1155 l 1,3466,-1
 908 1159 l 1,3467,-1
 913 1159 l 1,3468,-1
 913 1168 l 1,3469,-1
 918 1168 l 1,3470,-1
 918 1172 l 1,3471,-1
 922 1172 l 1,3472,-1
 922 1181 l 1,3473,-1
 926 1181 l 1,3474,-1
 926 1185 l 1,3475,-1
 931 1185 l 1,3476,-1
 931 1190 l 1,3477,-1
 935 1190 l 1,3478,-1
 935 1195 l 1,3479,-1
 940 1195 l 1,3480,-1
 940 1198 l 1,3481,-1
 957 1198 l 1,3482,-1
 957 1185 l 1,3483,-1
 961 1185 l 1,3484,-1
 961 1168 l 1,3485,-1
 966 1168 l 1,3486,-1
 966 1159 l 1,3487,-1
 971 1159 l 1,3488,-1
 971 1155 l 1,3489,-1
 975 1155 l 1,3490,-1
 975 1150 l 1,3491,-1
 984 1150 l 1,3492,-1
 984 1155 l 1,3493,-1
 989 1155 l 1,3494,-1
 989 1159 l 1,3495,-1
 993 1159 l 1,3496,-1
 993 1168 l 1,3497,-1
 997 1168 l 1,3498,-1
 997 1172 l 1,3499,-1
 1002 1172 l 1,3500,-1
 1002 1177 l 1,3501,-1
 1006 1177 l 1,3502,-1
 1006 1185 l 1,3503,-1
 1011 1185 l 1,3504,-1
 1011 1190 l 1,3505,-1
 1015 1190 l 1,3506,-1
 1015 1195 l 1,3507,-1
 1019 1195 l 1,3508,-1
 1019 1198 l 1,3509,-1
 1024 1198 l 1,3510,-1
 1024 1203 l 1,3511,-1
 1028 1203 l 1,3512,-1
 1028 1208 l 1,3513,-1
 1032 1208 l 1,3514,-1
 1032 1212 l 1,3515,-1
 1037 1212 l 1,3516,-1
 1037 1216 l 1,3517,-1
 1042 1216 l 1,3518,-1
 1042 1221 l 1,3519,-1
 1046 1221 l 1,3520,-1
 1046 1225 l 1,3521,-1
 1050 1225 l 1,3522,-1
 1050 1230 l 1,3523,-1
 1055 1230 l 1,3524,-1
 1055 1234 l 1,3525,-1
 1064 1234 l 1,3526,-1
 1064 1238 l 1,3527,-1
 1068 1238 l 1,3528,-1
 1068 1243 l 1,3529,-1
 1077 1243 l 1,3530,-1
 1077 1248 l 1,3531,-1
 1095 1248 l 1,3532,-1
 1095 1252 l 1,3533,-1
 1117 1252 l 1,3534,-1
 1117 1248 l 1,3535,-1
 1130 1248 l 1,3536,-1
 1130 1243 l 1,3537,-1
 1139 1243 l 1,3538,-1
 1139 1238 l 1,3539,-1
 1143 1238 l 1,3540,-1
 1143 1234 l 1,3541,-1
 1153 1234 l 1,3542,-1
 1153 1230 l 1,3543,-1
 1157 1230 l 1,3544,-1
 1157 1225 l 1,3545,-1
 1161 1225 l 1,3546,-1
 1161 1221 l 1,3547,-1
 1166 1221 l 1,3548,-1
 1166 1212 l 1,3549,-1
 1170 1212 l 1,3550,-1
 1170 1198 l 1,3551,-1
 1175 1198 l 1,3552,-1
 1175 1177 l 1,3553,-1
 1170 1177 l 1,3554,-1
 1170 1172 l 1,3555,-1
 1175 1172 l 1,3556,-1
 1175 1163 l 1,3557,-1
 1196 1163 l 1,3558,-1
 1196 1168 l 1,3559,-1
 1210 1168 l 1,3560,-1
 1210 1172 l 1,3561,-1
 1214 1172 l 1,3562,-1
 1214 1177 l 1,3563,-1
 1219 1177 l 1,3564,-1
 1219 1181 l 1,3565,-1
 1223 1181 l 1,3566,-1
 1223 1195 l 1,3567,-1
 1219 1195 l 1,3568,-1
 1219 1203 l 1,3569,-1
 1214 1203 l 1,3570,-1
 1214 1212 l 1,3571,-1
 1210 1212 l 1,3572,-1
 1210 1221 l 1,3573,-1
 1206 1221 l 1,3574,-1
 1206 1230 l 1,3575,-1
 1201 1230 l 1,3576,-1
 1201 1238 l 1,3577,-1
 1196 1238 l 1,3578,-1
 1196 1248 l 1,3579,-1
 1192 1248 l 1,3580,-1
 1192 1261 l 1,3581,-1
 1188 1261 l 1,3582,-1
 1188 1274 l 1,3583,-1
 1183 1274 l 1,3584,-1
 1183 1283 l 1,3585,-1
 1188 1283 l 1,3586,-1
 1188 1287 l 1,1779,-1
1072 1221 m 1,3587,-1
 1072 1216 l 1,3588,-1
 1064 1216 l 1,3589,-1
 1064 1212 l 1,3590,-1
 1055 1212 l 1,3591,-1
 1055 1208 l 1,3592,-1
 1046 1208 l 1,3593,-1
 1046 1203 l 1,3594,-1
 1042 1203 l 1,3595,-1
 1042 1198 l 1,3596,-1
 1032 1198 l 1,3597,-1
 1032 1195 l 1,3598,-1
 1028 1195 l 1,3599,-1
 1028 1185 l 1,3600,-1
 1024 1185 l 1,3601,-1
 1024 1181 l 1,3602,-1
 1019 1181 l 1,3603,-1
 1019 1177 l 1,3604,-1
 1015 1177 l 1,3605,-1
 1015 1172 l 1,3606,-1
 1011 1172 l 1,3607,-1
 1011 1163 l 1,3608,-1
 1006 1163 l 1,3609,-1
 1006 1159 l 1,3610,-1
 1002 1159 l 1,3611,-1
 1002 1155 l 1,3612,-1
 997 1155 l 1,3613,-1
 997 1141 l 1,3614,-1
 1002 1141 l 1,3615,-1
 1002 1137 l 1,3616,-1
 1019 1137 l 1,3617,-1
 1019 1132 l 1,3618,-1
 1050 1132 l 1,3619,-1
 1050 1137 l 1,3620,-1
 1082 1137 l 1,3621,-1
 1082 1141 l 1,3622,-1
 1104 1141 l 1,3623,-1
 1104 1145 l 1,3624,-1
 1117 1145 l 1,3625,-1
 1117 1150 l 1,3626,-1
 1126 1150 l 1,3627,-1
 1126 1155 l 1,3628,-1
 1139 1155 l 1,3629,-1
 1139 1159 l 1,3630,-1
 1148 1159 l 1,3631,-1
 1148 1163 l 1,3632,-1
 1153 1163 l 1,3633,-1
 1153 1168 l 1,3634,-1
 1157 1168 l 1,3635,-1
 1157 1190 l 1,3636,-1
 1153 1190 l 1,3637,-1
 1153 1195 l 1,3638,-1
 1148 1195 l 1,3639,-1
 1148 1198 l 1,3640,-1
 1143 1198 l 1,3641,-1
 1143 1203 l 1,3642,-1
 1139 1203 l 1,3643,-1
 1139 1208 l 1,3644,-1
 1130 1208 l 1,3645,-1
 1130 1212 l 1,3646,-1
 1126 1212 l 1,3647,-1
 1126 1216 l 1,3648,-1
 1117 1216 l 1,3649,-1
 1117 1221 l 1,3650,-1
 1072 1221 l 1,3587,-1
865 1221 m 1,3651,-1
 886 1221 l 1,3652,-1
 886 1212 l 1,3653,-1
 891 1212 l 1,3654,-1
 891 1208 l 1,3655,-1
 886 1208 l 1,3656,-1
 886 1195 l 1,3657,-1
 882 1195 l 1,3658,-1
 882 1185 l 1,3659,-1
 878 1185 l 1,3660,-1
 878 1181 l 1,3661,-1
 873 1181 l 1,3662,-1
 873 1177 l 1,3663,-1
 868 1177 l 1,3664,-1
 868 1172 l 1,3665,-1
 865 1172 l 1,3666,-1
 865 1168 l 1,3667,-1
 860 1168 l 1,3668,-1
 860 1163 l 1,3669,-1
 855 1163 l 1,3670,-1
 855 1159 l 1,3671,-1
 847 1159 l 1,3672,-1
 847 1155 l 1,3673,-1
 833 1155 l 1,3674,-1
 833 1159 l 1,3675,-1
 838 1159 l 1,3676,-1
 838 1163 l 1,3677,-1
 847 1163 l 1,3678,-1
 847 1168 l 1,3679,-1
 851 1168 l 1,3680,-1
 851 1172 l 1,3681,-1
 860 1172 l 1,3682,-1
 860 1177 l 1,3683,-1
 865 1177 l 1,3684,-1
 865 1181 l 1,3685,-1
 868 1181 l 1,3686,-1
 868 1195 l 1,3687,-1
 847 1195 l 1,3688,-1
 847 1190 l 1,3689,-1
 838 1190 l 1,3690,-1
 838 1203 l 1,3691,-1
 842 1203 l 1,3692,-1
 842 1208 l 1,3693,-1
 847 1208 l 1,3694,-1
 847 1212 l 1,3695,-1
 851 1212 l 1,3696,-1
 851 1216 l 1,3697,-1
 865 1216 l 1,3698,-1
 865 1221 l 1,3651,-1
780 1177 m 1,3699,-1
 789 1177 l 1,3700,-1
 789 1163 l 1,3701,-1
 784 1163 l 1,3702,-1
 784 1172 l 1,3703,-1
 780 1172 l 1,3704,-1
 780 1177 l 1,3699,-1
789 1163 m 1,3705,-1
 793 1163 l 1,3706,-1
 793 1155 l 1,3707,-1
 789 1155 l 1,3708,-1
 789 1163 l 1,3705,-1
1383 1123 m 1,3709,-1
 1388 1123 l 1,3710,-1
 1388 1119 l 1,3711,-1
 1392 1119 l 1,3712,-1
 1392 1106 l 1,3713,-1
 1396 1106 l 1,3714,-1
 1396 1061 l 1,3715,-1
 1401 1061 l 1,3716,-1
 1401 999 l 1,3717,-1
 1405 999 l 1,3718,-1
 1405 933 l 1,3719,-1
 1410 933 l 1,3720,-1
 1410 880 l 1,3721,-1
 1414 880 l 1,3722,-1
 1414 867 l 1,3723,-1
 1418 867 l 1,3724,-1
 1418 853 l 1,3725,-1
 1423 853 l 1,3726,-1
 1423 849 l 1,3727,-1
 1428 849 l 1,3728,-1
 1428 840 l 1,3729,-1
 1432 840 l 1,3730,-1
 1432 835 l 1,3731,-1
 1436 835 l 1,3732,-1
 1436 831 l 1,3733,-1
 1441 831 l 1,3734,-1
 1441 826 l 1,3735,-1
 1445 826 l 1,3736,-1
 1445 822 l 1,3737,-1
 1449 822 l 1,3738,-1
 1449 817 l 1,3739,-1
 1458 817 l 1,3740,-1
 1458 813 l 1,3741,-1
 1463 813 l 1,3742,-1
 1463 809 l 1,3743,-1
 1471 809 l 1,3744,-1
 1471 804 l 1,3745,-1
 1481 804 l 1,3746,-1
 1481 799 l 1,3747,-1
 1489 799 l 1,3748,-1
 1489 795 l 1,3749,-1
 1503 795 l 1,3750,-1
 1503 791 l 1,3751,-1
 1520 791 l 1,3752,-1
 1520 786 l 1,3753,-1
 1552 786 l 1,3754,-1
 1552 782 l 1,3755,-1
 1658 782 l 1,3756,-1
 1658 786 l 1,3757,-1
 1706 786 l 1,3758,-1
 1706 791 l 1,3759,-1
 1738 791 l 1,3760,-1
 1738 795 l 1,3761,-1
 1760 795 l 1,3762,-1
 1760 799 l 1,3763,-1
 1786 799 l 1,3764,-1
 1786 804 l 1,3765,-1
 1804 804 l 1,3766,-1
 1804 809 l 1,3767,-1
 1822 809 l 1,3768,-1
 1822 813 l 1,3769,-1
 1840 813 l 1,3770,-1
 1840 817 l 1,3771,-1
 1844 817 l 1,3772,-1
 1844 835 l 1,3773,-1
 1840 835 l 1,3774,-1
 1840 840 l 1,3775,-1
 1835 840 l 1,3776,-1
 1835 844 l 1,3777,-1
 1831 844 l 1,3778,-1
 1831 853 l 1,3779,-1
 1827 853 l 1,3780,-1
 1827 857 l 1,3781,-1
 1822 857 l 1,3782,-1
 1822 867 l 1,3783,-1
 1817 867 l 1,3784,-1
 1817 880 l 1,3785,-1
 1813 880 l 1,3786,-1
 1813 893 l 1,3787,-1
 1809 893 l 1,3788,-1
 1809 902 l 1,3789,-1
 1813 902 l 1,3790,-1
 1813 915 l 1,3791,-1
 1817 915 l 1,3792,-1
 1817 924 l 1,3793,-1
 1822 924 l 1,3794,-1
 1822 933 l 1,3795,-1
 1827 933 l 1,3796,-1
 1827 937 l 1,3797,-1
 1831 937 l 1,3798,-1
 1831 942 l 1,3799,-1
 1835 942 l 1,3800,-1
 1835 946 l 1,3801,-1
 1840 946 l 1,3802,-1
 1840 950 l 1,3803,-1
 1848 950 l 1,3804,-1
 1848 955 l 1,3805,-1
 1857 955 l 1,3806,-1
 1857 959 l 1,3807,-1
 1866 959 l 1,3808,-1
 1866 963 l 1,3809,-1
 1884 963 l 1,3810,-1
 1884 968 l 1,3811,-1
 1915 968 l 1,3812,-1
 1915 963 l 1,3813,-1
 1933 963 l 1,3814,-1
 1933 959 l 1,3815,-1
 1941 959 l 1,3816,-1
 1941 955 l 1,3817,-1
 1951 955 l 1,3818,-1
 1951 950 l 1,3819,-1
 1955 950 l 1,3820,-1
 1955 946 l 1,3821,-1
 1959 946 l 1,3822,-1
 1959 942 l 1,3823,-1
 1951 942 l 1,3824,-1
 1951 946 l 1,3825,-1
 1893 946 l 1,3826,-1
 1893 942 l 1,3827,-1
 1875 942 l 1,3828,-1
 1875 937 l 1,3829,-1
 1862 937 l 1,3830,-1
 1862 933 l 1,3831,-1
 1848 933 l 1,3832,-1
 1848 928 l 1,3833,-1
 1844 928 l 1,3834,-1
 1844 924 l 1,3835,-1
 1840 924 l 1,3836,-1
 1840 920 l 1,3837,-1
 1835 920 l 1,3838,-1
 1835 897 l 1,3839,-1
 1840 897 l 1,3840,-1
 1840 888 l 1,3841,-1
 1844 888 l 1,3842,-1
 1844 880 l 1,3843,-1
 1848 880 l 1,3844,-1
 1848 875 l 1,3845,-1
 1853 875 l 1,3846,-1
 1853 867 l 1,3847,-1
 1857 867 l 1,3848,-1
 1857 862 l 1,3849,-1
 1866 862 l 1,3850,-1
 1866 857 l 1,3851,-1
 1870 857 l 1,3852,-1
 1870 853 l 1,3853,-1
 1880 853 l 1,3854,-1
 1880 849 l 1,3855,-1
 1888 849 l 1,3856,-1
 1888 844 l 1,3857,-1
 1941 844 l 1,3858,-1
 1941 849 l 1,3859,-1
 1959 849 l 1,3860,-1
 1959 853 l 1,3861,-1
 1977 853 l 1,3862,-1
 1977 857 l 1,3863,-1
 1991 857 l 1,3864,-1
 1991 862 l 1,3865,-1
 1999 862 l 1,3866,-1
 1999 867 l 1,3867,-1
 2017 867 l 1,3868,-1
 2017 871 l 1,3869,-1
 2021 871 l 1,3870,-1
 2021 867 l 1,3871,-1
 2026 867 l 1,3872,-1
 2026 857 l 1,3873,-1
 2021 857 l 1,3874,-1
 2021 853 l 1,3875,-1
 2017 853 l 1,3876,-1
 2017 849 l 1,3877,-1
 2012 849 l 1,3878,-1
 2012 844 l 1,3879,-1
 2004 844 l 1,3880,-1
 2004 840 l 1,3881,-1
 1995 840 l 1,3882,-1
 1995 835 l 1,3883,-1
 1977 835 l 1,3884,-1
 1977 831 l 1,3885,-1
 1964 831 l 1,3886,-1
 1964 826 l 1,3887,-1
 1951 826 l 1,3888,-1
 1951 822 l 1,3889,-1
 1937 822 l 1,3890,-1
 1937 817 l 1,3891,-1
 1924 817 l 1,3892,-1
 1924 813 l 1,3893,-1
 1906 813 l 1,3894,-1
 1906 809 l 1,3895,-1
 1893 809 l 1,3896,-1
 1893 804 l 1,3897,-1
 1875 804 l 1,3898,-1
 1875 799 l 1,3899,-1
 1862 799 l 1,3900,-1
 1862 795 l 1,3901,-1
 1844 795 l 1,3902,-1
 1844 791 l 1,3903,-1
 1827 791 l 1,3904,-1
 1827 786 l 1,3905,-1
 1809 786 l 1,3906,-1
 1809 782 l 1,3907,-1
 1795 782 l 1,3908,-1
 1795 778 l 1,3909,-1
 1777 778 l 1,3910,-1
 1777 773 l 1,3911,-1
 1751 773 l 1,3912,-1
 1751 769 l 1,3913,-1
 1733 769 l 1,3914,-1
 1733 764 l 1,3915,-1
 1706 764 l 1,3916,-1
 1706 760 l 1,3917,-1
 1680 760 l 1,3918,-1
 1680 756 l 1,3919,-1
 1645 756 l 1,3920,-1
 1645 751 l 1,3921,-1
 1534 751 l 1,3922,-1
 1534 756 l 1,3923,-1
 1507 756 l 1,3924,-1
 1507 760 l 1,3925,-1
 1489 760 l 1,3926,-1
 1489 764 l 1,3927,-1
 1476 764 l 1,3928,-1
 1476 769 l 1,3929,-1
 1467 769 l 1,3930,-1
 1467 773 l 1,3931,-1
 1458 773 l 1,3932,-1
 1458 778 l 1,3933,-1
 1449 778 l 1,3934,-1
 1449 782 l 1,3935,-1
 1445 782 l 1,3936,-1
 1445 786 l 1,3937,-1
 1436 786 l 1,3938,-1
 1436 791 l 1,3939,-1
 1432 791 l 1,3940,-1
 1432 795 l 1,3941,-1
 1428 795 l 1,3942,-1
 1428 799 l 1,3943,-1
 1423 799 l 1,3944,-1
 1423 804 l 1,3945,-1
 1418 804 l 1,3946,-1
 1418 813 l 1,3947,-1
 1414 813 l 1,3948,-1
 1414 817 l 1,3949,-1
 1410 817 l 1,3950,-1
 1410 826 l 1,3951,-1
 1405 826 l 1,3952,-1
 1405 835 l 1,3953,-1
 1401 835 l 1,3954,-1
 1401 844 l 1,3955,-1
 1396 844 l 1,3956,-1
 1396 849 l 1,3957,-1
 1392 849 l 1,3958,-1
 1392 844 l 1,3959,-1
 1388 844 l 1,3960,-1
 1388 840 l 1,3961,-1
 1383 840 l 1,3962,-1
 1383 826 l 1,3963,-1
 1378 826 l 1,3964,-1
 1378 817 l 1,3965,-1
 1374 817 l 1,3966,-1
 1374 813 l 1,3967,-1
 1370 813 l 1,3968,-1
 1370 804 l 1,3969,-1
 1365 804 l 1,3970,-1
 1365 799 l 1,3971,-1
 1360 799 l 1,3972,-1
 1360 795 l 1,3973,-1
 1356 795 l 1,3974,-1
 1356 791 l 1,3975,-1
 1352 791 l 1,3976,-1
 1352 786 l 1,3977,-1
 1343 786 l 1,3978,-1
 1343 782 l 1,3979,-1
 1334 782 l 1,3980,-1
 1334 778 l 1,3981,-1
 1325 778 l 1,3982,-1
 1325 773 l 1,3983,-1
 1317 773 l 1,3984,-1
 1317 769 l 1,3985,-1
 1307 769 l 1,3986,-1
 1307 764 l 1,3987,-1
 1294 764 l 1,3988,-1
 1294 760 l 1,3989,-1
 1285 760 l 1,3990,-1
 1285 756 l 1,3991,-1
 1277 756 l 1,3992,-1
 1277 751 l 1,3993,-1
 1272 751 l 1,3994,-1
 1272 746 l 1,3995,-1
 1268 746 l 1,3996,-1
 1268 742 l 1,3997,-1
 1259 742 l 1,3998,-1
 1259 733 l 1,3999,-1
 1254 733 l 1,4000,-1
 1254 724 l 1,4001,-1
 1259 724 l 1,4002,-1
 1259 720 l 1,4003,-1
 1264 720 l 1,4004,-1
 1264 716 l 1,4005,-1
 1268 716 l 1,4006,-1
 1268 711 l 1,4007,-1
 1281 711 l 1,4008,-1
 1281 707 l 1,4009,-1
 1303 707 l 1,4010,-1
 1303 703 l 1,4011,-1
 1330 703 l 1,4012,-1
 1330 698 l 1,4013,-1
 1649 698 l 1,4014,-1
 1649 703 l 1,4015,-1
 1724 703 l 1,4016,-1
 1724 707 l 1,4017,-1
 1799 707 l 1,4018,-1
 1799 711 l 1,4019,-1
 1844 711 l 1,4020,-1
 1844 716 l 1,4021,-1
 1893 716 l 1,4022,-1
 1893 720 l 1,4023,-1
 1973 720 l 1,4024,-1
 1973 724 l 1,4025,-1
 2119 724 l 1,4026,-1
 2119 720 l 1,4027,-1
 2137 720 l 1,4028,-1
 2137 716 l 1,4029,-1
 2141 716 l 1,4030,-1
 2141 707 l 1,4031,-1
 2145 707 l 1,4032,-1
 2145 703 l 1,4033,-1
 2141 703 l 1,4034,-1
 2141 689 l 1,4035,-1
 2137 689 l 1,4036,-1
 2137 680 l 1,4037,-1
 2128 680 l 1,4038,-1
 2128 685 l 1,4039,-1
 2123 685 l 1,4040,-1
 2123 689 l 1,4041,-1
 2115 689 l 1,4042,-1
 2115 693 l 1,4043,-1
 1991 693 l 1,4044,-1
 1991 689 l 1,4045,-1
 1906 689 l 1,4046,-1
 1906 685 l 1,4047,-1
 1853 685 l 1,4048,-1
 1853 680 l 1,4049,-1
 1799 680 l 1,4050,-1
 1799 675 l 1,4051,-1
 1742 675 l 1,4052,-1
 1742 671 l 1,4053,-1
 1684 671 l 1,4054,-1
 1684 667 l 1,4055,-1
 1605 667 l 1,4056,-1
 1605 662 l 1,4057,-1
 1463 662 l 1,4058,-1
 1463 658 l 1,4059,-1
 1360 658 l 1,4060,-1
 1360 662 l 1,4061,-1
 1317 662 l 1,4062,-1
 1317 667 l 1,4063,-1
 1290 667 l 1,4064,-1
 1290 671 l 1,4065,-1
 1272 671 l 1,4066,-1
 1272 675 l 1,4067,-1
 1254 675 l 1,4068,-1
 1254 680 l 1,4069,-1
 1246 680 l 1,4070,-1
 1246 685 l 1,4071,-1
 1241 685 l 1,4072,-1
 1241 689 l 1,4073,-1
 1236 689 l 1,4074,-1
 1236 693 l 1,4075,-1
 1232 693 l 1,4076,-1
 1232 703 l 1,4077,-1
 1228 703 l 1,4078,-1
 1228 707 l 1,4079,-1
 1232 707 l 1,4080,-1
 1232 724 l 1,4081,-1
 1236 724 l 1,4082,-1
 1236 733 l 1,4083,-1
 1241 733 l 1,4084,-1
 1241 742 l 1,4085,-1
 1246 742 l 1,4086,-1
 1246 746 l 1,4087,-1
 1250 746 l 1,4088,-1
 1250 751 l 1,4089,-1
 1254 751 l 1,4090,-1
 1254 756 l 1,4091,-1
 1259 756 l 1,4092,-1
 1259 760 l 1,4093,-1
 1264 760 l 1,4094,-1
 1264 764 l 1,4095,-1
 1268 764 l 1,4096,-1
 1268 769 l 1,4097,-1
 1277 769 l 1,4098,-1
 1277 773 l 1,4099,-1
 1281 773 l 1,4100,-1
 1281 778 l 1,4101,-1
 1290 778 l 1,4102,-1
 1290 782 l 1,4103,-1
 1299 782 l 1,4104,-1
 1299 786 l 1,4105,-1
 1303 786 l 1,4106,-1
 1303 791 l 1,4107,-1
 1312 791 l 1,4108,-1
 1312 795 l 1,4109,-1
 1325 795 l 1,4110,-1
 1325 799 l 1,4111,-1
 1334 799 l 1,4112,-1
 1334 804 l 1,4113,-1
 1339 804 l 1,4114,-1
 1339 809 l 1,4115,-1
 1347 809 l 1,4116,-1
 1347 813 l 1,4117,-1
 1352 813 l 1,4118,-1
 1352 817 l 1,4119,-1
 1360 817 l 1,4120,-1
 1360 826 l 1,4121,-1
 1365 826 l 1,4122,-1
 1365 831 l 1,4123,-1
 1370 831 l 1,4124,-1
 1370 840 l 1,4125,-1
 1374 840 l 1,4126,-1
 1374 853 l 1,4127,-1
 1378 853 l 1,4128,-1
 1378 893 l 1,4129,-1
 1383 893 l 1,4130,-1
 1383 920 l 1,4131,-1
 1378 920 l 1,4132,-1
 1378 995 l 1,4133,-1
 1374 995 l 1,4134,-1
 1374 1088 l 1,4135,-1
 1378 1088 l 1,4136,-1
 1378 1115 l 1,4137,-1
 1383 1115 l 1,4138,-1
 1383 1123 l 1,3709,-1
1299 1119 m 1,4139,-1
 1307 1119 l 1,4140,-1
 1307 1110 l 1,4141,-1
 1303 1110 l 1,4142,-1
 1303 1101 l 1,4143,-1
 1290 1101 l 1,4144,-1
 1290 1097 l 1,4145,-1
 1268 1097 l 1,4146,-1
 1268 1101 l 1,4147,-1
 1264 1101 l 1,4148,-1
 1264 1106 l 1,4149,-1
 1294 1106 l 1,4150,-1
 1294 1110 l 1,4151,-1
 1299 1110 l 1,4152,-1
 1299 1119 l 1,4139,-1
2044 1101 m 1,4153,-1
 2052 1101 l 1,4154,-1
 2052 1092 l 1,4155,-1
 2057 1092 l 1,4156,-1
 2057 1070 l 1,4157,-1
 2061 1070 l 1,4158,-1
 2061 1034 l 1,4159,-1
 2066 1034 l 1,4160,-1
 2066 986 l 1,4161,-1
 2070 986 l 1,4162,-1
 2070 862 l 1,4163,-1
 2074 862 l 1,4164,-1
 2074 853 l 1,4165,-1
 2070 853 l 1,4166,-1
 2070 831 l 1,4167,-1
 2074 831 l 1,4168,-1
 2074 795 l 1,4169,-1
 2079 795 l 1,4170,-1
 2079 782 l 1,4171,-1
 2084 782 l 1,4172,-1
 2084 778 l 1,4173,-1
 2088 778 l 1,4174,-1
 2088 773 l 1,4175,-1
 2115 773 l 1,4176,-1
 2115 778 l 1,4177,-1
 2119 778 l 1,4178,-1
 2119 782 l 1,4179,-1
 2123 782 l 1,4180,-1
 2123 786 l 1,4181,-1
 2128 786 l 1,4182,-1
 2128 813 l 1,4183,-1
 2123 813 l 1,4184,-1
 2123 817 l 1,4185,-1
 2119 817 l 1,4186,-1
 2119 849 l 1,4187,-1
 2132 849 l 1,4188,-1
 2132 840 l 1,4189,-1
 2137 840 l 1,4190,-1
 2137 826 l 1,4191,-1
 2141 826 l 1,4192,-1
 2141 804 l 1,4193,-1
 2145 804 l 1,4194,-1
 2145 791 l 1,4195,-1
 2141 791 l 1,4196,-1
 2141 773 l 1,4197,-1
 2137 773 l 1,4198,-1
 2137 764 l 1,4199,-1
 2132 764 l 1,4200,-1
 2132 756 l 1,4201,-1
 2128 756 l 1,4202,-1
 2128 751 l 1,4203,-1
 2123 751 l 1,4204,-1
 2123 746 l 1,4205,-1
 2115 746 l 1,4206,-1
 2115 742 l 1,4207,-1
 2101 742 l 1,4208,-1
 2101 738 l 1,4209,-1
 2088 738 l 1,4210,-1
 2088 742 l 1,4211,-1
 2079 742 l 1,4212,-1
 2079 746 l 1,4213,-1
 2074 746 l 1,4214,-1
 2074 751 l 1,4215,-1
 2070 751 l 1,4216,-1
 2070 756 l 1,4217,-1
 2066 756 l 1,4218,-1
 2066 769 l 1,4219,-1
 2061 769 l 1,4220,-1
 2061 786 l 1,4221,-1
 2057 786 l 1,4222,-1
 2057 817 l 1,4223,-1
 2052 817 l 1,4224,-1
 2052 991 l 1,4225,-1
 2048 991 l 1,4226,-1
 2048 1052 l 1,4227,-1
 2044 1052 l 1,4228,-1
 2044 1084 l 1,4229,-1
 2039 1084 l 1,4230,-1
 2039 1092 l 1,4231,-1
 2044 1092 l 1,4232,-1
 2044 1101 l 1,4153,-1
1201 1079 m 1,4233,-1
 1206 1079 l 1,4234,-1
 1206 1074 l 1,4235,-1
 1201 1074 l 1,4236,-1
 1201 1079 l 1,4233,-1
1192 1074 m 1,4237,-1
 1196 1074 l 1,4238,-1
 1196 1070 l 1,4239,-1
 1192 1070 l 1,4240,-1
 1192 1074 l 1,4237,-1
2004 1052 m 1,4241,-1
 2008 1052 l 1,4242,-1
 2008 1044 l 1,4243,-1
 2004 1044 l 1,4244,-1
 2004 1039 l 1,4245,-1
 1995 1039 l 1,4246,-1
 1995 1034 l 1,4247,-1
 1977 1034 l 1,4248,-1
 1977 1031 l 1,4249,-1
 1968 1031 l 1,4250,-1
 1968 1026 l 1,4251,-1
 1959 1026 l 1,4252,-1
 1959 1021 l 1,4253,-1
 1951 1021 l 1,4254,-1
 1951 1017 l 1,4255,-1
 1941 1017 l 1,4256,-1
 1941 1013 l 1,4257,-1
 1928 1013 l 1,4258,-1
 1928 1008 l 1,4259,-1
 1920 1008 l 1,4260,-1
 1920 1004 l 1,4261,-1
 1910 1004 l 1,4262,-1
 1910 999 l 1,4263,-1
 1902 999 l 1,4264,-1
 1902 1008 l 1,4265,-1
 1910 1008 l 1,4266,-1
 1910 1013 l 1,4267,-1
 1920 1013 l 1,4268,-1
 1920 1017 l 1,4269,-1
 1928 1017 l 1,4270,-1
 1928 1021 l 1,4271,-1
 1937 1021 l 1,4272,-1
 1937 1026 l 1,4273,-1
 1946 1026 l 1,4274,-1
 1946 1031 l 1,4275,-1
 1959 1031 l 1,4276,-1
 1959 1034 l 1,4277,-1
 1973 1034 l 1,4278,-1
 1973 1039 l 1,4279,-1
 1981 1039 l 1,4280,-1
 1981 1044 l 1,4281,-1
 1991 1044 l 1,4282,-1
 1991 1048 l 1,4283,-1
 2004 1048 l 1,4284,-1
 2004 1052 l 1,4241,-1
1294 991 m 1,4285,-1
 1299 991 l 1,4286,-1
 1299 986 l 1,4287,-1
 1303 986 l 1,4288,-1
 1303 977 l 1,4289,-1
 1307 977 l 1,4290,-1
 1307 973 l 1,4291,-1
 1312 973 l 1,4292,-1
 1312 968 l 1,4293,-1
 1317 968 l 1,4294,-1
 1317 955 l 1,4295,-1
 1307 955 l 1,4296,-1
 1307 959 l 1,4297,-1
 1303 959 l 1,4298,-1
 1303 963 l 1,4299,-1
 1299 963 l 1,4300,-1
 1299 968 l 1,4301,-1
 1294 968 l 1,4302,-1
 1294 981 l 1,4303,-1
 1290 981 l 1,4304,-1
 1290 986 l 1,4305,-1
 1294 986 l 1,4306,-1
 1294 991 l 1,4285,-1
784 973 m 1,4307,-1
 789 973 l 1,4308,-1
 789 968 l 1,4309,-1
 793 968 l 1,4310,-1
 793 963 l 1,4311,-1
 797 963 l 1,4312,-1
 797 950 l 1,4313,-1
 793 950 l 1,4314,-1
 793 955 l 1,4315,-1
 789 955 l 1,4316,-1
 789 963 l 1,4317,-1
 784 963 l 1,4318,-1
 784 973 l 1,4307,-1
797 950 m 1,4319,-1
 802 950 l 1,4320,-1
 802 942 l 1,4321,-1
 797 942 l 1,4322,-1
 797 950 l 1,4319,-1
1264 946 m 1,4323,-1
 1268 946 l 1,4324,-1
 1268 942 l 1,4325,-1
 1264 942 l 1,4326,-1
 1264 946 l 1,4323,-1
1250 942 m 1,4327,-1
 1259 942 l 1,4328,-1
 1259 937 l 1,4329,-1
 1250 937 l 1,4330,-1
 1250 942 l 1,4327,-1
1241 937 m 1,4331,-1
 1250 937 l 1,4332,-1
 1250 933 l 1,4333,-1
 1241 933 l 1,4334,-1
 1241 937 l 1,4331,-1
993 933 m 1,4335,-1
 1002 933 l 1,4336,-1
 1002 915 l 1,4337,-1
 993 915 l 1,4338,-1
 993 933 l 1,4335,-1
882 924 m 1,4339,-1
 895 924 l 1,4340,-1
 895 915 l 1,4341,-1
 900 915 l 1,4342,-1
 900 902 l 1,4343,-1
 895 902 l 1,4344,-1
 895 897 l 1,4345,-1
 891 897 l 1,4346,-1
 891 893 l 1,4347,-1
 886 893 l 1,4348,-1
 886 897 l 1,4349,-1
 882 897 l 1,4350,-1
 882 924 l 1,4339,-1
797 906 m 1,4351,-1
 807 906 l 1,4352,-1
 807 893 l 1,4353,-1
 811 893 l 1,4354,-1
 811 884 l 1,4355,-1
 815 884 l 1,4356,-1
 815 880 l 1,4357,-1
 811 880 l 1,4358,-1
 811 871 l 1,4359,-1
 802 871 l 1,4360,-1
 802 867 l 1,4361,-1
 797 867 l 1,4362,-1
 797 871 l 1,4363,-1
 793 871 l 1,4364,-1
 793 897 l 1,4365,-1
 797 897 l 1,4366,-1
 797 906 l 1,4351,-1
1183 893 m 1,4367,-1
 1192 893 l 1,4368,-1
 1192 888 l 1,4369,-1
 1196 888 l 1,4370,-1
 1196 880 l 1,4371,-1
 1201 880 l 1,4372,-1
 1201 871 l 1,4373,-1
 1206 871 l 1,4374,-1
 1206 857 l 1,4375,-1
 1210 857 l 1,4376,-1
 1210 849 l 1,4377,-1
 1214 849 l 1,4378,-1
 1214 835 l 1,4379,-1
 1210 835 l 1,4380,-1
 1210 831 l 1,4381,-1
 1206 831 l 1,4382,-1
 1206 786 l 1,4383,-1
 1210 786 l 1,4384,-1
 1210 742 l 1,4385,-1
 1214 742 l 1,4386,-1
 1214 698 l 1,4387,-1
 1219 698 l 1,4388,-1
 1219 609 l 1,4389,-1
 1214 609 l 1,4390,-1
 1214 592 l 1,4391,-1
 1210 592 l 1,4392,-1
 1210 578 l 1,4393,-1
 1206 578 l 1,4394,-1
 1206 565 l 1,4395,-1
 1201 565 l 1,4396,-1
 1201 551 l 1,4397,-1
 1196 551 l 1,4398,-1
 1196 543 l 1,4399,-1
 1192 543 l 1,4400,-1
 1192 538 l 1,4401,-1
 1183 538 l 1,4402,-1
 1183 543 l 1,4403,-1
 1188 543 l 1,4404,-1
 1188 560 l 1,4405,-1
 1192 560 l 1,4406,-1
 1192 578 l 1,4407,-1
 1196 578 l 1,4408,-1
 1196 671 l 1,4409,-1
 1192 671 l 1,4410,-1
 1192 729 l 1,4411,-1
 1188 729 l 1,4412,-1
 1188 782 l 1,4413,-1
 1183 782 l 1,4414,-1
 1183 831 l 1,4415,-1
 1179 831 l 1,4416,-1
 1179 880 l 1,4417,-1
 1183 880 l 1,4418,-1
 1183 893 l 1,4367,-1
865 884 m 1,4419,-1
 873 884 l 1,4420,-1
 873 880 l 1,4421,-1
 868 880 l 1,4422,-1
 868 875 l 1,4423,-1
 865 875 l 1,4424,-1
 865 871 l 1,4425,-1
 855 871 l 1,4426,-1
 855 875 l 1,4427,-1
 860 875 l 1,4428,-1
 860 880 l 1,4429,-1
 865 880 l 1,4430,-1
 865 884 l 1,4419,-1
847 871 m 1,4431,-1
 851 871 l 1,4432,-1
 851 867 l 1,4433,-1
 847 867 l 1,4434,-1
 847 871 l 1,4431,-1
1299 867 m 1,4435,-1
 1317 867 l 1,4436,-1
 1317 853 l 1,4437,-1
 1290 853 l 1,4438,-1
 1290 857 l 1,4439,-1
 1299 857 l 1,4440,-1
 1299 867 l 1,4435,-1
989 840 m 1,4441,-1
 989 826 l 1,4442,-1
 993 826 l 1,4443,-1
 993 822 l 1,4444,-1
 997 822 l 1,4445,-1
 997 817 l 1,4446,-1
 1002 817 l 1,4447,-1
 1002 813 l 1,4448,-1
 1019 813 l 1,4449,-1
 1019 831 l 1,4450,-1
 1011 831 l 1,4451,-1
 1011 835 l 1,4452,-1
 1002 835 l 1,4453,-1
 1002 840 l 1,4454,-1
 989 840 l 1,4441,-1
1995 804 m 1,4455,-1
 2008 804 l 1,4456,-1
 2008 791 l 1,4457,-1
 1999 791 l 1,4458,-1
 1999 786 l 1,4459,-1
 1986 786 l 1,4460,-1
 1986 795 l 1,4461,-1
 1991 795 l 1,4462,-1
 1991 799 l 1,4463,-1
 1995 799 l 1,4464,-1
 1995 804 l 1,4455,-1
1392 791 m 1,4465,-1
 1401 791 l 1,4466,-1
 1401 786 l 1,4467,-1
 1405 786 l 1,4468,-1
 1405 769 l 1,4469,-1
 1401 769 l 1,4470,-1
 1401 764 l 1,4471,-1
 1392 764 l 1,4472,-1
 1392 769 l 1,4473,-1
 1388 769 l 1,4474,-1
 1388 786 l 1,4475,-1
 1392 786 l 1,4476,-1
 1392 791 l 1,4465,-1
922 782 m 1,4477,-1
 931 782 l 1,4478,-1
 931 778 l 1,4479,-1
 935 778 l 1,4480,-1
 935 773 l 1,4481,-1
 940 773 l 1,4482,-1
 940 769 l 1,4483,-1
 944 769 l 1,4484,-1
 944 764 l 1,4485,-1
 948 764 l 1,4486,-1
 948 746 l 1,4487,-1
 944 746 l 1,4488,-1
 944 742 l 1,4489,-1
 940 742 l 1,4490,-1
 940 738 l 1,4491,-1
 926 738 l 1,4492,-1
 926 742 l 1,4493,-1
 918 742 l 1,4494,-1
 918 746 l 1,4495,-1
 913 746 l 1,4496,-1
 913 756 l 1,4497,-1
 908 756 l 1,4498,-1
 908 760 l 1,4499,-1
 913 760 l 1,4500,-1
 913 769 l 1,4501,-1
 918 769 l 1,4502,-1
 918 778 l 1,4503,-1
 922 778 l 1,4504,-1
 922 782 l 1,4477,-1
1964 778 m 1,4505,-1
 1968 778 l 1,4506,-1
 1968 769 l 1,4507,-1
 1964 769 l 1,4508,-1
 1964 764 l 1,4509,-1
 1951 764 l 1,4510,-1
 1951 769 l 1,4511,-1
 1959 769 l 1,4512,-1
 1959 773 l 1,4513,-1
 1964 773 l 1,4514,-1
 1964 778 l 1,4505,-1
1937 764 m 1,4515,-1
 1951 764 l 1,4516,-1
 1951 760 l 1,4517,-1
 1946 760 l 1,4518,-1
 1946 756 l 1,4519,-1
 1937 756 l 1,4520,-1
 1937 751 l 1,4521,-1
 1924 751 l 1,4522,-1
 1924 756 l 1,4523,-1
 1928 756 l 1,4524,-1
 1928 760 l 1,4525,-1
 1937 760 l 1,4526,-1
 1937 764 l 1,4515,-1
1370 751 m 1,4527,-1
 1374 751 l 1,4528,-1
 1374 746 l 1,4529,-1
 1370 746 l 1,4530,-1
 1370 751 l 1,4527,-1
1360 746 m 1,4531,-1
 1365 746 l 1,4532,-1
 1365 742 l 1,4533,-1
 1360 742 l 1,4534,-1
 1360 746 l 1,4531,-1
824 733 m 1,4535,-1
 838 733 l 1,4536,-1
 838 729 l 1,4537,-1
 842 729 l 1,4538,-1
 842 716 l 1,4539,-1
 851 716 l 1,4540,-1
 851 729 l 1,4541,-1
 860 729 l 1,4542,-1
 860 724 l 1,4543,-1
 865 724 l 1,4544,-1
 865 720 l 1,4545,-1
 878 720 l 1,4546,-1
 878 716 l 1,4547,-1
 882 716 l 1,4548,-1
 882 711 l 1,4549,-1
 878 711 l 1,4550,-1
 878 703 l 1,4551,-1
 868 703 l 1,4552,-1
 868 698 l 1,4553,-1
 847 698 l 1,4554,-1
 847 693 l 1,4555,-1
 842 693 l 1,4556,-1
 842 698 l 1,4557,-1
 838 698 l 1,4558,-1
 838 703 l 1,4559,-1
 833 703 l 1,4560,-1
 833 711 l 1,4561,-1
 829 711 l 1,4562,-1
 829 720 l 1,4563,-1
 824 720 l 1,4564,-1
 824 733 l 1,4535,-1
984 693 m 1,4565,-1
 984 689 l 1,4566,-1
 975 689 l 1,4567,-1
 975 685 l 1,4568,-1
 966 685 l 1,4569,-1
 966 680 l 1,4570,-1
 961 680 l 1,4571,-1
 961 675 l 1,4572,-1
 957 675 l 1,4573,-1
 957 671 l 1,4574,-1
 953 671 l 1,4575,-1
 953 667 l 1,4576,-1
 948 667 l 1,4577,-1
 948 662 l 1,4578,-1
 944 662 l 1,4579,-1
 944 658 l 1,4580,-1
 940 658 l 1,4581,-1
 940 653 l 1,4582,-1
 935 653 l 1,4583,-1
 935 649 l 1,4584,-1
 931 649 l 1,4585,-1
 931 645 l 1,4586,-1
 926 645 l 1,4587,-1
 926 640 l 1,4588,-1
 922 640 l 1,4589,-1
 922 622 l 1,4590,-1
 1002 622 l 1,4591,-1
 1002 627 l 1,4592,-1
 1019 627 l 1,4593,-1
 1019 631 l 1,4594,-1
 1037 631 l 1,4595,-1
 1037 635 l 1,4596,-1
 1050 635 l 1,4597,-1
 1050 640 l 1,4598,-1
 1059 640 l 1,4599,-1
 1059 645 l 1,4600,-1
 1064 645 l 1,4601,-1
 1064 649 l 1,4602,-1
 1068 649 l 1,4603,-1
 1068 667 l 1,4604,-1
 1064 667 l 1,4605,-1
 1064 675 l 1,4606,-1
 1055 675 l 1,4607,-1
 1055 680 l 1,4608,-1
 1050 680 l 1,4609,-1
 1050 685 l 1,4610,-1
 1042 685 l 1,4611,-1
 1042 689 l 1,4612,-1
 1032 689 l 1,4613,-1
 1032 693 l 1,4614,-1
 984 693 l 1,4565,-1
2123 671 m 1,4615,-1
 2128 671 l 1,4616,-1
 2128 667 l 1,4617,-1
 2132 667 l 1,4618,-1
 2132 662 l 1,4619,-1
 2221 662 l 1,4620,-1
 2221 658 l 1,4621,-1
 2230 658 l 1,4622,-1
 2230 635 l 1,4623,-1
 2226 635 l 1,4624,-1
 2226 627 l 1,4625,-1
 2221 627 l 1,4626,-1
 2221 618 l 1,4627,-1
 2216 618 l 1,4628,-1
 2216 614 l 1,4629,-1
 2212 614 l 1,4630,-1
 2212 609 l 1,4631,-1
 2208 609 l 1,4632,-1
 2208 605 l 1,4633,-1
 2203 605 l 1,4634,-1
 2203 596 l 1,4635,-1
 2198 596 l 1,4636,-1
 2198 592 l 1,4637,-1
 2194 592 l 1,4638,-1
 2194 587 l 1,4639,-1
 2190 587 l 1,4640,-1
 2190 582 l 1,4641,-1
 2185 582 l 1,4642,-1
 2185 578 l 1,4643,-1
 2181 578 l 1,4644,-1
 2181 569 l 1,4645,-1
 2176 569 l 1,4646,-1
 2176 565 l 1,4647,-1
 2172 565 l 1,4648,-1
 2172 560 l 1,4649,-1
 2163 560 l 1,4650,-1
 2163 556 l 1,4651,-1
 2159 556 l 1,4652,-1
 2159 551 l 1,4653,-1
 2150 551 l 1,4654,-1
 2150 547 l 1,4655,-1
 2145 547 l 1,4656,-1
 2145 543 l 1,4657,-1
 2137 543 l 1,4658,-1
 2137 538 l 1,4659,-1
 2128 538 l 1,4660,-1
 2128 534 l 1,4661,-1
 2119 534 l 1,4662,-1
 2119 529 l 1,4663,-1
 2115 529 l 1,4664,-1
 2115 525 l 1,4665,-1
 2105 525 l 1,4666,-1
 2105 521 l 1,4667,-1
 2097 521 l 1,4668,-1
 2097 516 l 1,4669,-1
 2084 516 l 1,4670,-1
 2084 511 l 1,4671,-1
 2079 511 l 1,4672,-1
 2079 507 l 1,4673,-1
 2061 507 l 1,4674,-1
 2061 511 l 1,4675,-1
 2070 511 l 1,4676,-1
 2070 516 l 1,4677,-1
 2074 516 l 1,4678,-1
 2074 521 l 1,4679,-1
 2084 521 l 1,4680,-1
 2084 525 l 1,4681,-1
 2092 525 l 1,4682,-1
 2092 529 l 1,4683,-1
 2101 529 l 1,4684,-1
 2101 534 l 1,4685,-1
 2105 534 l 1,4686,-1
 2105 538 l 1,4687,-1
 2115 538 l 1,4688,-1
 2115 543 l 1,4689,-1
 2123 543 l 1,4690,-1
 2123 547 l 1,4691,-1
 2128 547 l 1,4692,-1
 2128 551 l 1,4693,-1
 2137 551 l 1,4694,-1
 2137 556 l 1,4695,-1
 2141 556 l 1,4696,-1
 2141 560 l 1,4697,-1
 2150 560 l 1,4698,-1
 2150 565 l 1,4699,-1
 2155 565 l 1,4700,-1
 2155 569 l 1,4701,-1
 2159 569 l 1,4702,-1
 2159 574 l 1,4703,-1
 2168 574 l 1,4704,-1
 2168 578 l 1,4705,-1
 2172 578 l 1,4706,-1
 2172 582 l 1,4707,-1
 2181 582 l 1,4708,-1
 2181 587 l 1,4709,-1
 2185 587 l 1,4710,-1
 2185 592 l 1,4711,-1
 2190 592 l 1,4712,-1
 2190 596 l 1,4713,-1
 2194 596 l 1,4714,-1
 2194 600 l 1,4715,-1
 2198 600 l 1,4716,-1
 2198 609 l 1,4717,-1
 2203 609 l 1,4718,-1
 2203 614 l 1,4719,-1
 2208 614 l 1,4720,-1
 2208 631 l 1,4721,-1
 2119 631 l 1,4722,-1
 2119 635 l 1,4723,-1
 2110 635 l 1,4724,-1
 2110 653 l 1,4725,-1
 2115 653 l 1,4726,-1
 2115 662 l 1,4727,-1
 2119 662 l 1,4728,-1
 2119 667 l 1,4729,-1
 2123 667 l 1,4730,-1
 2123 671 l 1,4615,-1
1888 667 m 1,4731,-1
 1897 667 l 1,4732,-1
 1897 662 l 1,4733,-1
 1902 662 l 1,4734,-1
 1902 658 l 1,4735,-1
 1906 658 l 1,4736,-1
 1906 653 l 1,4737,-1
 1910 653 l 1,4738,-1
 1910 635 l 1,4739,-1
 1906 635 l 1,4740,-1
 1906 631 l 1,4741,-1
 1902 631 l 1,4742,-1
 1902 627 l 1,4743,-1
 1888 627 l 1,4744,-1
 1888 631 l 1,4745,-1
 1884 631 l 1,4746,-1
 1884 635 l 1,4747,-1
 1880 635 l 1,4748,-1
 1880 645 l 1,4749,-1
 1875 645 l 1,4750,-1
 1875 649 l 1,4751,-1
 1880 649 l 1,4752,-1
 1880 658 l 1,4753,-1
 1884 658 l 1,4754,-1
 1884 662 l 1,4755,-1
 1888 662 l 1,4756,-1
 1888 667 l 1,4731,-1
1817 645 m 1,4757,-1
 1822 645 l 1,4758,-1
 1822 640 l 1,4759,-1
 1831 640 l 1,4760,-1
 1831 631 l 1,4761,-1
 1835 631 l 1,4762,-1
 1835 627 l 1,4763,-1
 1831 627 l 1,4764,-1
 1831 618 l 1,4765,-1
 1827 618 l 1,4766,-1
 1827 614 l 1,4767,-1
 1822 614 l 1,4768,-1
 1822 609 l 1,4769,-1
 1817 609 l 1,4770,-1
 1817 605 l 1,4771,-1
 1813 605 l 1,4772,-1
 1813 600 l 1,4773,-1
 1809 600 l 1,4774,-1
 1809 596 l 1,4775,-1
 1804 596 l 1,4776,-1
 1804 592 l 1,4777,-1
 1799 592 l 1,4778,-1
 1799 587 l 1,4779,-1
 1786 587 l 1,4780,-1
 1786 582 l 1,4781,-1
 1769 582 l 1,4782,-1
 1769 587 l 1,4783,-1
 1773 587 l 1,4784,-1
 1773 592 l 1,4785,-1
 1782 592 l 1,4786,-1
 1782 596 l 1,4787,-1
 1791 596 l 1,4788,-1
 1791 600 l 1,4789,-1
 1795 600 l 1,4790,-1
 1795 605 l 1,4791,-1
 1804 605 l 1,4792,-1
 1804 618 l 1,4793,-1
 1786 618 l 1,4794,-1
 1786 614 l 1,4795,-1
 1777 614 l 1,4796,-1
 1777 622 l 1,4797,-1
 1782 622 l 1,4798,-1
 1782 627 l 1,4799,-1
 1786 627 l 1,4800,-1
 1786 631 l 1,4801,-1
 1791 631 l 1,4802,-1
 1791 635 l 1,4803,-1
 1799 635 l 1,4804,-1
 1799 640 l 1,4805,-1
 1817 640 l 1,4806,-1
 1817 645 l 1,4757,-1
2070 614 m 1,4807,-1
 2084 614 l 1,4808,-1
 2084 609 l 1,4809,-1
 2088 609 l 1,4810,-1
 2088 605 l 1,4811,-1
 2097 605 l 1,4812,-1
 2097 600 l 1,4813,-1
 2105 600 l 1,4814,-1
 2105 605 l 1,4815,-1
 2115 605 l 1,4816,-1
 2115 609 l 1,4817,-1
 2123 609 l 1,4818,-1
 2123 614 l 1,4819,-1
 2128 614 l 1,4820,-1
 2128 609 l 1,4821,-1
 2141 609 l 1,4822,-1
 2141 605 l 1,4823,-1
 2145 605 l 1,4824,-1
 2145 596 l 1,4825,-1
 2150 596 l 1,4826,-1
 2150 592 l 1,4827,-1
 2145 592 l 1,4828,-1
 2145 582 l 1,4829,-1
 2141 582 l 1,4830,-1
 2141 578 l 1,4831,-1
 2123 578 l 1,4832,-1
 2123 582 l 1,4833,-1
 2101 582 l 1,4834,-1
 2101 578 l 1,4835,-1
 2092 578 l 1,4836,-1
 2092 574 l 1,4837,-1
 2070 574 l 1,4838,-1
 2070 578 l 1,4839,-1
 2066 578 l 1,4840,-1
 2066 582 l 1,4841,-1
 2061 582 l 1,4842,-1
 2061 605 l 1,4843,-1
 2066 605 l 1,4844,-1
 2066 609 l 1,4845,-1
 2070 609 l 1,4846,-1
 2070 614 l 1,4807,-1
1893 578 m 1,4847,-1
 1910 578 l 1,4848,-1
 1910 569 l 1,4849,-1
 1906 569 l 1,4850,-1
 1906 565 l 1,4851,-1
 1897 565 l 1,4852,-1
 1897 560 l 1,4853,-1
 1893 560 l 1,4854,-1
 1893 565 l 1,4855,-1
 1888 565 l 1,4856,-1
 1888 569 l 1,4857,-1
 1893 569 l 1,4858,-1
 1893 578 l 1,4847,-1
1857 569 m 1,4859,-1
 1870 569 l 1,4860,-1
 1870 565 l 1,4861,-1
 1875 565 l 1,4862,-1
 1875 560 l 1,4863,-1
 1880 560 l 1,4864,-1
 1880 556 l 1,4865,-1
 1888 556 l 1,4866,-1
 1888 560 l 1,4867,-1
 1893 560 l 1,4868,-1
 1893 556 l 1,4869,-1
 1897 556 l 1,4870,-1
 1897 551 l 1,4871,-1
 1893 551 l 1,4872,-1
 1893 534 l 1,4873,-1
 1888 534 l 1,4874,-1
 1888 525 l 1,4875,-1
 1880 525 l 1,4876,-1
 1880 534 l 1,4877,-1
 1875 534 l 1,4878,-1
 1875 538 l 1,4879,-1
 1862 538 l 1,4880,-1
 1862 534 l 1,4881,-1
 1857 534 l 1,4882,-1
 1857 529 l 1,4883,-1
 1853 529 l 1,4884,-1
 1853 525 l 1,4885,-1
 1848 525 l 1,4886,-1
 1848 521 l 1,4887,-1
 1844 521 l 1,4888,-1
 1844 516 l 1,4889,-1
 1840 516 l 1,4890,-1
 1840 511 l 1,4891,-1
 1835 511 l 1,4892,-1
 1835 507 l 1,4893,-1
 1827 507 l 1,4894,-1
 1827 503 l 1,4895,-1
 1822 503 l 1,4896,-1
 1822 498 l 1,4897,-1
 1813 498 l 1,4898,-1
 1813 494 l 1,4899,-1
 1804 494 l 1,4900,-1
 1804 489 l 1,4901,-1
 1786 489 l 1,4902,-1
 1786 485 l 1,4903,-1
 1773 485 l 1,4904,-1
 1773 489 l 1,4905,-1
 1782 489 l 1,4906,-1
 1782 494 l 1,4907,-1
 1791 494 l 1,4908,-1
 1791 498 l 1,4909,-1
 1799 498 l 1,4910,-1
 1799 503 l 1,4911,-1
 1804 503 l 1,4912,-1
 1804 507 l 1,4913,-1
 1817 507 l 1,4914,-1
 1817 511 l 1,4915,-1
 1822 511 l 1,4916,-1
 1822 516 l 1,4917,-1
 1831 516 l 1,4918,-1
 1831 521 l 1,4919,-1
 1835 521 l 1,4920,-1
 1835 525 l 1,4921,-1
 1844 525 l 1,4922,-1
 1844 529 l 1,4923,-1
 1848 529 l 1,4924,-1
 1848 534 l 1,4925,-1
 1853 534 l 1,4926,-1
 1853 538 l 1,4927,-1
 1857 538 l 1,4928,-1
 1857 569 l 1,4859,-1
1552 556 m 1,4929,-1
 1552 543 l 1,4930,-1
 1569 543 l 1,4931,-1
 1569 547 l 1,4932,-1
 1574 547 l 1,4933,-1
 1574 551 l 1,4934,-1
 1569 551 l 1,4935,-1
 1569 556 l 1,4936,-1
 1552 556 l 1,4929,-1
851 543 m 1,4937,-1
 855 543 l 1,4938,-1
 855 529 l 1,4939,-1
 860 529 l 1,4940,-1
 860 521 l 1,4941,-1
 851 521 l 1,4942,-1
 851 525 l 1,4943,-1
 847 525 l 1,4944,-1
 847 538 l 1,4945,-1
 851 538 l 1,4946,-1
 851 543 l 1,4937,-1
1210 511 m 1,4947,-1
 1232 511 l 1,4948,-1
 1232 507 l 1,4949,-1
 1228 507 l 1,4950,-1
 1228 503 l 1,4951,-1
 1219 503 l 1,4952,-1
 1219 498 l 1,4953,-1
 1206 498 l 1,4954,-1
 1206 494 l 1,4955,-1
 1192 494 l 1,4956,-1
 1192 489 l 1,4957,-1
 1179 489 l 1,4958,-1
 1179 485 l 1,4959,-1
 1170 485 l 1,4960,-1
 1170 481 l 1,4961,-1
 1157 481 l 1,4962,-1
 1157 476 l 1,4963,-1
 1143 476 l 1,4964,-1
 1143 485 l 1,4965,-1
 1153 485 l 1,4966,-1
 1153 489 l 1,4967,-1
 1157 489 l 1,4968,-1
 1157 494 l 1,4969,-1
 1170 494 l 1,4970,-1
 1170 498 l 1,4971,-1
 1183 498 l 1,4972,-1
 1183 503 l 1,4973,-1
 1196 503 l 1,4974,-1
 1196 507 l 1,4975,-1
 1210 507 l 1,4976,-1
 1210 511 l 1,4947,-1
1445 507 m 1,4977,-1
 1454 507 l 1,4978,-1
 1454 503 l 1,4979,-1
 1458 503 l 1,4980,-1
 1458 489 l 1,4981,-1
 1463 489 l 1,4982,-1
 1463 485 l 1,4983,-1
 1458 485 l 1,4984,-1
 1458 476 l 1,4985,-1
 1449 476 l 1,4986,-1
 1449 471 l 1,4987,-1
 1445 471 l 1,4988,-1
 1445 476 l 1,4989,-1
 1441 476 l 1,4990,-1
 1441 481 l 1,4991,-1
 1436 481 l 1,4992,-1
 1436 485 l 1,4993,-1
 1441 485 l 1,4994,-1
 1441 498 l 1,4995,-1
 1445 498 l 1,4996,-1
 1445 507 l 1,4977,-1
2137 494 m 1,4997,-1
 2141 494 l 1,4998,-1
 2141 489 l 1,4999,-1
 2145 489 l 1,5000,-1
 2145 476 l 1,5001,-1
 2137 476 l 1,5002,-1
 2137 485 l 1,5003,-1
 2132 485 l 1,5004,-1
 2132 489 l 1,5005,-1
 2137 489 l 1,5006,-1
 2137 494 l 1,4997,-1
1028 485 m 1,5007,-1
 1042 485 l 1,5008,-1
 1042 471 l 1,5009,-1
 1032 471 l 1,5010,-1
 1032 467 l 1,5011,-1
 984 467 l 1,5012,-1
 984 463 l 1,5013,-1
 975 463 l 1,5014,-1
 975 458 l 1,5015,-1
 971 458 l 1,5016,-1
 971 454 l 1,5017,-1
 961 454 l 1,5018,-1
 961 450 l 1,5019,-1
 957 450 l 1,5020,-1
 957 445 l 1,5021,-1
 953 445 l 1,5022,-1
 953 441 l 1,5023,-1
 940 441 l 1,5024,-1
 940 436 l 1,5025,-1
 926 436 l 1,5026,-1
 926 432 l 1,5027,-1
 908 432 l 1,5028,-1
 908 436 l 1,5029,-1
 913 436 l 1,5030,-1
 913 441 l 1,5031,-1
 922 441 l 1,5032,-1
 922 445 l 1,5033,-1
 931 445 l 1,5034,-1
 931 450 l 1,5035,-1
 944 450 l 1,5036,-1
 944 454 l 1,5037,-1
 953 454 l 1,5038,-1
 953 458 l 1,5039,-1
 961 458 l 1,5040,-1
 961 463 l 1,5041,-1
 966 463 l 1,5042,-1
 966 467 l 1,5043,-1
 971 467 l 1,5044,-1
 971 471 l 1,5045,-1
 979 471 l 1,5046,-1
 979 476 l 1,5047,-1
 984 476 l 1,5048,-1
 984 481 l 1,5049,-1
 1028 481 l 1,5050,-1
 1028 485 l 1,5007,-1
1764 485 m 1,5051,-1
 1773 485 l 1,5052,-1
 1773 481 l 1,5053,-1
 1764 481 l 1,5054,-1
 1764 485 l 1,5051,-1
1640 476 m 1,5055,-1
 1653 476 l 1,5056,-1
 1653 463 l 1,5057,-1
 1649 463 l 1,5058,-1
 1649 458 l 1,5059,-1
 1645 458 l 1,5060,-1
 1645 454 l 1,5061,-1
 1640 454 l 1,5062,-1
 1640 428 l 1,5063,-1
 1631 428 l 1,5064,-1
 1631 436 l 1,5065,-1
 1627 436 l 1,5066,-1
 1627 454 l 1,5067,-1
 1631 454 l 1,5068,-1
 1631 467 l 1,5069,-1
 1635 467 l 1,5070,-1
 1635 471 l 1,5071,-1
 1640 471 l 1,5072,-1
 1640 476 l 1,5055,-1
1050 454 m 1,5073,-1
 1059 454 l 1,5074,-1
 1059 445 l 1,5075,-1
 1055 445 l 1,5076,-1
 1055 441 l 1,5077,-1
 1042 441 l 1,5078,-1
 1042 436 l 1,5079,-1
 1028 436 l 1,5080,-1
 1028 432 l 1,5081,-1
 1015 432 l 1,5082,-1
 1015 428 l 1,5083,-1
 1002 428 l 1,5084,-1
 1002 423 l 1,5085,-1
 989 423 l 1,5086,-1
 989 418 l 1,5087,-1
 979 418 l 1,5088,-1
 979 414 l 1,5089,-1
 971 414 l 1,5090,-1
 971 423 l 1,5091,-1
 975 423 l 1,5092,-1
 975 428 l 1,5093,-1
 979 428 l 1,5094,-1
 979 432 l 1,5095,-1
 989 432 l 1,5096,-1
 989 436 l 1,5097,-1
 1006 436 l 1,5098,-1
 1006 441 l 1,5099,-1
 1024 441 l 1,5100,-1
 1024 445 l 1,5101,-1
 1037 445 l 1,5102,-1
 1037 450 l 1,5103,-1
 1050 450 l 1,5104,-1
 1050 454 l 1,5073,-1
2066 450 m 1,5105,-1
 2088 450 l 1,5106,-1
 2088 445 l 1,5107,-1
 2084 445 l 1,5108,-1
 2084 441 l 1,5109,-1
 2074 441 l 1,5110,-1
 2074 436 l 1,5111,-1
 2061 436 l 1,5112,-1
 2061 432 l 1,5113,-1
 2048 432 l 1,5114,-1
 2048 428 l 1,5115,-1
 2034 428 l 1,5116,-1
 2034 423 l 1,5117,-1
 2021 423 l 1,5118,-1
 2021 418 l 1,5119,-1
 2012 418 l 1,5120,-1
 2012 428 l 1,5121,-1
 2017 428 l 1,5122,-1
 2017 432 l 1,5123,-1
 2026 432 l 1,5124,-1
 2026 436 l 1,5125,-1
 2039 436 l 1,5126,-1
 2039 441 l 1,5127,-1
 2052 441 l 1,5128,-1
 2052 445 l 1,5129,-1
 2066 445 l 1,5130,-1
 2066 450 l 1,5105,-1
2274 361 m 1,5131,-1
 2287 361 l 1,5132,-1
 2287 357 l 1,5133,-1
 2274 357 l 1,5134,-1
 2274 361 l 1,5131,-1
1565 1144 m 2,5135,-1
 1567 1144 l 2,5136,5137
 1570 1144 1570 1144 1571 1141 c 2,5138,-1
 1571 1139 l 2,5139,5140
 1571 1130 1571 1130 1557 1116 c 0,5141,5142
 1551 1109 1551 1109 1550 1105 c 1,5143,-1
 1550 1105 l 1,5144,5145
 1550 1110 1550 1110 1556 1120 c 0,5146,5147
 1563 1127 1563 1127 1566 1132 c 2,5148,-1
 1566 1134 l 2,5149,5150
 1564 1135 1564 1135 1562 1135 c 2,5151,-1
 1561 1135 l 2,5152,5153
 1549 1135 1549 1135 1495 1106 c 0,5154,5155
 1485 1100 1485 1100 1485 1099 c 2,5156,-1
 1485 1098 l 1,5157,5158
 1495 1079 1495 1079 1522 1026 c 0,5159,5160
 1531 1011 1531 1011 1539 1009 c 0,5161,5162
 1543 1008 1543 1008 1547 1008 c 2,5163,-1
 1549 1008 l 2,5164,5165
 1560 1008 1560 1008 1571 1021 c 0,5166,5167
 1574 1023 1574 1023 1575 1023 c 1,5168,-1
 1575 1023 l 1,5169,5170
 1576 1023 1576 1023 1576 1022 c 0,5171,5172
 1576 1020 1576 1020 1576 1019 c 0,5173,5174
 1576 1011 1576 1011 1582 1011 c 1,5175,-1
 1582 1010 l 1,5176,-1
 1583 1011 l 1,5177,-1
 1584 1011 l 2,5178,5179
 1596 1011 1596 1011 1599 1023 c 0,5180,5181
 1600 1027 1600 1027 1600 1031 c 2,5182,-1
 1600 1035 l 2,5183,5184
 1600 1078 1600 1078 1594 1109 c 0,5185,5186
 1596 1119 1596 1119 1597 1119 c 0,5187,5188
 1599 1116 1599 1116 1602 1099 c 0,5189,5190
 1605 1088 1605 1088 1607 1028 c 0,5191,5192
 1609 1013 1609 1013 1614 1013 c 1,5193,5194
 1608 1021 1608 1021 1608 1028 c 0,5195,5196
 1608 1044 1608 1044 1623 1050 c 0,5197,5198
 1627 1051 1627 1051 1631 1051 c 0,5199,5200
 1643 1051 1643 1051 1653 1042 c 0,5201,5202
 1654 1042 1654 1042 1654 1041 c 1,5203,5204
 1653 1041 1653 1041 1653 1041 c 2,5205,5206
 1643 1044 1643 1044 1639 1044 c 0,5207,5208
 1625 1044 1625 1044 1614 1037 c 1,5209,-1
 1614 1036 l 2,5210,5211
 1614 1028 1614 1028 1620 1020 c 256,5212,5213
 1626 1012 1626 1012 1637 1012 c 0,5214,5215
 1645 1012 1645 1012 1664 1027 c 1,5216,-1
 1665 1027 l 1,5217,-1
 1665 1026 l 1,5218,5219
 1661 1016 1661 1016 1659 1016 c 0,5220,5221
 1641 1000 1641 1000 1625 1000 c 2,5222,-1
 1619 1001 l 1,5223,5224
 1615 989 1615 989 1615 983 c 0,5225,5226
 1615 972 1615 972 1622 972 c 0,5227,5228
 1631 972 1631 972 1645 989 c 0,5229,5230
 1660 1004 1660 1004 1668 1009 c 0,5231,5232
 1684 1018 1684 1018 1687 1018 c 1,5233,5234
 1683 1025 1683 1025 1683 1027 c 1,5235,-1
 1683 1027 l 1,5236,5237
 1683 1036 1683 1036 1690 1039 c 2,5238,-1
 1694 1039 l 2,5239,5240
 1700 1038 1700 1038 1711 1028 c 0,5241,5242
 1712 1026 1712 1026 1712 1025 c 0,5243,5244
 1710 1016 1710 1016 1708 1016 c 0,5245,5246
 1700 1013 1700 1013 1694 1011 c 1,5247,-1
 1694 1008 l 2,5248,5249
 1694 1007 1694 1007 1693 1007 c 256,5250,5251
 1692 1007 1692 1007 1691 1010 c 1,5252,5253
 1668 1002 1668 1002 1654 988 c 0,5254,5255
 1633 965 1633 965 1631 965 c 0,5256,5257
 1628 964 1628 964 1627 964 c 2,5258,-1
 1624 964 l 2,5259,5260
 1619 964 1619 964 1614 973 c 0,5261,5262
 1612 977 1612 977 1612 981 c 0,5263,5264
 1612 989 1612 989 1617 1001 c 1,5265,-1
 1617 1001 l 1,5266,5267
 1607 1001 1607 1001 1604 1012 c 0,5268,5269
 1603 1018 1603 1018 1603 1020 c 1,5270,-1
 1602 1020 l 1,5271,5272
 1602 1010 1602 1010 1593 1003 c 0,5273,5274
 1588 999 1588 999 1583 999 c 0,5275,5276
 1577 1000 1577 1000 1575 1003 c 0,5277,5278
 1572 1007 1572 1007 1572 1011 c 2,5279,-1
 1571 1012 l 1,5280,5281
 1571 1012 1571 1012 1562 1002 c 0,5282,5283
 1556 997 1556 997 1545 997 c 0,5284,5285
 1527 997 1527 997 1511 1031 c 1,5286,-1
 1511 1031 l 1,5287,-1
 1511 1030 l 2,5288,5289
 1511 1015 1511 1015 1499 1006 c 0,5290,5291
 1477 988 1477 988 1452 988 c 0,5292,5293
 1431 988 1431 988 1427 1005 c 0,5294,5295
 1426 1007 1426 1007 1426 1009 c 2,5296,-1
 1426 1015 l 2,5297,5298
 1426 1023 1426 1023 1432 1033 c 1,5299,-1
 1433 1033 l 1,5300,-1
 1433 1033 l 1,5301,-1
 1429 1020 l 1,5302,-1
 1428 1015 l 2,5303,5304
 1428 1005 1428 1005 1444 1000 c 0,5305,5306
 1448 999 1448 999 1454 999 c 0,5307,5308
 1473 999 1473 999 1493 1012 c 0,5309,5310
 1507 1022 1507 1022 1507 1029 c 1,5311,-1
 1508 1030 l 1,5312,5313
 1508 1040 1508 1040 1487 1079 c 0,5314,5315
 1482 1089 1482 1089 1482 1092 c 2,5316,-1
 1482 1094 l 2,5317,5318
 1482 1108 1482 1108 1488 1110 c 0,5319,5320
 1504 1122 1504 1122 1546 1139 c 0,5321,5322
 1560 1144 1560 1144 1565 1144 c 2,5135,-1
1858 1125 m 1,5323,-1
 1858 1125 l 1,5324,5325
 1862 1118 1862 1118 1867 1102 c 1,5326,-1
 1867 1101 l 1,5327,-1
 1866 1101 l 1,5328,-1
 1866 1101 l 1,5329,5330
 1863 1103 1863 1103 1863 1104 c 1,5331,-1
 1862 1104 l 1,5332,5333
 1866 1046 1866 1046 1866 1041 c 0,5334,5335
 1866 1014 1866 1014 1852 1008 c 0,5336,5337
 1851 1008 1851 1008 1848 1008 c 0,5338,5339
 1840 1008 1840 1008 1837 1019 c 1,5340,-1
 1836 1019 l 1,5341,5342
 1833 1012 1833 1012 1830 1009 c 0,5343,5344
 1826 1006 1826 1006 1824 1006 c 2,5345,-1
 1822 1006 l 2,5346,5347
 1815 1006 1815 1006 1813 1014 c 0,5348,5349
 1812 1016 1812 1016 1812 1018 c 1,5350,-1
 1812 1018 l 1,5351,5352
 1802 1004 1802 1004 1791 1004 c 0,5353,5354
 1783 1004 1783 1004 1781 1012 c 0,5355,5356
 1780 1017 1780 1017 1779 1017 c 1,5357,-1
 1779 1017 l 1,5358,5359
 1768 1004 1768 1004 1765 1004 c 0,5360,5361
 1762 1002 1762 1002 1756 1002 c 0,5362,5363
 1746 1002 1746 1002 1743 1015 c 0,5364,5365
 1742 1020 1742 1020 1742 1022 c 1,5366,-1
 1742 1022 l 1,5367,5368
 1739 1004 1739 1004 1733 1000 c 0,5369,5370
 1726 992 1726 992 1720 990 c 0,5371,5372
 1703 984 1703 984 1697 984 c 1,5373,-1
 1697 984 l 1,5374,5375
 1698 986 1698 986 1722 1000 c 0,5376,5377
 1740 1012 1740 1012 1740 1036 c 0,5378,5379
 1740 1077 1740 1077 1734 1110 c 0,5380,5381
 1736 1120 1736 1120 1737 1120 c 1,5382,-1
 1737 1120 l 1,5383,5384
 1746 1093 1746 1093 1746 1044 c 0,5385,5386
 1747 1019 1747 1019 1750 1016 c 0,5387,5388
 1751 1013 1751 1013 1756 1013 c 2,5389,5390
 1756 1013 1756 1013 1757 1013 c 0,5391,5392
 1768 1013 1768 1013 1779 1026 c 0,5393,5394
 1782 1028 1782 1028 1783 1028 c 256,5395,5396
 1784 1028 1784 1028 1784 1027 c 0,5397,5398
 1783 1024 1783 1024 1783 1023 c 2,5399,-1
 1783 1022 l 2,5400,5401
 1783 1015 1783 1015 1795 1015 c 1,5402,-1
 1795 1015 l 1,5403,5404
 1804 1015 1804 1015 1816 1030 c 1,5405,-1
 1816 1030 l 1,5406,5407
 1817 1030 1817 1030 1817 1029 c 256,5408,5409
 1817 1028 1817 1028 1816 1024 c 0,5410,5411
 1818 1017 1818 1017 1822 1017 c 2,5412,-1
 1824 1017 l 2,5413,5414
 1832 1017 1832 1017 1839 1031 c 1,5415,-1
 1840 1031 l 1,5416,5417
 1840 1031 1840 1031 1840 1031 c 1,5418,-1
 1840 1029 l 2,5419,5420
 1840 1021 1840 1021 1846 1019 c 0,5421,5422
 1848 1019 1848 1019 1849 1019 c 1,5423,-1
 1849 1019 l 1,5424,5425
 1860 1020 1860 1020 1860 1026 c 0,5426,5427
 1860 1027 1860 1027 1860 1030 c 0,5428,5429
 1860 1034 1860 1034 1855 1113 c 1,5430,5431
 1855 1113 1855 1113 1854 1116 c 0,5432,5433
 1855 1122 1855 1122 1858 1125 c 1,5323,-1
1872 1124 m 1,5434,-1
 1873 1124 l 1,5435,5436
 1877 1117 1877 1117 1882 1101 c 1,5437,-1
 1882 1099 l 1,5438,-1
 1881 1099 l 1,5439,-1
 1877 1103 l 1,5440,5441
 1877 1102 1877 1102 1877 1102 c 1,5442,5443
 1881 1050 1881 1050 1882 1030 c 0,5444,5445
 1882 1015 1882 1015 1876 1005 c 1,5446,-1
 1876 1005 l 1,5447,5448
 1876 1013 1876 1013 1876 1018 c 1,5449,-1
 1876 1018 l 1,5450,5451
 1876 1029 1876 1029 1870 1111 c 0,5452,5453
 1869 1113 1869 1113 1869 1115 c 0,5454,5455
 1869 1116 1869 1116 1872 1124 c 1,5434,-1
1667 1108 m 0,5456,5457
 1678 1100 1678 1100 1684 1095 c 0,5458,5459
 1684 1094 1684 1094 1684 1094 c 1,5460,-1
 1683 1094 l 2,5461,5462
 1681 1094 1681 1094 1678 1095 c 1,5463,5464
 1678 1093 1678 1093 1719 1051 c 0,5465,5466
 1732 1035 1732 1035 1732 1023 c 0,5467,5468
 1732 1020 1732 1020 1731 1012 c 1,5469,-1
 1730 1012 l 1,5470,5471
 1729 1023 1729 1023 1726 1028 c 0,5472,5473
 1723 1036 1723 1036 1710 1050 c 0,5474,5475
 1678 1080 1678 1080 1675 1086 c 0,5476,5477
 1670 1094 1670 1094 1666 1098 c 1,5478,-1
 1666 1107 l 1,5479,5480
 1666 1107 1666 1107 1667 1108 c 0,5456,5457
1688 1027 m 1,5481,5482
 1692 1019 1692 1019 1692 1019 c 2,5483,5484
 1693 1019 1693 1019 1702 1022 c 1,5485,-1
 1702 1023 l 2,5486,5487
 1700 1025 1700 1025 1692 1027 c 0,5488,5489
 1691 1027 1691 1027 1690 1028 c 0,5490,5491
 1688 1027 1688 1027 1688 1027 c 1,5481,5482
1542 983 m 1,5492,-1
 1545 983 l 1,5493,-1
 1545 981 l 1,5494,-1
 1547 981 l 1,5495,-1
 1547 979 l 1,5496,-1
 1549 979 l 1,5497,-1
 1549 977 l 1,5498,-1
 1551 977 l 1,5499,-1
 1551 969 l 1,5500,-1
 1549 969 l 1,5501,-1
 1549 968 l 1,5502,-1
 1547 968 l 1,5503,-1
 1547 966 l 1,5504,-1
 1542 966 l 1,5505,-1
 1542 968 l 1,5506,-1
 1540 968 l 1,5507,-1
 1540 969 l 1,5508,-1
 1538 969 l 1,5509,-1
 1538 974 l 1,5510,-1
 1536 974 l 1,5511,-1
 1536 975 l 1,5512,-1
 1538 975 l 1,5513,-1
 1538 979 l 1,5514,-1
 1540 979 l 1,5515,-1
 1540 981 l 1,5516,-1
 1542 981 l 1,5517,-1
 1542 983 l 1,5492,-1
1559 983 m 1,5518,-1
 1562 983 l 1,5519,-1
 1562 981 l 1,5520,-1
 1564 981 l 1,5521,-1
 1564 979 l 1,5522,-1
 1566 979 l 1,5523,-1
 1566 977 l 1,5524,-1
 1568 977 l 1,5525,-1
 1568 969 l 1,5526,-1
 1566 969 l 1,5527,-1
 1566 968 l 1,5528,-1
 1564 968 l 1,5529,-1
 1564 966 l 1,5530,-1
 1559 966 l 1,5531,-1
 1559 968 l 1,5532,-1
 1557 968 l 1,5533,-1
 1557 969 l 1,5534,-1
 1555 969 l 1,5535,-1
 1555 974 l 1,5536,-1
 1553 974 l 1,5537,-1
 1553 975 l 1,5538,-1
 1555 975 l 1,5539,-1
 1555 979 l 1,5540,-1
 1557 979 l 1,5541,-1
 1557 981 l 1,5542,-1
 1559 981 l 1,5543,-1
 1559 983 l 1,5518,-1
EndSplineSet
Validated: 133
EndChar

StartChar: afii301
Encoding: 8205 8205 48
Width: 3994
GlyphClass: 1
Flags: W
LayerCount: 2
Fore
SplineSet
1914 2493 m 1,0,1
 1948 2493 1948 2493 1997 2425 c 0,2,3
 2012 2400 2012 2400 2012 2385 c 0,4,5
 2012 2314 2012 2314 1929 2253 c 1,6,7
 1845 2309 1845 2309 1836 2336 c 1,8,9
 1845 2366 1845 2366 1914 2493 c 1,0,1
1733 2483 m 1,10,-1
 1743 2483 l 1,11,12
 1831 2426 1831 2426 1831 2371 c 0,13,14
 1831 2314 1831 2314 1752 2244 c 1,15,-1
 1743 2244 l 1,16,17
 1655 2309 1655 2309 1655 2327 c 1,18,19
 1690 2408 1690 2408 1733 2483 c 1,10,-1
813 2351 m 0,20,21
 900 2351 900 2351 921 2214 c 1,22,23
 921 2081 921 2081 774 1970 c 1,24,25
 555 1899 555 1899 510 1803 c 1,26,-1
 510 1798 l 1,27,28
 609 1725 609 1725 862 1725 c 2,29,-1
 975 1725 l 2,30,31
 1727 1725 1727 1725 3063 1970 c 0,32,33
 3081 1970 3081 1970 3107 1974 c 1,34,35
 3161 1971 3161 1971 3161 1950 c 0,36,37
 3161 1836 3161 1836 1483 1588 c 1,38,39
 1107 1544 1107 1544 901 1544 c 0,40,41
 412 1544 412 1544 412 1657 c 2,42,-1
 412 1681 l 1,43,44
 479 1887 479 1887 618 1965 c 0,45,46
 784 2055 784 2055 833 2092 c 1,47,-1
 833 2102 l 2,48,49
 833 2116 833 2116 803 2131 c 1,50,51
 762 2126 762 2126 735 2126 c 1,52,53
 701 2133 701 2133 701 2160 c 1,54,55
 759 2351 759 2351 813 2351 c 0,20,21
3435 1984 m 1,56,57
 3605 1935 3605 1935 3631 1935 c 2,58,-1
 3655 1935 l 2,59,60
 3671 1935 3671 1935 3734 1960 c 1,61,-1
 3738 1950 l 1,62,63
 3738 1876 3738 1876 3611 1818 c 1,64,65
 2918 1239 2918 1239 2697 1187 c 1,66,67
 2267 991 2267 991 1757 991 c 1,68,69
 1433 1011 1433 1011 1386 1050 c 1,70,71
 1338 1079 1338 1079 1327 1079 c 1,72,73
 1240 947 1240 947 1156 947 c 2,74,-1
 1151 947 l 1,75,76
 1121 740 1121 740 1068 615 c 1,77,78
 900 253 900 253 637 253 c 2,79,-1
 613 253 l 2,80,81
 479 253 479 253 427 390 c 0,82,83
 412 437 412 437 412 478 c 2,84,-1
 412 492 l 2,85,86
 412 689 412 689 559 928 c 1,87,-1
 569 933 l 1,88,-1
 574 933 l 1,89,-1
 574 908 l 1,90,91
 476 684 476 684 476 605 c 0,92,93
 476 479 476 479 618 439 c 1,94,-1
 676 434 l 1,95,96
 979 434 979 434 1073 786 c 1,97,98
 1081 832 1081 832 1092 1030 c 1,99,100
 1118 1094 1118 1094 1161 1094 c 1,101,102
 1187 1089 1187 1089 1205 1089 c 2,103,-1
 1219 1089 l 2,104,105
 1283 1089 1283 1089 1381 1231 c 1,106,107
 1416 1246 1416 1246 1425 1246 c 0,108,109
 1629 1177 1629 1177 1806 1177 c 2,110,-1
 1865 1177 l 2,111,112
 2586 1177 2586 1177 3210 1613 c 1,113,114
 3388 1730 3388 1730 3553 1867 c 1,115,116
 3461 1911 3461 1911 3386 1911 c 0,117,118
 3365 1911 3365 1911 3308 1862 c 1,119,-1
 3303 1872 l 1,120,121
 3376 1984 3376 1984 3435 1984 c 1,56,57
3782 1490 m 1,122,123
 3851 1433 3851 1433 3851 1373 c 1,124,125
 3827 1280 3827 1280 3768 1280 c 1,126,127
 3714 1290 3714 1290 3714 1295 c 1,128,129
 3683 1295 3683 1295 3548 1128 c 1,130,131
 3509 1094 3509 1094 3484 1094 c 0,132,133
 3467 1094 3467 1094 3386 1143 c 1,134,135
 3365 1143 3365 1143 3171 967 c 1,136,137
 2897 771 2897 771 2687 664 c 1,138,139
 2298 492 2298 492 1933 492 c 2,140,-1
 1801 492 l 2,141,142
 1621 492 1621 492 1420 556 c 1,143,144
 1399 556 1399 556 1322 390 c 1,145,146
 1248 267 1248 267 1180 267 c 2,147,-1
 1170 267 l 1,148,149
 1151 277 1151 277 1151 292 c 0,150,151
 1151 318 1151 318 1273 448 c 1,152,153
 1343 547 1343 547 1415 693 c 1,154,155
 1457 737 1457 737 1498 737 c 1,156,157
 1692 673 1692 673 1943 673 c 0,158,159
 2717 673 2717 673 3381 1241 c 1,160,-1
 3401 1251 l 1,161,-1
 3513 1207 l 1,162,163
 3566 1212 3566 1212 3690 1387 c 1,164,165
 3717 1399 3717 1399 3782 1490 c 1,122,123
916 1387 m 0,166,167
 946 1387 946 1387 970 1353 c 1,168,-1
 970 1299 l 2,169,170
 970 1161 970 1161 784 1030 c 1,171,172
 723 1006 723 1006 681 1006 c 0,173,174
 632 1006 632 1006 559 1035 c 1,175,176
 546 1035 546 1035 446 898 c 1,177,178
 407 874 407 874 344 874 c 1,179,180
 251 905 251 905 251 996 c 1,181,-1
 241 996 l 1,182,183
 213 918 213 918 119 879 c 1,184,185
 -20 849 -20 849 -33 849 c 1,186,-1
 -33 859 l 1,187,188
 -18 875 -18 875 163 996 c 1,189,190
 266 1115 266 1115 329 1260 c 1,191,-1
 349 1275 l 1,192,-1
 353 1265 l 1,193,194
 329 1171 329 1171 329 1133 c 0,195,196
 329 1072 329 1072 412 1055 c 1,197,-1
 451 1055 l 2,198,199
 505 1055 505 1055 593 1158 c 1,200,-1
 622 1162 l 2,201,202
 637 1162 637 1162 686 1153 c 1,203,204
 784 1322 784 1322 872 1383 c 1,205,206
 898 1387 898 1387 916 1387 c 0,166,167
725 1158 m 1,207,-1
 725 1148 l 1,208,209
 841 1148 841 1148 916 1255 c 1,210,-1
 916 1270 l 2,211,212
 916 1286 916 1286 867 1295 c 1,213,214
 809 1295 809 1295 725 1158 c 1,207,-1
3841 1197 m 1,215,-1
 3846 1197 l 1,216,-1
 3846 1192 l 1,217,218
 3805 747 3805 747 3778 747 c 1,219,220
 3741 626 3741 626 3675 556 c 1,221,222
 3665 556 3665 556 3665 566 c 0,223,224
 3709 682 3709 682 3753 1006 c 1,225,226
 3811 1160 3811 1160 3841 1197 c 1,215,-1
799 942 m 1,227,-1
 813 942 l 1,228,229
 901 877 901 877 901 835 c 0,230,231
 901 745 901 745 813 703 c 1,232,-1
 803 703 l 2,233,234
 797 703 797 703 711 796 c 1,235,236
 744 858 744 858 799 942 c 1,227,-1
3611 580 m 1,237,-1
 3621 580 l 1,238,-1
 3621 575 l 1,239,240
 3611 508 3611 508 3592 419 c 1,241,-1
 3597 419 l 1,242,243
 3617 439 3617 439 3636 439 c 0,244,245
 3670 439 3670 439 3670 404 c 0,246,247
 3670 338 3670 338 3562 267 c 1,248,249
 3492 267 3492 267 3411 125 c 1,250,251
 3326 37 3326 37 3284 37 c 1,252,-1
 3284 42 l 1,253,254
 3397 127 3397 127 3479 277 c 1,255,256
 3519 314 3519 314 3626 355 c 1,257,-1
 3641 375 l 1,258,-1
 3611 390 l 1,259,260
 3590 390 3590 390 3533 321 c 1,261,-1
 3528 321 l 1,262,263
 3528 331 3528 331 3562 390 c 1,264,265
 3577 521 3577 521 3611 580 c 1,237,-1
3376 448 m 2,266,-1
 3381 448 l 1,267,268
 3358 196 3358 196 3303 169 c 1,269,-1
 3298 179 l 1,270,271
 3323 244 3323 244 3337 375 c 1,272,273
 3370 448 3370 448 3376 448 c 2,266,-1
3220 355 m 2,274,-1
 3244 355 l 1,275,276
 3313 350 3313 350 3313 336 c 2,277,-1
 3313 321 l 1,278,279
 3307 309 3307 309 3195 228 c 1,280,281
 3132 143 3132 143 3132 96 c 2,282,-1
 3132 77 l 2,283,284
 3132 16 3132 16 3215 3 c 1,285,-1
 3240 3 l 2,286,287
 3339 3 3339 3 3435 121 c 1,288,-1
 3440 121 l 1,289,-1
 3440 116 l 1,290,291
 3328 -80 3328 -80 3200 -80 c 2,292,-1
 3181 -80 l 2,293,294
 3096 -80 3096 -80 3088 28 c 1,295,296
 3088 166 3088 166 3235 292 c 0,297,298
 3251 306 3251 306 3259 306 c 1,299,300
 3259 321 3259 321 3200 321 c 0,301,302
 3188 321 3188 321 3166 306 c 1,303,-1
 3161 306 l 1,304,-1
 3161 311 l 1,305,306
 3187 355 3187 355 3220 355 c 2,274,-1
2785 258 m 1,307,308
 2819 258 2819 258 2868 189 c 0,309,310
 2882 165 2882 165 2882 150 c 0,311,312
 2882 79 2882 79 2799 18 c 1,313,314
 2715 74 2715 74 2706 101 c 1,315,316
 2716 130 2716 130 2785 258 c 1,307,308
2604 248 m 1,317,-1
 2613 248 l 1,318,319
 2701 191 2701 191 2701 135 c 0,320,321
 2701 78 2701 78 2623 8 c 1,322,-1
 2613 8 l 1,323,324
 2525 73 2525 73 2525 91 c 1,325,326
 2561 173 2561 173 2604 248 c 1,317,-1
1557 184 m 1,327,328
 1591 184 1591 184 1640 116 c 0,329,330
 1655 91 1655 91 1655 77 c 0,331,332
 1655 5 1655 5 1571 -56 c 1,333,334
 1487 0 1487 0 1479 28 c 1,335,-1
 1557 184 l 1,327,328
1376 174 m 1,336,-1
 1386 174 l 1,337,338
 1474 117 1474 117 1474 62 c 0,339,340
 1474 5 1474 5 1395 -65 c 1,341,-1
 1386 -65 l 1,342,343
 1298 0 1298 0 1298 18 c 1,344,345
 1333 100 1333 100 1376 174 c 1,336,-1
EndSplineSet
Validated: 1
EndChar

StartChar: afii299
Encoding: 8206 8206 49
Width: 45
GlyphClass: 1
Flags: W
LayerCount: 2
Fore
SplineSet
303 1603 m 1,0,-1
 166 1465 l 1,1,-1
 135 1496 l 1,2,-1
 221 1582 l 1,3,-1
 45 1582 l 1,4,-1
 45 0 l 1,5,-1
 0 0 l 1,6,-1
 0 1627 l 1,7,-1
 217 1627 l 1,8,-1
 135 1709 l 1,9,-1
 166 1740 l 1,10,-1
 303 1603 l 1,0,-1
EndSplineSet
Validated: 1
EndChar

StartChar: afii300
Encoding: 8207 8207 50
Width: 45
GlyphClass: 1
Flags: W
LayerCount: 2
Fore
SplineSet
45 0 m 1,0,-1
 0 0 l 1,1,-1
 0 1582 l 1,2,-1
 -176 1582 l 1,3,-1
 -90 1496 l 1,4,-1
 -121 1465 l 1,5,-1
 -258 1603 l 1,6,-1
 -121 1740 l 1,7,-1
 -90 1709 l 1,8,-1
 -172 1627 l 1,9,-1
 45 1627 l 1,10,-1
 45 0 l 1,0,-1
EndSplineSet
Validated: 1
EndChar

StartChar: trademark
Encoding: 8482 8482 51
Width: 1060
GlyphClass: 1
Flags: W
LayerCount: 2
Fore
SplineSet
1016 991 m 1,0,-1
 817 991 l 1,1,-1
 817 1008 l 1,2,3
 855 1009 855 1009 866 1021.5 c 128,-1,4
 877 1034 877 1034 877 1074 c 2,5,-1
 875 1319 l 1,6,-1
 724 991 l 1,7,-1
 707 991 l 1,8,-1
 553 1315 l 1,9,-1
 553 1074 l 2,10,11
 553 1036 553 1036 559 1025 c 0,12,13
 568 1008 568 1008 601 1008 c 2,14,-1
 619 1008 l 1,15,-1
 619 991 l 1,16,-1
 464 991 l 1,17,-1
 464 1008 l 1,18,19
 510 1008 510 1008 518 1031 c 0,20,21
 522 1043 522 1043 522 1074 c 2,22,-1
 522 1307 l 2,23,24
 522 1364 522 1364 502 1372 c 0,25,26
 490 1375 490 1375 464 1376 c 1,27,-1
 464 1394 l 1,28,-1
 609 1394 l 1,29,-1
 745 1107 l 1,30,-1
 877 1394 l 1,31,-1
 1016 1394 l 1,32,-1
 1016 1376 l 1,33,34
 1005 1375 1005 1375 986 1372 c 0,35,36
 962 1365 962 1365 962 1307 c 2,37,-1
 962 1074 l 2,38,39
 962 1021 962 1021 980 1014 c 0,40,41
 991 1009 991 1009 1016 1008 c 1,42,-1
 1016 991 l 1,0,-1
431 1294 m 1,43,-1
 413 1294 l 1,44,45
 403 1364 403 1364 317 1364 c 2,46,-1
 281 1364 l 1,47,-1
 281 1074 l 2,48,49
 281 1036 281 1036 288 1025 c 0,50,51
 297 1011 297 1011 332 1008 c 1,52,-1
 332 991 l 1,53,-1
 145 991 l 1,54,-1
 145 1008 l 1,55,56
 165 1010 165 1010 173 1013 c 0,57,58
 196 1022 196 1022 196 1074 c 2,59,-1
 196 1364 l 1,60,-1
 156 1364 l 2,61,62
 75 1364 75 1364 62 1294 c 1,63,-1
 45 1294 l 1,64,-1
 55 1394 l 1,65,-1
 419 1394 l 1,66,-1
 431 1294 l 1,43,-1
EndSplineSet
Validated: 1
EndChar

StartChar: quotedblleft
Encoding: 8220 8220 52
Width: 569
GlyphClass: 1
Flags: W
LayerCount: 2
Fore
SplineSet
545 971 m 0,0,1
 545 941 545 941 533 893 c 0,2,3
 518 832 518 832 497 827 c 1,4,5
 472 827 472 827 405 854 c 0,6,7
 332 883 332 883 332 902 c 1,8,9
 304 944 304 944 304 1001 c 0,10,11
 304 1095 304 1095 379 1218 c 0,12,13
 425 1294 425 1294 500 1343 c 0,14,15
 523 1358 523 1358 538 1358 c 0,16,17
 549 1358 549 1358 549 1350 c 0,18,19
 549 1337 549 1337 524 1311 c 0,20,21
 490 1281 490 1281 430 1199 c 1,22,23
 385 1110 385 1110 385 1087 c 0,24,25
 385 1068 385 1068 393 1049 c 1,26,27
 417 1029 417 1029 487 1005 c 0,28,29
 545 985 545 985 545 971 c 0,0,1
265 971 m 0,30,31
 265 941 265 941 253 893 c 0,32,33
 238 832 238 832 217 827 c 1,34,35
 192 827 192 827 125 854 c 0,36,37
 52 883 52 883 52 902 c 1,38,39
 24 944 24 944 24 1001 c 0,40,41
 24 1095 24 1095 99 1218 c 0,42,43
 145 1294 145 1294 220 1343 c 0,44,45
 243 1358 243 1358 258 1358 c 0,46,47
 269 1358 269 1358 269 1350 c 0,48,49
 269 1337 269 1337 244 1311 c 0,50,51
 210 1281 210 1281 150 1199 c 1,52,53
 105 1110 105 1110 105 1087 c 0,54,55
 105 1068 105 1068 113 1049 c 1,56,57
 137 1029 137 1029 207 1005 c 0,58,59
 265 985 265 985 265 971 c 0,30,31
EndSplineSet
Validated: 1
EndChar

